<mxfile host="65bd71144e">
    <diagram id="F5gtGPhMd5zR0XQ11kXq" name="Page-1">
        <mxGraphModel dx="3744" dy="1639" grid="1" gridSize="10" guides="1" tooltips="1" connect="1" arrows="1" fold="1" page="1" pageScale="1" pageWidth="850" pageHeight="1100" math="0" shadow="0">
            <root>
                <mxCell id="0"/>
                <mxCell id="1" parent="0"/>
                <mxCell id="3" value="" style="shape=image;verticalLabelPosition=bottom;labelBackgroundColor=default;verticalAlign=top;aspect=fixed;imageAspect=0;image=data:image/png,iVBORw0KGgoAAAANSUhEUgAACckAAAUGCAYAAABADatGAAAACXBIWXMAAA7EAAAOxAGVKw4bAAAgAElEQVR4nOzdf3RedZ0v+jesJvVOWhhpSUlKoaWntabTlqllWFAOUgU9qBQ8wIA62JlRF1zRupClTr3UO4tyxB8Le63UI2v0nFsdHRxhkDJMVcoUuRQXU2BoOS2xWAqUJrQ0Ij/qsS1ruH/kR5+keZInyZOkefJ6rZW1sn9993fvZ++kkrefzzF1dXVvBgAAAAAAAAAAACrQscM9AQAAAAAAAAAAABgsQnIAAAAAAAAAAABULCE5AAAAAAAAAAAAKpaQHAAAAAAAAAAAABVLSA4AAAAAAAAAAICKNaa/B37wyr9KVVV1p3WHDh3MXbf/z5K2AwAAAAAAAAAAwGDrd0iuqqo6//iD2zqt+/Orri55e2ezc+2dX0mWX5TV2/o+l1mfuSff+4tn8+UzPp17+354zxquz+1rlmRK0R1+OTjnLYeLvpXbT/tOrvzm1tblhutz+4rkby/9Wd595zV59tJe5n3Rt7LxL5/Nxy69JY1DMV8AAAAAAAAAgDKbOv1t+dMzzs7BAwey8YGf53cvtwz3lIAh1u+QXFlddE3+84N/kyu3Ja2BuX/Ih0/pss/za7oNa836zD353rkP5GM3Ts337rw+OwYj0PXQl7Lwup92s2F2rr3zmk5r3r9yS975r3Pz+XvaVrSH7IqOcfR4/8ot+eI5Xde+M9/btKTzqiKfBQAAAAAAAABAX7z/gx9OzbjxSZL9r7+WX/zzHTl06GDZxp86/W35s7PPy6aHH8gf1YzLovcuzoafry1LUK5m3PiccdZ5qT2pPlu3PJatmx8d+ISPQrUn1WfGrDn547dOSM248Tl06GBeeG5nntu5PXtfbOr3eLUn1aeqqjqHDh3M3heb8nTjk/0aD0pxVITk3v+u5AfXbW2tXPauZ/OjI6qzXZKv3Tm9y1FtYbocDmx97LR78r1NU4+iym6X5GtrluT5G+fmynt637ucrr1zS1vQ8J3ZOPWX2XjOO7MwSZ5f07bHO/PFTVvyxaRTCHDjjQUBPwAAAAAAAABg+DVcn9s/sSNXXvfTI7vKFRQjOvw3/9acxf+49JY05pJ8bdONrZmBTp7Lj5b0r+NfucyetyB79zRl010PJEkWnvfezJ63IE88+nBZxi8MyO3c8euO9eUIytWMG5/zLrgoz+74dTb96oGcd8FFSdJjUO6YY47Jz+7/ZSZPPrnX8d9888187eab8oM1/7Pfc2z351ddfUQ3yFKdvuDsTJ4yNdufejJPbHo4+/e/lppx41M7qT5nnHVedu96tk+fV+F4/7ZxQw4dOtjv8Yp3tExHkG/bk49l/+uvlTw/Ktfwh+Qu+lbe+a+fzuczO9f+ZfLlS3+WqV2qs3V3zMYvvfOICm+N37woH8s9+d6mLXnnsIe9Wn/JnPL3HxrygFySrL50blYXabfaqnib2O4ryrVRRQ4AAAAAAAAAhtWUv/iHbPyLw8u7/v5DWdgRmuvqp/n8GUdP57uF5703f/zWCakeOzYvt+zLxgd+3rHt3zZuyJ8tXJQPXvlXebllX373cku/A3OTp0w9IiBXVVWdrVseSzKwoFxhQK59vAfuu6ekoFx9/eT8ydtO6/UcJ588Jf9419o0PrUtm/7tkT7PsRxOX3B2asaNP6K63/7XX8vO13+dF57fmT9buCinLzi7pM/p9AVnp7q6usfx/vSMs0se775/+adc8L7/mvv+5Z/ycstLnbbVjBufqafNzHs+cFmfP+f6k0/NOYv+S0ewsOtyd/78qqvz0IafpemF57pdHhKTL84nP3VSNi67LZs7Vk7J+dcvSW6/Ket3D91UCtVdeEM+fm5tSfu2PPj1fHvdrkGZR79DcocOHTwikVn4APe2vd373/XOLDxnSzZ+qTXRvDqzc21hlbN2z6/J/8jhANeu55/LlHNuzMZNNx4x5q7nn8vCL23JxneVqcVpkfO0+mW+fMS62bn2zraAXNFfQof19GKU8qL1aOo1uX3l/a1p8hLde93c3JvZmdWwNY2FLXDTe0BuUK8FAAAAAAAAAEaZwkI3GzfdmI0P/TK7ussjNFyf21dMzfN5Zxae0rpq4aYl3e87TGbPW5Cqquo88It7cvDggSNyJIcOHczGB36eqqrqvPWEiTnj7PPStOvZ7N3T9xacM2bNyf/a/GhHQG72vAU5sbYuD9x3T7ZueSxV1WMze96CTiG9UrQH5GrGjc/Lv93XsX7/66/lgfvuyXs+cFlZ2q6+8MKuLF/2hXxz9W25/JIPZPfuFwY8Zl/UnlSfyVOm9tj+9tChg/m3jRvyng9c1uvnVOp4/77p4ZLGS5KXW14qGpTb//pr2brlsby0pzmL3rs4/3znD0tq49uebXlow8+6XS7moQ0/69iv6YXnjlgeCvPOf3cmJFl886osblu3/cH7M2FibSZ8alXOat+x8YdZsaZY8PLMXHHzRzKhWFjtiCBeL/snaV53U1asK1wzPMG9fofk7rq953KOvW1v1xrIuiTXfubprO6ouFa83Wrr/kPsoWJhu9m5tpuqdwu/9A9Z+PyafKzEXzLFXoxSX7Tuzc61f/nOTMmafOzS5GubthRtt3q43OpzeW5H2+aGGfnrFf/Q9ovzufxoydwsLKHE6uBcCwAAAAAAAACMTvdeNzf3FrZbzSX52qbOleTadfz9v63T3N8eZZ3ipp42Mxsf+Hn27z/c/nL2vAWZ+fY5SZKdv/l1nnj04Rw6dLC1DevDD+SMs8/LvXf9qM/n2runKbWT6rMtj2X2vAWZetrMPHBfazClqqo6tSfVdwq5laKwgtzLv913RD5i6vS3lbW15/3rf5GZs96e733/h7n8kovy2muv9muc/hQzmjFrTrZueazXYNmhQwez/aknM+Ptc3oMtRUbr2sr2FLHa1cYlOvuOvfuacrO3/w6M94+J9vaqv4VU5htaXrhuSOWe9JdMG5Ig3Lzr87iifdn7YNzsjBrOgJr85bckBN/cn9mXt61wlxXU3L+9Z/LWRO3ZnsPPzTq5s5JHlyTzSXuXzi/5ZfP7ryuMLiXZPtPlubHj5cwVj8Nf7vVtqprHz4l+fBfJBtv/FB6fyyK9ctuV7yV6FDYeOPc/PJdW/K9O1NSa9LuXoy+vGjdufbOryQP/jK78rM0Zmtr6dQS2q2e+ol7svGcU7uuzYfXbMmH2xeLhgYH51oAAAAAAAAAgHa9t0+dNX1qkqn5203n5fmHkoVH5ADaPH9kR7nB7CD3u5dbUj9lakfry/b2m/985w9TPXZsZs99RxrmvqMjzFQzbnyfqshNnf62TJ4yNftffy1PPPpwmt76bKeA3P7XX0tVVXUWvbe1ztYTm0pv5dpdi9XCfMRbJ5zYKYhXLt9ZvSpvf3tDvnnrf89fL/lIt/u0d3r8xx/cdkTXx3bdbevpc6w9qb7kVrfP7vh1/uT0BT3uU+7xCr3c8lKP19K069mccfZ5PYbkBhKQ6zjPMAbl5s05Mb+6/bZs3n13suSGnD/5pqzffWZm5b78+PFHsn7Pxfnk9Rdn7y13p7nbEXZl/S1Lsz7JvCWrimSyzsy55ybbb20N4PW+fxc9VLCru/CGnFvKGAPQ75DcB6/8q1RVVXdad+jQwY4Kcr1t73DRNfnwKc/lR0suyur21p5/WbzdauFy9wG07qu7DbV7r/tQpt75D/neyh0ltXzt+mIM9AVZfelFyUXfyn/uvY11m9mZesqz+eWln87nC1df9K1sfNf9Hdfw/pVb8s5/7fl6yn0tAAAAAAAAADDqnXNjNm56d7685NlctWZJphyxQ3uxnEvy1+9Knj/l2fzyxuSq076Thde1dcK76Fu5/bTv9Nh+dTA7yD391JOdwkrT/tPbOtpvtrfa/MClH+nYPmPWnPzbwxtKGnvq9Lflz84+L1s3P5o/PmFiasaNz+RTphUNyG34+dqS2m8m3Qfkks75iPZ2q6VWkjvmmGPy8KZ/z5tvJgv/7E+7/f7sM07Pm2++mRuWfS4/ueuf8/ll/1e+dvN/O2KswoBYT2GxvoQbq6qqO11Ld+G79vEOHTp4REaoL+MVhvxKHa8v9u5pSs248UW3lyMg1264gnKb19yUeUtWZfmsthWzDldpW37z4XDlBy98vGhb1F7NPz0z9z2Z75ajRer8q/PJSf/S/7n0Q79DclVV1Ue8PIUPcG/bO9zz6Sy8J2kNt/1D/vODX8r/10O71ZFja1Zf+qWcuunGbFyZfgXlyvVizPrMPfneX7Slwrtpt9oaONyRU/Ns7u9poIbrc9Upa/K3JYSeh6u/MgAAAAAAAABUkmvv3JIPn5LDXd8ars9VR3SAO1xQaNZn3p3n/u7+nHrK9Oy455ZcmfaCOHM7iua8f+WWXPXsh7oNyw1mB7mDBw8cEUw7eOBAx/fVY8d22lZVXZ3q6s7rutMekNv08APZuePXSdKpglztpPo0XPCOjnOXIyDX7q0TTuxzQK6TN9/s/fsckxyTvPZa/1q5dm1pWor2oFr7ferp+ML9+jped3OrGTe+5M+HwzavWdqpnWrdhTfk3D03HW5hOv/qfHJS/8efN2d2tm+4rUgluqPfUdButfWH7xfPeS4/WjI3V26bnWvPfXfvB52yJN/btKTIxl/my+Wc4Dk3ZuOmG/txrp/m82ckX9t0YzbeOb3k1qv9LUtaTOM3L8rCb6bHdquzPnNPTnnwb3qe37ZbcuWlpZ93MK4FAAAAAAAAAEaT1ZfOzeqG63P7JwpWdptjaM0vTM+zuX9b8tftqwsL4lzUuurev1uTq9Zck/d/s7CA0WGD1UFuxqw52f7Ukx3Lv962JacvODvbnnwsBw8cSMPcd+TZtpBbkuzc8evMePucHluu9hSQ2/jAz3PqtJnZ9mRruG1MVXWe3fHrPgWwegrIdW3l2hdvvvlmzlpwesdyse+POeaY3HTzV/PCrl3577eu6tM5BuLlln2Z+p/elqcLPq9iTj5lWva+2HNb3L0vNpU8Xu2k+l7H64s/fuuEjha/3Sln9bdyVqXrq7oLb8jHz63tsnZVll9+eKnlwX/p3+CTL87CWVuzcU3vu5aibtKJadkzdFXkkqMgJDfrM/fkqmc/1Fras+H63L6prSRo13arSRbemcNBs6Fst3pEArv4ue69bm6XXyC99wIfDO1J8o03frqEvWfn3ec+mx9cejghXlh9btfff2eQZgkAAAAAAAAA9FkPleTu/eYtSS7p2PL+TyzJ8//v3M75im235AcPbclVn5mde4u0Xh2MDnK1J9XnuWe2H57Glsdy+oKz854PXJYk2b5tS+d2pruezbTpb+txzNlz35EnHn242wpyBw8cyMmnTMuhNw6WFM7qTs248WUPyPXFJz/1mcx829vzsSUf6X3nIvpT4Gjblsdyxtnn5dnf9BwqrKqqTsPcd2TTww/0OF57q92u43WdW6nj9cWMWXPywvM7e9ynHEG54QzIJVMyuyH51a1Ls76tHeoRleQGoG7unExovK9Tpbr+m5LZDbXJnrIMVrJhD8k1fvOiXNm+sO2WXHnGLSUc9dN8vmhFs61ZfWkpwbASbbslV143ROcqo9WXzs3qrisLKsE1dpr3kdfRUX0OAAAAAAAAADi69FBJrpOLvpUvnrImH7vnyCHu/bs1uWrFf8msb24t2nWu3B3kNj38QM44+7xs+tUDebllXw4dOpgnHn04Tzz6cKf9qqqqUz12bE5fcHanynLFVLW1ZK2qqs6JtXUdwbWqqupUVVfn0MHytu4cqoDcuy94Ty66+IP52JKPZPfuF/o9Tn/are7d05Tdu57N6QvOzhOPPtxtUK6qqjqnn3F2ml54tsdqf4MxXqlqT6pP7Un1eeC+bl6CLgYSlBvegFyS1GfCxNrM/NSqnNVpfedKcsnWrF12Wx/Dbq2htu0bHun/9B6/LSvawnp1Fy7JWft+mLVzWufW8uDX8+11N+XH/R+9JP0OyR06dDB/ftXVR6wrdTsAAAAAAAAAAD17/8ot+eI5ya6//9DhlT1Ukuvknk9n4T2t3eQ2tnWT6+hIV1BoZ6i0B6Ua5rwjb50wMXtfbMq/bdzQkSepqqrOwvPem7dOmJiDBw7kdy+3dFvFrdDGB36eRe9dnCTZuvnRjjBUVVV1Fr13cQ4dOpjdvVQR64vBCsgdc8wxnZZPPnlKVnz5q/nMtf/ngAJyA/HEow93VPrbuuWx7H5+Zw4dOpiqquqcfOq0NMx5R17a05R/3/Rw74N1M95Le5o6woxTp78tM98+J00vPFvyeD2pqqrOzIa5mfn2Odnw87Ulf1aFwbh//MFtRywX0zUQN7QBuSR5JD9e1hZim391ll9+YrY3JnmysJLclJx//fv6PvTk+ZmZ+3PXQCvSTb44n/zUuzOh8YdZseaRJI9kc5J5S1Zl+c3J9p8sLUvVu2KOqaure3PwhgcAAAAAAAAAgCOdvuDs1Iwbn40P/DxJcsZZ5+X3+1/rNRjX1R+/dUIWvXdxtj/1ZLZufrQjIJckG36+dkBFnd7/wQ+nZtz4juX9r7/W74DcMccck5+t/2Umn3xykuTNN3uO7Hz71m/mv9+6qs/n6ao/leQKTZv+ttRPmZrak+pTVVWdQ4cO5uWWfdm25bF+VXyrnVSfGW+f02m8vS825emnnuzTeF2LdxU6dOhgdu74dZ5+6slBrfZ3dJiS86//XM6a2LbYFkLraLeaq7P88tmt2/bdn+/ecnea+zD6vCWrsnDv1/Ptdbv6Nbt5S1Zl8azezt16DRM2DF5QTkgOAAAAAAAAAIAhV1VVnfd84LKOENr+11/LvXf9qF9jtQfldu74dWon1ScZeEAOODNX3HxBWm69Ket3D/dcBkZIDgAAAAAAAACAEa9m3PiccdZ5eWlPU7Y/9aSAHNBBSA4AAAAAAAAAAICKdexwTwAAAAAAAAAAAAAGy5jedmi6pHko5gEAAAAAAAAAAAD9Uv/TuqLbeg3J9TYAAAAAAAAAAAAADJfeCsFptwoAAAAAAAAAAEDFEpIDAAAAAAAAAACgYpXUbhUAAAAAAAAAAAAG4t1/PClfO2VO6qrG9um45kMH8vnnn8z9v9vTr/OqJAcAAAAAAAAAAMCg609ALknqqsbma6fM6fd5heQAAAAAAAAAAAAYdP0JyJXj2PK3W11Un6ZrxyWPvpj6r7zazQ7HZc0dJ2X62udyzsbxeeirJ+S0YmO1jTHvo9OybvGBfPaypjxV8P3tbbu1bq/Kfau3Z8nzE/PQV6tz6xcO5lNfPSE7Vj+XHR88NdPv2p4laZ3bfau3Z8mGsl85AAAAAAAAAAAApZj/J8nFFySTJiS/eS75wV3Jscckf/Ffk+lTkj0tyd33JY//rwGfqvwhud4sSvJoctri+nxp486cc9m+jk1X/s3MfKP+t7lw6b5s7nGQcfnGHTPzjfbFpt/mwsv2JdPHJjmYHU0n5MKFv23dduaEXFN/KPdlbK48c1yS17OurwG5rsG/6RM7hfs6he6GeluS9uDhBU2H792VfzMz31hwKN/5ws7cuKOP19udM05O84eP61j8ox9ty/Gbutt2IMfdsiM1L7QuvbF4el5aVJjifDUTrnsh1YVjnzwpLddPyMGXWnLil/cc+VB2OXf1hmcyYe0fSh+/z47PKysn5/dd59PTPSg63873o+NaexujVH0dr7t73cP9PfiJhrQ0HDl2631P52sDAAAAAAAAAIBS/Ons5DN/dXh5zqxk+dLkmGOScX/Uum7qya37/D//I/n3rQM63dC3W93wapZ8ZXvqLyslvDU2X1o1M+sWV6U1GDctn61Pktfz2cu2p779a+lruXjVzKxemMxbOCEX1CcXLG4NlV2wYFySqmTK+HxqQdIesGu6Y2aaVk3MvN6mMH1iHrp2XJ5Z+1xbZbzjsqZL9bsLrp2WL03P8Gy7Y2aa7jgpF3SZ9u1f2Z7PPlqVa75anyt7u8ZeHZ9XCkJUSfL7D0/P/pPTGrrqtG1sXr3+5I7Q1n9M6r3M4cELD4e8ut1+eudzH1x0Wl45o/TxS3d8XlnZkOaVk/P77rYVuweFerwfx+eV6ztfa7dj9GW+fRyvu3td9P6ecXJaGl7NhOu25cQNB/L7CybljSQ5eVJeWTQ2f/QjATkAAAAAAAAAAPrhkvccuW58zeGAXG/79tEQh+RaQ2+FAbV5H52WpjuKBbkO5Mal23Ph2kNpDcbtzJKfvJZnCoNud8xM0x2n5pr61iM2f39n6r/w2zzTNsJ9q1uDdOvqW4Nm963e3rH9vrt6q1iXXHn5CTktr+fW7x9oXbFoXGsg7dEXU3/Z9nz20SSpynsWjh36bW2eWfvb3NfN3G//yW/zTMblUx8tQ5Bs2+7UXbctdddty4RtSTI2b9Qlb8wfl4NprT5W1xamSo7L/z6j8ODWoFXr8V2qvJ1xckelsqL2tOTEtuNbxz+QMc0ljt8P1Rta0s3rVvQeFOrxfpwxvjV81zZO+xh/mP+W/k20r+MVu9dF7u8bdWOTlw7l2CRjmg8kJ1blP/KW7P/ohBzctntgFfAAAAAAAAAAABi96moHZ98iBq/d6oKT0nTHSQUrXs9nL2vKjUufS1admmv6O+6OfZ1atB5h+sQ89NXx+cXq3+Y9156QC66dmaZru+xzSnVOy6H84vlezjV9Yj61IHlmbUtub1s1b0pr4Oy+R15Nktz+yOv5xoJxOa1+bOZlaLclr2bJZW3V7RZ3f69uffSEfGPxhFz5/aaOa+i7V3L833Vd1xZUq+tm9yRv1L0lyR/alo5Ly8rWdFZhK8/26mzVG1oyZtGEbqq3tap+PGlZ2dBRAa16wzNdKpgVG7+vXsnx173SOq9F3Wwrdg9K8EbdW/JG22f5R0+80jrXJ15NGo7LwUljc/hele6Nur6MV/xeF72/dQeSRVX5j/ZzvfR6snhyXj3x1Uz48it9ni8AAAAAAAAAACRJXnwpOXVy6fsO0OCF5B59sa09aR/Vn5B1d5yQpLXq25INXbYvqk/TteO6PfS+1duz7szx+cUXdubGTMx72tZ9Y8rEXJzqvGfBuEyf0h48O5DtvbV7PaW6tfrcrgMdq95eX5XkUHa0B+yeP5hnkpw2DNtK8VTToSRjM3N6kl7b2/bu4CcaWquRbdt3OEiVsTm46LQ0HxEse0sOndjl+EWTs//x1jadBz8xOb9/qSUnrv1D9h9xbA9z+JPj88baP2RML+MPliPuQYExzcXvR2tr2IJgXfOhVCc9tprtSV/G68u97ri/m17IhNMb2gKIB3Lchqq0LEqOu+W1/O+VDWlJkpdacuKX9wziDxIAAAAAAAAAACrO2vuST/9lafve3V2Pzb45+rItTb/NhUu7a4M6Lt+4Y1pmrj2Q5FC+84WdubE99FUQnLv9KzuTHJc1d5yQrH2uLWS3L5sXHZdkbK5ZMD4XN1Ulj7YMoLJaVaafktbQWVuQbvi2DZXj88rKyYfbe/5dWyWxTS/kxLrpeWlRa2DruA0H8uqi49qO+UNqvrwtNW1LreGy9jat09PScCDH3bInY3J8z6d+YU8mXLenYIwJ2X/Gnhy/qfj46TUkV3A9OZDjbiklWFfkHhTq8X4kHS1aX0hSV9WHgNyR860qcbw3Fvdyr4ve36T677a1FQtsPX/1hmdSdeFp+cOGZ1K3dmxeWTm5Y18AAAAAAAAAACjJo08m//Sz5L/+l573+6efJY89OeDTHX0huU7G5kurTs019Ul7u9bbF9XnmlTlmq/O7LZl65V/MzPfWNC2sPjUNC1OOkJ1z1fnPYtPyDX1h/KdL/Sjyl3aK7NV5YIzj0s2vJorz2wN5z3TdCBPZWi3DZ23ZP8XJ+f3RcJkY9buSN3apD1IlRzIWx7/Q5K35I2T/5AxR4TP3pIDf9LaKvTV6xvS8UmcOCEvrRzX5RzHZ//iA6nptoVqsfFL0dpatZd4Xqdz9XQPChW7H8fOP5A0jM3vTz8+x296JQdPbw3PVe8p5bM8cr5v7CllvN7u9b5kfrH7e9jhSnTJgS8mY55o3X/MS8kfOrXWBQAAAAAAAACAEtx9X/La/uSqDybHHtt523/8R/KDu5J/fbgspxrWkNzFH52Y7T3ucSA3Lt2euz86LesWF67vqZLci7nwjpMyfe1zOef7aQ3Z5bXcvSNJXssvmk7INfUFldl60tbadPqU1qpgSbJ542t5ZvEJOW3BSWm646S2HV/Prd8/kM3Th3ZbKVrbtb7ee2vZnpwxMa+emCRjOwWt/uhH23L8psIKZ2062pCOzf7rT+u8La/m/9j0h1RvOlwBrqNKWlvrziyenubrx6Z6wzOZsDZ544jWpe0tRouNP4BrLaaHe1DTVjmudb5je7gfr6d60dgcbJic5pXtPZVfzfheAmrFjHm8+HhvLC6Y05eL3+sxOT6vXF/s/rZf+8kFlejekgNJ3qh7S5KxeePEZEyzgBwAAAAAAAAAAP3wrw8nzXuTaz+ajG9LuLy2P1n9/eSp35TtNMf2vssgqT8h03fty1P9Ori1klzTHW1fbQG5JMmiZN0XfttaRe6OU1urxn2ztX3rlX9zaq7J67mvKbng2mn50vReTrPjtfyiKTltwfjM61i3L+esfr1gp0P5zheaWlu3DvW2Xh2XCxckefT1AbSW7aNObUhfyfE/KqzY92omXPdCqvs04IGMeanz8uFKbuUYf5AV3o8X9mRCp/keyHG3DGC+ZRmvp/ub5ORJafnwcanesLtt3R9S8/2WZNFpaV45Ob/ftlurVQAAAAAAAAAA+u+p3yT/98rk6WeT7Ttbvy9jQC5Jjqmrq3uzpx2aLmlO/U/rim7v1N60N4++mPqvJGvumJAdX9iZuxdOy7rFVT2c/Lf57KPj843FVUnTb3Ph0n3ZvKg+TdeO7baS3H2rt2fdmYfnc9/q57Ljg+3tWtvP/2o62rg2tS/3YPrEPPTVE7Jj9fYs2VDidR4l5rVV4Ot0rwAAAAAAAMUOAn0AACAASURBVAAAAIZB0zveP6Dj6x+7t/txe8m4DTgkNxq0hs2qct9ICsq1BQefWftczimxNSsAAAAAAAAAAMBgeWzu+amrGtuvY5sPHcg7tqzvdltvGbcx/TrjKLP5+ztT//3hnkUfbWhK/UgJ9AEAAAAAAAAAABXv888/ma+dMqfPQbnmQwfy+eef7Pd5heQAAAAAAAAAAAAYdPf/bk/e8bs9Q37eY4f8jAAAAAAAAAAAADBEhOQAAAAAAAAAAACoWNqttqmpqRnuKQAAAAAAAAAAAAzY/v37h3sKRxUhuQKj6eGoqakZVdfL0PBcMVp41mFweLeoBJ5jRgvPOqOFZx06807A4PBuMVp41hkunj3oO+8NHDZS3wfFwo6k3SoAAAAAAAAAAAAVS0gOAAAAAAAAAACAiiUkBwAAAAAAAAAAQMUSkgMAAAAAAAAAAKBiCckBAAAAAAAAAABQsYTkAAAAAAAAAAAAqFhCcgAAAAAAAAAAAFQsITkAAAAAAAAAAAAqlpAcAAAAAAAAAAAAFUtIDgAAAAAAAAAAgIolJAcAAAAAAAAAAEDFEpIDAAAAAAAAAACgYgnJAQAAAAAAAAAAULGE5AAAAAAAAAAAAKhYQnIAAAAAAAAAAABULCE5AAAAAAAAAAAAKpaQHAAAAAAAAAAAABVLSA4AAAAAAAAAAICKJSQHAAAAAAAAAABAxRoz3BMAAABgBJp/dZZfPjtJ0vLg1/Ptdbs6bZ63ZFUWT7w/373l7jR3OiZZu+y2bG5bVXfhDfn4ubWtC40/zIo1jxxxqsJ9Dp9rSs6//nM5a2L7Xls7jQsAAAAAANBOSA4AAIA+OjNXzHkiK5bdlky+OJ/81Psyb11BQG3yxVk4K8m+9hVtgbbsTUteOjzM5IvzwXNfytplN2Vz2z5XzH8kP3684FTzr87HG57Md5fdneacmStuXpLzt9yU9buTZG9+dWv79wAAAAAAAN3TbhUAAIA+eiQ/Lqz4tu/F7O1YmJLzr5yT7Q9uLdh/V9bfsjQrbn+y8zC7X0xLL2eqm3RiWrY93laN7pE0NtZmwqQkqc+EiS/lJQE5AAAAAACgFyrJAQAA0GcdLVD3dW6pOm/J5zJz29fz7T3vy1kNvY3ySH78k9Oz/OZVWZy2VqqPd96jec9LmbBofurW7UpzpuTEicmESVPats7O4sJju7R8BQAAAAAASITkAAAA6IPa2trs3bs3zetuyop1aW23evMN2X7rTVk/6eoszg+zYt2uZH4Jg02+OJ9c9GK+u+y2NLe3W92ztHO71cdvy9o5q/Lxm9+dZG+2N7bXrHskP17WXs2uaxtWAAAAAACAw4TkAAAAKKq2trbT8t69ezvvsPvubGx8d2ZNmpLzF81OJs7O8ps/0rZxdj5+80lZu+y2bO5m7Lq5c5Jta9qq0O3K+g1bs3zOmcnjj3Tab/OapW3HT8n51y9Jy/quFeMeSWPjRzJrUhIhOQAAAAAAoAshOQAAADr0GopLkvlX54rc1lrxbfLFWThrb7av35X1tyzN+oJ9li96sVMr1q66tlI9f9HstGz7l+KTm/++nJUn893dree9Yu7j+fG6XQVz6Pv1AgAAAAAAlU9IDgAAYBQrKRTX1eO3pXHJqiy/vHVx+0+W9q/NaadWqkn23Z/vrtvVGrC7PG0V6M7MFTd/JDOTJFuzdllb6G733Wk8f1WW3zzAOQAAAAAAABXvmLq6ujd72qHpkubU/7RuqOYzbGpqarJ///7hnsaQGW3Xy9DwXDFaeNZhcHi3qAQj5TkuDMaVFIqDLkbKsw4D5VmHzrwTMDi8W4wWnnWGi2cP+s57A4eN1PdhpM57IHrLuKkkBwAAUOH6VS0OAAAAAACgQgjJAQAAVBihOAAAAAAAgMOE5AAAAEY4oTgAAAAAAIDihOQAAABGqPZwnFAcAAAAAABAcccO9wQAAADon83LJgrIAQAAAAAA9EJIDgAAAAAAAAAAgIolJAcAAAAAAAAAAEDFEpIDAAAAAAAAAACgYgnJAQAAAAAAAAAAULGE5AAAAAAAAAAAAKhYQnIAAAAAAAAAAABULCE5AAAAAAAAAAAAKpaQHAAAAAAAAAAAABVLSA4AAAAAAAAAAICKJSQHAAAAAAAAAABAxRKSAwAAAAAAAAAAoGIJyQEAAAAAAAAAAFCxhOQAAAAAAAAAAACoWEJyAAAAAAAAAAAAVKwxZRtp/tVZfvnsJEnLg1/Pt9ft6rR53pJVWTzx/nz3lrvT3NP+vYzT4z6lHAsAADCCNa9sKLpcd922oZ4OAAAAAAAwko2SzFeZKsmdmSvmPJEVy5Zmxa33J+e+L/MKN0++OAtndV7+5OXJ2mVLs2LZD9Ny7pKcP7mH9SnTsQAAAAAAAAAAAGQ0Zb7KFJJ7JD9e88jhxX0vZm/HwpScf+WcbH9wa8eaurlzMqHxiWxuO7axsTYz504pur7QQI4FAAAYKRpnTBvuKQAAAAAAABVt9GS+ytZute7CG/Lxc2uTfQXl9ZLMW/K5zNz29Xx7z/tyVkFXoJa9TR3f7927NxNq65O9Rdancwm9gRzbk5qampL3rQSj7XoZGp4rRgvPOgwO7xaVoJzPcV/H8g4xlDxvjBaedejMOwGDw7vFaOFZZ7h49qDvvDdwWKW/D5WQ+SpF2UJyzetuyop1aS2Bd/MN2X7rTVk/6eoszg+zYt2uZH7PxxdebCnry3Vsof379/dp/5GspqZmVF0vQ8NzxWjhWYfB4d2iEpT7Oe7rWN4hhoqf2YwWnnXozDsBg8O7xWjhWWe4ePag77w3cNhIfR/6EuyrhMxXKcoWkuuw++5sbHx3Zk2akvMXzU4mzs7ymz/StnF2Pn7zSfnVg+mU+KutrU17rb5i6wsN5FgAAAAAAAAAAAAKVHjm69iyjDL/6lzRnhqcfHEWztqblj27sv6WpVmxrO3rJ1tby/Ituy3rtzyZllmnZ16S5MzMmrU327fsSnOR9YWK7VPKsQAAQGeNM6YN9xQAAAAAAAAYDqMo81WeSnKP35bGJauy/PLWxe0/WZr1u3vYf/fduevBG/Lxm1dlcaf9i6yff3WWX56sXXZbNvf1WAAAYECaVzak7rptwz2NUaFraLFwedbTO4d6OgAAAAAAQCUbRZmvY+rq6t7saYemS5pT/9O68p/5KDNSewj312i7XoaG54rRwrMOg8O7NTwaZ0zrNXwlJFe6gT7HxT6PwvXNKxuKHu9zYqj4mc1o4VmHzrwTMDi8W4wWnnWGi2cP+s57A4eN1PdhpM57IHrLuJWnkhwAADBiqFYGAAAAAADAaCIkBwAAo1CxamXtulYrK1xWrQwAAAAAAICR5NjhngAAAAAAAAAAAAAMFiE5AAAAAAAAAAAAKpaQHAAAAAAAAAAAABVLSA4AAAAAAAAAAICKJSQHAAAAAAAAAABAxRoz3BMAAADKo3HGtKLbZj29cwhnAgAAAAAAAEcPITkAAKgg3YXhegrPAQAAAAAAQKXTbhUAAAAAAAAAAICKJSQHAAAAAAAAAABAxRKSAwAAAAAAAAAAoGIJyQEAAAAAAAAAAFCxxgz3BAAAgKHXOGPacE8BAAAAAAAAhoSQHAAAjDKznt7Z8X3jjGmdlgEAAAAAAKDSaLcKAAAAAAAAAABAxRKSAwAAAAAAAAAAoGIJyQEAwCim1SoAAAAAAACVTkgOAAAAAAAAAACAiiUkBwAAAAAAAAAAQMUSkgMAAAaseWXDcE8BAAAAAAAAuiUkBwAAAAAAAAAAQMUaM9wTAAAAjj51123r+L55ZUOnZQAAAAAAABhJVJIDAACGjLasAAAAAAAADDWV5AAAgH7pGngrXFZ5DgAAAAAAgKOFSnIAAAAAAAAAAABULCE5AACAIaTlLAAAAAAAwNDSbhUAAOhRsdapheubVzYU3U9bVgAAAAAAAIaTSnIAAAAAAAAAAABULCE5AAAAAAAAAAAAKpaQHAAAAAAAAAAAABVLSA4AAAAAAAAAAICKJSQHAAAAAAAAAABAxRoz3BMAAACgdHXXbev4vnllQ6dlAAAAAAAAjqSSHAAAAAAAAAAAABVLSA4AAGCEUkUOAAAAAACgd0JyAAAAAAAAAAAAVKwxZRtp/tVZfvnsJEnLg1/Pt9ft6mH9lJx//edy1sT2g7dm7bLbsrmncfp9LgAAgKHxWH1tZj29c7inAQAAAAAAUJpRkvkqUyW5M3PFnCeyYtnSrLj1/uTc92Vej+uTZG9+devS1m3tN2vyxfnk5cnaZUuzYtkP03Lukpw/ucupiu1TyrEAAAAAAAAAAABkNGW+yhSSeyQ/XvPI4cV9L2Zvj+vrM2HiS3lpd+dR6ubOyYTGJ1pvXh5JY2NtZs6dUtI+pRwLAABQbo0zpnV8dbecJM0rGzq+ulsGAAAAAAAYeqMn81W2dqt1F96Qj59bm+y7P9+95e4097I+mZ3FN6/K4nQuk9eyt6ljj71792ZCbX2SziX0ut1nb2nH9qSmpqbkfSvBaLtehobnitHCsw6Dw7s1cMXu4VDc2/6co1I+83c07T1i3WP1tSVdX9d9yv0Z/uamU/OfbniuX8dCTyrl/YXeeNahM+8EDA7vFqOFZ53h4tmDvvPewGGV/j5UQuarFGULyTWvuykr1qW1BN7NN2T7rTdl/e5i6x/Jj5e1pw3PzBU3L8n5W27K1m7GLbwJxRTbp5RjC+3fv79P+49kNTU1o+p6GRqeK0YLzzoMDu9WeRS7h0Nxb/tzjkr5zNuvo+tzXMr1dd1nMD7DSrnPHD38zGa08KxDZ94JGBzeLUYLzzrDxbMHfee9gcNG6vvQl2BfJWS+SlGmdqsFdt+djY21mTCpxPVtZfLa17cmAVvV1tZ2e4pi+5RyLAAAQKXT3hUAAAAAAOiTCs98lSckN//qXDG/7fvJF2fhrL1p2dPD+skX54oLpxyxvnnLk2mZdXrmJUnOzKxZe7N9S+fSecX2KeVYAAAAAAAAAAAAMqoyX+Vpt/r4bWlcsirLL29d3P6TpVm/O8nuIutzdxrPX5XlNx+5/q4Hb8jH2/rWdqyff3WWX56sXXZbNu8usk+xYwEAAAAAAAAAAOhsFGW+jqmrq3uzpx2aLmlO/U/ryn/mo8xI7SHcX6PtehkanitGC886DA7v1sA1zpiWWU/vLHl9OTWvbEjddduKbium2DEjSeH9LXyOC9eXeg/K9RlW+j1n+PmZzWjhWYfOvBMwOLxbjBaedYaLZw/6znsDh43U92Gkznsgesu4lafdKgAwrHoKQwAAAAAAAADAaCYkBwAAAAAAAAAAQMUaM9wTAAAARj4tPMuncca04Z4CAAAAAABARRGSAwCAEaZxxrTMenrncE+DQeBzBQAAAAAAKD8hOQAAGAG6VhcrXBasAgAAAAAAgOKE5AAAYIToLgzXU3gOAAAAAAAAEJIDAICKURii05IVAAAAAAAAWh073BMAAADKT0AOAAAAAAAAWgnJAQDAUaR5ZcNwTwEAAAAAAAAqipAcABzlBGZgeHkHKYe667Z1fHW3fDTwrAMAAAAAAJVqzHBPAAA4UtegQuHy0RSoAAAAAAAAAICjnZAcAAyjxhnTMuvpncM9DaCLwQiqet8BAAAAAABgeGi3CgAAAAAAAAAAQMVSSQ4AhljjjGlFl1WZgqGjshsAAAAAAACMDkJyADAMugvmdA3PAeU31CFVoVgAAAAAAAAYfkJyAACMKkMdUi3n+YRpAQAAAAAAoO+E5AAAYAQoDNtpFQsAAAAAAAClO3a4JwAAADASqOQHAAAAAAAwMqkkBwAAUETXYFzhciVU82te2VB0ue66bUM9HQAAAAAAgEEhJAcAANCD7sJwqsoBAJWkcca0ivg/AAAAAAAUIyQHAINgoH9gKKze07yyQTUfqHCqeQEAAAAAAMDgEZIDgBFKqAZgZPIzGgAAAAAAYGgdO9wTAAAAYGToGtAGAAAAAAAYCVSSAwCAAdIWmaPNSGjbfbTOCwAAAAAAqDxCcgAA0A+ltjxunDGt17FGQqAJAAAAAAAARiohOQAAGCSznt7Z8X3jjGmdlss1LgAAAAAAANAzITkA6KPH6msHHFAppbIU0H8DDaQNRmU3wTYAAOgbVZYBAACAchGSA4AhNliVpWC08N4AXfm5AAAAAAAA9ERIDgBK0LXyW+GyP8rD4CvlHSz1PS1XJcfBqDYHAAAAAAAAlJ+QHACUqD1kU1NTk/379yfRNhWGUneB1K7vYG/7qOQIAAAAAAAAo4+QHIxyKt9A+ag2B8Bo1VNovPB3YPPKhk7bCpf9mxQAAAAAABgsQnIwCvnj5Ogz1GHI0VydqZRKV8DI4ncjlMbvQAAAAAAA4GglJAcAZTQYYQABHRhdvPMMpcLnTYXh0R30BwAAAACASiYkB0BZ9LXVaKl/iB9Jf7AvvE5/ZIejn3cUAAAAAAAARgchOQDKRps1AEarSvh9N1JC6QAAAAAAAH0lJAcAg0CFKoDRo9IriTavbCi6LFgHAKPLY/W1FfdvHQAAAGB0OHa4JwAAAMDgEWQDAAAAAABGu/JVkpt/dZZfPjtJ0vLg1/PtdbvKu34g5wIAYFSohJaXtFYqE+yi3DxXAAAAAADQjVGS+SpTJbkzc8WcJ7Ji2dKsuPX+5Nz3ZV5P6ydfnE9enqxdtjQrlv0wLecuyfmTe1hfaCDHAsBRRpsaKJ9ZT+/s+OpuGQAAAAAAACg0ejJfZaok90h+vKZgcd+L2dvD+rq5czKh8b5sbtunsfEjWTh3Sram+/Xrdx9OBw7kWAAAYOiVUr2reWVD0eWRVP3rHU17h3sKAAAAAAAAJRo9ma+ytVutu/CGfPzc2mTf/fnuLXenuYf1dUla9jZ1HLt3795MqK1P9hZZn84XPZBje1JTU9OHKx75Rtv1UpqBPheeq6PXUHw2xc7R1/X93W+wFc6j2PdHi6NxTtCbx+prewwYDdbPmHLx3g2ewb63I/3ZG06l/D4cqt/3pRxfrn1o5V4xWnjWGS2O1v+N7h1ktPCsM1p41hkunj3oO+8NHFbp70MlZL5KUbaQXPO6m7JiXVpL4N18Q7bfelPW7+5+/dZuji+82FLWl+vYQvv37+/T/iNZTU3NqLpeSjeQ58JzdXQbis+m2Dn6ur6/+w229nl0fdaPlvkVOhrnBKXo6dkdrJ8x5eK9GzzD+Tusp23drR9t/x4q5ffhQH7fN86YVnLL5FLOU659mlc2jKgKh4NhtD3rjF6edUaTo/V/o3sHGQ38vmG08KwzXDx70HfeGzhspL4PfQn2VULmqxRlC8l12H13Nja+O7MmJdldZH3SKfFXW1ubtlp9RdcXGsixAACMTI0zpg33FIoa7WEZGA5dfyYULpcarAMAAAAAANpUeObr2LKMMv/qXDG/7fvJF2fhrL1p2VN8ffOWJ9My6/TMS5KcmVmz9mb7ll1F1xcayLHA8Gte2TDcU6g47ikwkjXOmNbx1d1yu1lP7+z46m4ZGJ0Kfxb092dCqT+HAICh0byyoeOru2UAAACgjEZR5qs8leQevy2NS1Zl+eWti9t/sjTrdyfZXWR97s5dD96Qj9+8KotLWT//6iy/PFm77LZs3t3HYwEAOKq1h1oKy1UPNJwiPAf0RXc/M7r+HOr6h/nCZdUkAQAAAAAYkUZR5qts7VY3r1mazX1Y39G3tpT1j9+WFY/381iAEapxxrSiIY9K/yNtpV8fAAAAAAAAABwNRkvmq2whOQAGrmvFksJlVZEAAAAAAAAAAPpOSA4YdKqC9U0p7b6GU08V7nqbp2cBAAAAAAAAABhqQnIA9KqUCneFwbmegnQAAADA8Cu1mn1fq943r2zwf4QDAAAAjjpCcgCU5GivcAeMHkK4MHIV/sHcH9ABYPiV+r/12/erqanJ/v37i+4HAAAAcLQSkgM4yviPzH3nj+zl5X4CI4WfV2j1DgBDw3+rAAAAAEY6ITmAo0iltywtZ/UYf/QGgNGt0v/dBABDoZTw21D/zlV5FgAAABgMQnJA2TxWX+uPk5SF/yA+9IQOh0dPf5Dy8xQGV9f3r3DZ+wcAjAYC5wAAAMBoIiQHDIg/MPeP//gMtOvuZ4FWRjA0vH8AAAAAAACjg5AcMGDtf2CuqanJ/v37k3T+A7OqYK0ECik37xYAlci/mQAAAAAAgHITkgMYQirWHCbQVV493U8tPUe2rq1wC3mPYGiM1t/Vw6mv/2by+wwAAAAAAOiJkBzw/7N3vyFynHeewH8ZZy/JNuxeVmayI+HLzsUT5tqxlRsHRDAxy8W74LywsnBCL/LCL2IQZ4JAhLwYkF5JoBfBDBhjEDgv9GJhTQ4S6Y3g4rzxYhaBLTxyrG2k7Gp9QuqkrUnIwmSdC07uxWhGNa3unuruqq5/nw8IdXVXdT9V/VRNd/W3fg811R+sSU4L1jSPgCbAZISvipHV3yhVVwFgNsY9B9FZWvQ5CwAAAJgpITkAMlflE91O1APAbAwLrCX/Dvu7DAD1McmQ6gLuAAAAQFaE5AAqSFWUbE1yop7qmnXgQsADAAAoUprvJLP6zqLKOQAAAFAUITkAiHQn6p24h8kJCwJl5m88AKTz5J1e0U0AAAAAmIiQHJCKamWzJ0xSLoZ+g/wIp5Anx2z24m88AAAAAADUn5AcAI3gR28oJ+EUxtVdaw+dFugH8PcUaIb+z4RJPhMCAAAAgwjJAaXhBCcUJ7mPqRxJUQzdBBRNsAiAuuiv1pyc9vcOAAAAaCIhOQBKTVgLoBmEdQEAsjUoDNcfnmsKny8BAAAAITmAinOSl6YwdFj1qF4BALPhby4AAAAAwGhCcgDQAE2tFkDxVK8AgNnwNxcAAAAAYDghOWCmVD2jDp680yu6CWNJ/mCqGhsA4zIULtRDd6099DH7NQAAAABQd0JyACOMqrwwKGjkh2MAoM5Gfc5RsQoAAAAAACgrITmAPRi2CMYzbrgUgOrLq2qpvxsAAAAAAEAWhOSggQyZBeStDuFSx0cAAIBycm4LAAAAGJeQHNRYllU8GK671h467SQtAEA5+FwGAAAAAADNJSQHDTfqx0LhL8os66vGq1bljHLr70/JaeFlAAAAAAAAgNkSkoOaEcyA8SX3DRUYyUpWQ84aRggAAAAAAABgOkJyUENZBTMAilbl4G/Zj7tZBu5GhUvLvh0op1F9M01wtMrHDgAAAAAAALInJAdMLasAhGpJxbLNmyHLcEhWfWav56li8Fd1wi22A0Wq4rEDAAAAAACAfAjJAVMRgAAm0V1rD53uD8wJteytf3sm5RV+VakLAAAAAAAAqAohOQCgtARxy02lLgAAIKKcowOMc3EWAAAAUH9CcgBTKuOJYJiGPjxb44TKqvzeCDgCAAAAAAAARRGSA6C2DAdJ2amUBwAAAAAAAJA/ITmAmF0FOMMQzp7hIJtl1tUcqxZsM9wQAABQN8O+y0xS+T/NfFX7HggAAABsEZIDmBEVo6iDIkNWZdlnVCiE+hCaBurEMQ0AAAAAYDghOWCoSa64hbLxYyF5GKdCYZWDc479VNlex3/hdaBO0hzTfL8DyqCq39HTXCzVf1FZkmMuAAAAFE9IDoDaEoBgXIYjtQ2oB8d/oMmyPOYJ0wFZqvpntHEulgIAAADKJ7uQ3MqxOHXksYiI2Hjz+/HqpVsREbHw7Ml44en5rXk6fx+nz1+OiEfime9+L7768PbC78fF1XOxPuJ50rxWqmUBqB0/3AEAUFejAhh5BEwE5gEAAACgYRqS+cooJHcojj7+bpxePRdx4HC8+J1vxMFL52I9DsVjcT5Or97amufst+LoyuV4/UpERC/+6ZUz8cbtxNMcOBwvHom4uHo81uNQHD37fDxzNeU8kWJZyEkVr36l2B9/9Begn+MCFMf+B5Sd6kVAlVQtUCscDAAAQLM1J/M1l83TXI7Xz1++P3n3F9G7d/8bO8m+O7Fxd3uG/bHv4Q/jw76VWXji8djXeXcrXRiXo9OZjy8+8UiqedIsC0yujCcF+09iDuKHIyBi61iw/W/QdNUtnLi282/QNABAks8IAAAAAMCW5mS+MhtudafE3t2fxmsvXYhu/wwHVuKLD78fb13ZvuOxeO7sy/Fc7C6Tt9G7s7NIr9eLffP7I2J3Cb2B8/TSLTtKq9VKPW8dNG1981am7TmsLbNoY5avkea5sppn1DLjbs8y9YVhJml7ldd3W9q25tWv6m6a/WbceSZZ/sk7vQfue2f//ET9ouz7w7THvbTz5LEdyrINqY4yHrP14+Ztg6at77amrncRyvLZo6nveVPXm+rL69iR1T5RhWNYWb7n0gz6CU2hr1MUfQ/GZ7+B++q+P9Qh85VGZiG57qUzcfpSbJXGO3syrifL6q0ci1NH4v4YtHE5Xl/dTiHeL5P3/oDnTW6EYYbNk2bZpM3NzbHmr7JWq9Wo9Z2FMm3PYW2ZRRuzfI00zzVonv7KUO/sn9+5nXY4teTzjrs9y9IXktUhumvtXdPDWjiq7WVf372MM5TeXuvkGDrYNPvNuPNMsvy0fTir9ZuFSdoxyXuT9XawbzGJWRxXxqEfb2naNmja+kbo61nr/7zeryyfPZr4nuvr2dqrr5OtPI4dWe4TVTiGleV7LvXn7w1Noa9TFH0Pxme/gfuquj+ME+yrQ+YrjYyGW024fSHe6szHvs9tTS48ezJO3Ru7dn3gAltl8rbn30oCbpmfnx+4xLB50iwLTZAcRrBOwwmOY/nGzQf+AQAA1dRdaxfdBBoqedHVKE383g0AAABAzdQ885VNSG7lWBxduXf7wOF4arkXG7/cuv137ffiteTYtffmOfrsIw/M3736XmwsfzkORkTEoVhe7sX1q7tL5w2bJ82y0ASDwmFCYrPjingAAACA0ZynAgAAgJJoUOYrm+FWr5yLzvMvx6kjW5PXf3h8q+zeyl/GvocfixfOfn1n1q2xaC9E55mXfnYOwwAAIABJREFU49TZvvnjQvzozZPxwr1xa+8/T6J03+0h8wxbFqiV/goSyelkQM1V/Omk3Z5N4kR9fTkuADCNpn42Aobr/3yZnPa9glkxhC0AAAAwlQZlvrIJyUXE+vnjD5bWu3IuTl8ZY/5IjHM74nkGzjPifmA2nrzTK7oJEbH7x4jO0qIfJ6CEkj/iTPujTpqwp+PCliy3OwBkpcl/mymnccJvg/quizMAAAAAqJKmZL4yC8kBANAsfgAGAOpqO/zWarVic3MzInz2gSobdYGQi4kAAACgGYTkAAAYm+p8AADjEb6BahOUBQAAgGoTkoMKGXUyTjgBYHbq8OOIH2gBAKZXh8+FeeuutYdO+0xKVbhICAAAAKpPSA4qZtBJOCflAWbHjyMAwLY6fhYw7GB6aT4XCohBtdgvAQAAoL6E5ACARqnbD9lZ88M4dWOfB8pKeIq6qWNoFAAAAID6EJIDKkV4AwCAsuoPPSX53AoAAAAAAMURkgMAmJBKGQBAnaUJd7p4qdk6S4tDp7c/K7vYDQAAAIAyEJKDknHCGAAAoD4MQUndDerf/eE5AAAAACiakBxQSoKCQBFUuQCYnjAQ24TDAAAAAAAoCyE5oNb8KAcAAMxamiEoqRfvazouQqEO7O8AAABQTUJyAAAAwEw1IURmCEpgGJU2AQAAAGZPSA5myNB95WJYxfH4QY+mcUwAoErSBC7KFsooW4hs1GsXvd18Fofqa0I4GAAAAKDMhOQgZ9219tBpAYzyqPt7Me36JU/Yl+3HVQAAymOcEEgZg19lC+5FlPOzuO+5+XEBV72Nc4zRFwAAAACyJSQHAKSmAmP5ZfmeeH8pO30UyilNCCRN8KusQSzVoAAAAAAAqkdIDiaU5Q8jZf3xhy1FV46Ashp1fLLfAAB1lkXFuUkuPhDCg3pzfggAAAAgP0JyMIUyDsVDtso4tBGUnf0EAAAAAAAAgDIRkgMqy1XUQIQhYAGgCO/sn69sMD6Li1+yvjjK5xdgHCrOAQAAAIxPSA4gpar+CJg12wEAoDr6w1zJaZ/rJqPaNE3kYhQAAAAAqk5IDnKWpsKRKkgURd+jbvRhAHjQoBBX1pXQeJBtDAAAAABQHkJyAESEcBEAAGRFtTm2lf3CJP2zXMreXwAAAACqTEgOKkY1AgAAaJZhIRZDqQKTcOwAAAAAoImE5KBCVCMAoIz8PQIojqFUgUmkOXZ019pDp1U4AwAAAKBqhOSgZJxoBgAA0hKIA+qiP5SX5FwJMA3HFwAAACKE5AAAAKCS6lJpuqrthnEJYgAAAABAceaKbgAAAABQHqOqrQDVYV8GAAAAgPtUkgMACqWiBgAATdYfZktO+6zMIMl+0V1r6ycAAAAAKQjJAQAAQI11lhb3nEdIJz+GkwUAAAAAKJ6QHAAAANRUMqDVWVpsbGCrPyiYnG7qNgEAAAAAaBIhOQAAACiZKoe60lSuK8Kg7TZqO1N/VQ6OGmITAAAAAMYjJAcAAAAllCbUVTZVrlxX5bbDuMp+LMFQ1wAAAABZE5KDGXKCEwAAaIpZh8wE2yCdugRCVdMDAAAAYBxCclBRVT2JDQAAUBe+l9VXVSutddfaQ6cFyoarcuCuqu0GAAAAmDUhOQAAAAC4Jxl+bLVasbm5WWBrmiMZ9qpyaA0AAACAchKSAwAAgAJkOcyhimZAE6iUN56qVkQEAAAAyIOQHAAAAABAjSTD01mGsgEAAACqSkgOAAAA2FN/RaLkdN3CF3VbH8rNMKP5EQ4DAAAAYJuQHAAAAGSgykGXtG3fDpu0Wq3Y3NyMCMP5AQAAAABQftmF5FaOxakjj0VExMab349XL92KiIiFZ0/GC0/Pb83T+fs4ff7yyPmH3p/itVItCwAAADmrUkAOqI8iwrqCsgAAAAAV15DMV0YhuUNx9PF34/TquYgDh+PF73wjDl46F+txKB6L83F69dbWPGe/FUdXLsfrvzwcLx6JuLh6PNbjUBw9+3w8c/VMvBFD7r+deKkDUywLAAAABWrSkKVQRvbBbFV5m3XX2kOn8woXChQCAAAA5dOczFdGIbnL8fr5xOTdX0Tv3v1vXNq+805s3I3YFxELTzwe+zo/ifV783Q634qnnngk3o/B979x+346cJplAQAAoGiDQiWCEzA79kGKUOVAIQAAAFBnzcl8ZTbc6k6Jvbs/jddeuhDd/hkOrMQXH34/3roSEc9GbPTu7DzU6/Vi3/z+iN6Q+2P3Sk+z7CitViv1vHXQtPXNw7Bt2ORt2+R1p1n0dciHfYs60I/ZS9rvEXl830i7bJrXHnZ7FibZNr6/zUYVtue4faEs/XuS+faa58k7vYnWbxbbZNzXyPL9q0I/Hsek7/Mwdds+s2CblVeZ3psytQXypK9TFH0Pxme/gfvqvj/UIfOVRmYhue6lM3H6UmyVxjt7Mq6/kih7t3IsTh2JuLh6LtYjYmHA8smVTXN/VssmbW5ujjV/lbVarUatb17e2T8/8P6mblv9iqbQ1yEf9i3qQD8mjWF9pP/+PL5vpF12rzb29/VZ9/u023DaZRhfFbbnOH1h1sf1hRPXIu2rpWlXXm2fxTYZ9zW25++vCpg8lqat5laFflwUn3UmY5uVV1neG/sWTaGvUxR9D8Znv4H7qro/jBPsq0PmK43MQnI7bl+Itzpfj+XPRcTte2nD+Z/E6dXLu2ZLJv7m5+fjXq2+ofdntSxkJXlitbO0aNgMAAAglTTDOvq+kU7/tkxO22b5WThxregmNFJ3rT102nuymyF1AQAAACZQ88zXXCbPsnIsjq7cu33gcDy13IuNX27d/rv2e/Ha+d0bq3v1vdhY/nIcjIiIQ7G83IvrV28NvT+rZWES4/6ABQAAMMzyjZs7/wZNl11naTE6S4vxzv75ndtFS27DKm1L8tMfJqM+Fk5c2/k3aBoAAACAMTUo85VNJbkr56Lz/Mtx6sjW5PUfHt8qu7fyl7Hv4cfihbNf35l1483vx6uXLsSP3jwZL5x9OZ5Lzh9D7k+W7rs95rIwAdUIAAAAditrdbu0Qb0yBPqgSpLBs+5ae6ZBtGlfy/4OAAAAkFKDMl+ZDbe6fv54rPffeeVcnL4yeP6d8WzT3N/3PGMtCxMyNAcAAEBx0gR00gb3yhrwYzfvDVmwvwMAAACMpymZr8xCcgAAAACQpyaHnoqs7AYAAAAAVTdXdAMAAAAAgGxlGaITyAMAAACg6oTkAAAAAAAAAAAAqC3DrQIAAAA7VIxiljpLi0Ont4dVTTMPAAAAAMAoQnIAAADAWJ6805vp6wnu1dugoFt/MC7NPDSL4wJlo08CAABAuRluFQAAAAAAAAAAgNoSkgMAAACAClGxCpqju9YuugkAAABQC4ZbBQAAgAYYNFwl1EV/iCQ5LVBGFjpLi46jAAAAABWmkhy15ApLAACAZhFeAQAAAABgGJXkKBVX5QIAAAD9OkuLRTcBAAAAAKgwITkAAAAASit5MZ2L6wAAAACASQjJAQAAAJCb7lo7Fk5cy/U1ks8/i9ejGgQqKbthwd/uWnvotOMbAAAATGau6AYAAAAAzIrQDAAAAABA86gkR+W4IhwAAGgSoS4Yz17nDDpLizNqCU1jOGDS6D8GJafL0H+cewUAAKCuhOSoBEMMAAAAQHWU9Xt8MoAi0AQUZdCxR4AXAAAA8iUkBwAAAEDjCMgBdaH6W32NCk/6OwYAADAeITkKV/YhBgAAAAAAZiUZeBOAQ+VBAACAbAjJUQq+6AMAAAAAAAAAAHmYK7oBAAAAAAAAAAAAkBeV5KiN7lp76LQhCQAAAAAAAAAAoJlUkmMmyjp0an+wDgAAAAAAAAAAqBeV5GCIsgb7AAAAAAAgYvSF4EZYAQAAuE9IjlIoWyBt+cbNndudpcVd0wAAAAAAAAAAQHUIyVG4NIG05BVv3bW2K+AAAIDKczEOQHHSnGvqv6gzOe0YThW5GBgAAIAmE5KjcfrLzyenB50QdeIIAAAAoJkGnRcq24gIAAAAAOxtrugGAAAAAAAAAAAAQF5UkqNUVG0DAAAAYJYGjSyQliFZKcq4o2XM6rkAAACgrITkqBwnZgAAAACYhTRDqxqSlTIT5AQAAIAtQnI0TjJk111rC90BAAAA8IBkgKiztChQRGUJctLPMQ0AAGiiuaIbAAAAAAAAAAAAAHlRSY7aUCEOAAAAAAAAAADoJyTH1MpYml1ADgAAAAAoI0OdAgAAwOwJyZGb/pM9yemyheoAAAAAAPKWPC9axouPqS/n6wEAgKYTkiNXg75cu1ISAAAAgLpwrguoCufrAQCAJhOSAwAAAKASVLqhKMP6nqpgAAAAANUgJMdE0pZmdxUaAAAAAAA0lxAxAABQBkJyTGyv0uyupAUAAAD24gI7AKqou9aOhRPXim7GrjZk2aayrB8AAEBWsgvJrRyLU0cei4iIjTe/H69eutX3WMTF1XOxHhERj8Qz3/1efPXh7Rnev//YqOfZ67XSLAsJvuQDAABAcVxgBwDl0V1rD512Lh0AAGqsIZmvjEJyh+Lo4+/G6dVzEQcOx4vf+UYcvHQu1rc3TPRiIz7sW6YX//TKmXjjduKuA4fjxSMRF1ePx3ociqNnn49nrqacJ1IsCwAAAAAAAAAAQDQp8zWXzdNcjtfPX74/efcX0YuIiFvxxkvH4/Q/vNc3//7Y9/CH8WHfyiw88Xjs67x7L3l4OTqd+fjiE4+kmifNshTHleAAAAAA1JnzXwAAAED1NCfzldlwqwvPnowXnp6PuPvTeO2lC9Hdc4nH4rmzL8dzsbtM3kbvzs4cvV4v9s3vj4jdJfQGztNLt+worVYr9bx1MO36Dlu+aduR3bz/NIW+Dvmwb1EH+jFNoa8zyqMnP9i5/fMzn981HSP6Thn7VRnbBEWyT2QrzfYcNM84x9lpzuPW/f3O6xx5ls81zv2Pnvxgor+zs+gLde9LpKcvUBR9D8Znv4H76r4/1CHzlUZmIbnupTNx+lJslcY7ezKu95fV2+VyvL66nUK8Xybv/QFzJjfCMMPmSbNs0ubm5ljzV1mr1Zp6fYct36TtyG5Z9CuoAn0d8mHfog70Y5pCX2dcaftL2fqVvg672Seyl2Z77jXPwolrMWqOac7j1v39zusc+bhG7VtZnocvsi/UvS+Rjr8jFEXfg/HZb+C+qu4P4wT76pD5SiOj4VYTbl+Itzrzse9zaRfYKpO3Pf9WEnDL/Pz8wCWGzZNmWQAAAADKx1CVAJCvztLiA//KorvWLroJAABAzTNf2YTkVo7F0ZV7tw8cjqeWe7HxyxHzHzgcR5995IH5u1ffi43lL8fBiIg4FMvLvbh+dXfpvGHzpFkWAAAAAACqYuHEtaKb0EhlCo9lFWxbvnFz59+gaQAAoKEalPnKZrjVK+ei8/zLcerI1uT1Hx4fUXYvIm5fiM4zL8eps/3zX4gfvXkyXrg3bu3O/SvH4tSRiIur52L99pB5hi0LAAAAAABQMckAW2dpUaANAADIXoMyX9mE5CJi/fzxWB/24O0L8epquvl3xrlNunIuTl/ZY54R9wMAAAAAAEyjf0jQ5PQ0Vf/e2T8vAJdSd62twiIAAGSsKZmvzEJyAAAAANDPD9kA0Dz9w8ImpwUCAQCAIgjJAQAAAAAAlFgVg2WD2twfniuKinQAANA8QnIAAAAAADBjVQw9QZbyGr4WAABgkLmiGwAAAAAAAFA3/SEwAAAAiiMkBwAAAAAAAAAAQG0ZbhUAAAAAAGqqs7RYdBNgKoZlBQAAsiAkBwAAAAAANbR84+bO7c7S4q5pdusPEyant7dbMpDVXWsLaE3J9gQAAGZJSA4AAAAAAEitroGmQSHCOlbiq3tYUiAUAAAYREgOAAAAAAAgA4YGBQAAKCchOSZWxyvoAAAAAAAgb2mGd22SWQQI6xJgVCkPAAAmIyTHRJJfwHwhAwAAAACA8WyfV2+1WrG5uRkRLk5nMKFKAACYnpAcAAAAAAA0VJUqaEEZzaqQwKDXSIbl+ivlJdnPAQAgYq7oBgAAAAAAAAAAAEBehOQYKU1pd6W8AQAAAACAujH8LQAA1IeQHAAAAAAAAAAAALX1yaIbAAAAAAAA1EtnadEoJMxMf8W35LR+CAAARAjJAQAAAAAAe+iutYdOL5y4NuvmFC6Lda7DUJ5lCkMOasck21jgbrcyvccAADANITkAAAAAAIAZSoaOhJDKZ6/AnSAdAABUj5AcD/DlDgAAAAAAqJJZV+bLqnIdAAAwG0JyDOTLHQAAAABAfbgAuryevNMrugmllhzatrvWHjjUbRGV+cb5zWRYu+ui7usHAEA9CMkBAAAAAAA0XJowGlsMlwsAANUjJNdQ7+yf96UNAAAAAIDM9FfWSk47H10tWQTkjE5TfsKQAAA0iZAcAAAAAACQiUFhuCaFpVRj26LS2tb7P2y6qf0CAACKJCTHQE06aQEAAAAAAEB6QoAAAFSNkFyDpC117wovAAAAAADy1uRKa1VW1WF1VfkDAIBmE5JrmO0vqK1WKzY3NyNC1TgAAAAAAGZD9al6aPqwugAAQPUIyQEAAAAAAJCaQFz5qJQHAACjCckBAAAAAACQSrKKXGdpsdRDrFbNLMJtqjkCANBUc0U3AAAAAAAAoG4EjrYI0QEAAGUgJAcAAAAAAAA1IaAJAAAPMtwqAAAAAAAA3NNZWkw9r0p52cpyyFnDAQMAkCQkBwAAAAAAQC1MG4pKLi9kNVwyyJZlsA0AAPIiJMdIvvwBAAAAAABQBf1VAJPTfvMCAGg2ITkAAAAAAADIUJUrrVU9aDaojeMMoQsAQD0JyQEAAAAAAKVVtYAR+cmqH8y6P1Wx/wqaAQBQN0JyAAAAAAAAwESmDQF219pDp6sYMAQAoJyE5AAAAAAAgEyoNNUsVRh6k8nksS///Mznhd4AAChMdiG5lWNx6shjERGx8eb349VLt/oei7i4ei7W95p/1PNksSwAAAAAAJC5ZGCqs7QoQAUplLGKmn0ZAKBhGpL5yigkdyiOPv5unF49F3HgcLz4nW/EwUvnYj0eiWe++734avRiIz68P/uBw/HikYiLq8djPQ7F0bPPxzNXz8QbMeT+25HNsgAAAAAAANBQ4wbvqhiQU9ESAGAczcl8zWXzNJfj9fOX70/e/UX0IiLiVrzx0vE4/Q/v7Zp74YnHY1/n3XsJw8vR6czHF594ZOj9WS0LAAAAAAAA1NPyjZs7/wZNAwDQrzmZr8yGW1149mS88PR8xN2fxmsvXYjuHvNv9O7s3O71erFvfn9Eb8j9cSuzZUdptVqp562q5DoOuw3T0JdoCn0d8mHfog70Y5pCX6cp9HXYzT7BIMP6xbj9ZdT8efS9/ufMaj2yaAvlUeR7k+Z3nLL3nZ+f+fyu6eRwso+e/GDP5addv7JvH2ZHX4Dx2W/gvrrvD3XIfKWRWUiue+lMnL4UW6Xxzp6M66+MV/YuubJp7s9q2aTNzc2x5k+rs7S45xUq3bX22CWuJ7G9jq1Wa9f65rXuNEt/v4K60tchH/Yt6kA/pin0dZpCX4fd7BMMM6xfjNtfRs2fR9/rf86s1mNc9q1yK/K9SfM7TpX7Tpq2T7t+Vd4+ZMdxFsZnv4H7qro/jBPsq0PmK42MhltNuH0h3urMx77PjZ5tK/G3ZX5+fs/7s1oWAAAAAABohoUT13b+DZqGUQzRCQBAo9Q885VNSG7lWBxduXf7wOF4arkXG78cPnv36nuxsfzlOBgREYdiebkX16/eGnp/Vss2RWdpsegmAAAAAAAA0HB5BVWTw7YCADCFBmW+shlu9cq56Dz/cpw6sjV5/YfHR5fdu30hfvTmyXjh7Mvx3K75h9y/cixOHYm4uHou1sddtiD9QbXktCuPAAAAAAAAoFjdtbbKkgBAszUo85VNSC4i1s8fj/VhD96+EK+u7r5rZzzbSHH/lXNx+sqEyxZoUBhOlTcAAAAAAAAAAKAMmpL5yma4VQAAAAAAAAAAACihzCrJAQAAAAAA9dSE4QiNBAPN0F1rD50edqwzLCsAQPUJyQEAAAAAAI22fOPmzu3O0uKuaaCapt2PJwnTAQBQXkJyNdF/hVty2pd5AAAAAABIxzl1AKgnVSEBmk1IrkBZX4Ey6Iu78vAAAAAAAAAAAECTCck1jNAcAAAAAABNpHIMELH7WKCqFABAcwjJVcw0H9aTleY6S4tKxgMAAAAAUEpZj8QCAABAswnJFciVKgAAAAAAMD3n2KH+hGcBAJiGkFyNGEoVAAAAAACgfvwGVH5GcQIAKDchuZowlCoAAAAAAEC1pKmA5jeg8uoPLyanvU8AAOUiJAcAAAAAAAAwgUFhOJX/AADKR0iuhlyZAgAAAABAlSWra3XX2qmqbQEAAMAwc0U3AAAAAAAAAGDWBHAhH921dtFNAIAHCMkBAAAAAAAAAABQW4ZbzVFnaTH1vK5UAQAAAACg7gyjCtNZvnGz6CYUxvEDAIBpCMnlJPklpbO0ONWXlv5ytMlpXwAAAAAAAKgi57eBOtiraMaoYScdB6kTv2kDUHZCcgAAAAAAAABjyrJoBgAA+RKSAwAAAAAAAAphGFUgTyrcAbBtrugGNIGrRgAAAAAAaBLnxQEAACgTleSmNIvSyXlcQfPknd7UzwEAAAAAAHlT5QWao0z7uwp3MJ4i9xnDHQOQhkpyAAAAAAAAQK4ePflBZs8lsAb10D8UKgDkSUgOAAAAAAAAAACA2jLcKgAAAAAAUDn91WeS06pMAQAAkCQkBwAAAAAAAABURmdpcej08o2bEz9vd60tbA9QU0JyAAAAAAAAAEDusqwEOygM1x+eSz6nABxAswnJTSCvVDoAAAAAAAAAAADZEpKbUJpUOgAAAAAAAAAkdZYWFV8BgBmbK7oBjEf5VwAAAAAAACgXgSeKUsZCLn7TBqCMVJIDAAAAAAAqJ/kDfHet7Qd5IDeOLxRFxblsZbkve28AqkdIbgh/1AAAAAAAAACAiAer9iWnZQsAyk9IDgAAAAAAAABopO5ae+h0f/W5QWG4ZFiu/7mSVKUEKNZc0Q0AAAAAAAAAgDrorzZWN3VfPwDqSyU5AAAAAAAAgBwkK0d119oqSdWUYTgBoPyE5AAAAAAAAABgCnsNwylIlz1V7QAYh5AcAAAAAAAAQM5UkWOvIF1ZFRnw6ywtDnyN5H3D5gGAJCE5AAAAAAAAAGCoWQb8VN0DIA9CcgAAAAAAAABQEU0IkVW16h4A5ZVdSG7lWJw68lhERGy8+f149dKtEfc/Es9893vx1Ye3F34/Lq6ei/VRzzPxawEAAAAAAABAsdKEvNIG4ITIAMhMQzJfGYXkDsXRx9+N06vnIg4cjhe/8404eOlcrB84HC8eibi4ejzW41AcPft8PHP1TLxxOyKiF//0yvbte0bOv8c8kWJZAAAAAACgdhZOXCu6CQAwUjLU1llaHFnxTQAOgNlpTuZrLpunuRyvn798f/LuL6IXEQtPPB77Ou9upQXjcnQ68/HFJx6JiP2x7+EP48O+lRk+/97zpFkWAAAAAAAAAMqss7T4wD8AyEdzMl+ZDbe68OzJeOHp+Yi7P43XXroQ3YhYiIiN3p2deXq9Xuyb339v6rF47uzL8VzsLpM3eP7dJfQGztNLt+worVZr5HSax0YtUzZVaivVoV/RFPo65MO+RR3oxzSFvk5T6Ouwm30C8mHfoin0dYoyi7437u/Hw+5/8k5v5/Y7++d3TSeXmfXv1Vm93qMnPxj1IhO/3qzWe5rXr9oxsGrthTzVfX+oQ+YrjcxCct1LZ+L0pdgqjXf2ZFx/5Uy8P2C+rZW6Fa+vbqcQ75fJGz7/aMPmSbNs0ubm5sjppHf2z6d6jrJqtVqVaSvVoV/RFPo65MO+RR3oxzSFvk5T6Ouwm30C8mHfoin0dYoyq7437DXGvX9WzzvIqGFg83i9UWa53uO0Y5rXr9Ix0DEb7qvq/jBOsK8Oma80MgvJ7bh9Id7qfD2WP7c1mUz2zc/PR/T6F7gcnc63xph/+Dxpls3COOPFAwAAAAAAAFBvsx4Ste6vB0ABap75msvkWVaOxdGVe7cPHI6nlnux8cuI7tX3YmP5y3EwIiIOxfJyL65fvRVx4HAcffaR9PMnDJsnzbJ76R/TPc0Y7wJyAAAAAAAAAM21fOPmzr9B02V+vTS/kc96/QCYoZpkvtLIppLclXPRef7lOHVka/L6D4/HG7cjIi7Ej948GS/cG4c2eX/nmZfj1NmU868ci1NHIi6unov128Ofc/D94xn0h1wqHgAAAAAAAICySRNU6661Y+HEtbGew2/kAA1Ro8zXXj6xsLDwx1Ez3PlmN/b/eCH7Vy6ZVqsV7+yfH/oBoG4p+KqOmUy56Vc0hb4O+bBvUQf6MU2hr9MU+jrsZp+AfNi3aAp9naLMuu+l+W057e/P0/xO3V1rD30sGZgbd1S1Wfx2Pus2jbOt9nr9tM9Vdo7ZcF9V94eqtnsae2XcsqkkBwAAAAAAAMBE6hKsoXqSoa80YbNZFJeZdZvsYwDNICQHAAAAAAAAADNSt1HMmsQwtADVJSQHAAAAAAAAAHuYxVCjlNe4Fe4AKJe5ohsAAAAAAAAAAHn4+ZnPF90EGmThxLWdf4Om+40aajkpTQW7tM8F0FQqyfVRHhUAAAAAAACguvrDQsnpQWGl7lp7aIgJspa2f/ZnF5LT21Xsxu3rWbLfAFUjJJegPCoAAAAAAAAAVZcMLwkzVdegzILCPwCTMdwqAAAAAAAAAGRAIRa2CSYClIuQHAAAAAAAAACUjMAdRXln/3zRTQDInJAcAAAAAAAAAAAAtfXJohsAAAAAAAAAANCvrNX0ytquvHXX2kOnDS8LlJ2QHAAAAAAAAABAg3WWFodONzUUCNSLkNwQDvIAAAAAAAAAzSY4RNaSFde6a+2ZVmDrLC2O7Lfbj7Vardjc3NyxSVucAAAgAElEQVRZBqAOhOQAAAAAAAAAYIhBoSLBIapC0BNgi5AcAAAAAAAAADOxVyWrtPNMq7vWHjo9y8peMEpWYUxBTwAhOQAAAAAAAACAUkkG22YRHN1+HYC6EpIDAAAAAAAAgIYz9GazFRHKA5iluaIbAAAAAAAAAADkw/CxACAkBwAAAAAAAAAAQI0JyQEAAAAAAABQOd21dtFNAAAq4pNFNwAAAAAAAAAAspIcXrS71jbcKGTEvgVUmZAcAAAAAAAAAIXqLC0OnV6+cXPWzYFa6d+/siAgB1SNkBwAAAAAAAAAhRsUhusP9/QPsZqcFtqhadJUdkvuV52lRaFToLHmim4AAAAAAAAAAACDCbYBTE8lOQAAAAAAAAByYyhVAKBoQnIAAAAAAAAA5CrNUKrA5Moy3HD/kMhJZWkj0ExCcgAAAAAAAABUQjJk011rC90AAKnMFd0AAAAAAAAAAAAAyIuQHAAAAAAAAADAjKmECDA7hlsFAAAAAAAAoJYePflBbE75HJ2lxUzaAkVbvnGz6CYAFEZIDgAAAAAAAAAGECoCgHow3CoAAAAAAAAAAAC1pZIcAAAAAAAAAIUzrCmUw5N3ekU3ASBzQnIAAAAAAAAAFCo5rGlnaTH3YU4XTlzbud1da++aBgDqx3CrAAAAAAAAADSWgBwA1J+QHAAAAAAAAECFdNfaRTcBAKBShOQAAAAAAAAAAOCeztJi0U0AMvbJohsAAAAAAAAA0GTJ4T67a23Df6ZkOwFZ6g/GJaeXb9ycdXOAjGUXkls5FqeOPBYRERtvfj9evXQr2/uneS0AAAAAAACAChD8AijOoDCcqnLUXkMyXxkNt3oojj7+bpxePR6nX/lpxNPfiIMREQcOx4tHIi6uHo/Tq38fG08/H88cmOD+pGmWBQAAAAAAAKDUVGwCgFlpTuYro5Dc5Xj9/OX7k3d/Eb2IWHji8djXeTfW783T6czHF594ZOz7k6ZZFgAAAAAAAAAAgIgmZb4yG2514dmT8cLT8xF3fxqvvXQhuhGxEBEbvTs78/R6vdg3vz+iN+b9sbuE3jTLjtJqtVLPWwdNW19mQ7+iKfR1yId9izrQj2kKfZ2m0NdhN/sE5MO+RVPo69mq2vYc1t5ZrEfVthWUQR77TRX2xSKPVZRX3d//OmS+0sgsJNe9dCZOX4qtEnhnT8b1V87E+wPmS67UNPdntWzS5ubmWPNXWavVatT6Mhv6FU2hr0M+7FvUgX5MU+jrNIW+DrvZJyAf9i2aQl/PXtW257D25r0e+h6ML6/9pgr7YlHHKsqrqn9Hxgn21SHzlUZmIbkdty/EW52vx/LntiaTyb75+fmI3mT3J02zLAAAAAAAAAAATKK71h762MKJazNsCWSs5pmvuUyeZeVYHF25d/vA4XhquRcbv4zoXn0vNpa/HAcjIuJQLC/34vrVW2PfnzTNsgAAAAAAAAAANFdnabHoJkB5NCjz9YmFhYU/jprhzje7sf/HC3s+0cHnX47nlrduX//h8Xj9ytbtnXFrp7l/5VicOhJxcfVcrE/wnGlUtTzipJq2vsyGfkVT6OuQD/sWdaAf0xT6Ok2hr8Nu9gnIh32LptDXp1flykWdpcVYvnEz9f1Z0vdgfNPsN1U4Vo17TOq/vwrrSHaq+ndknHZXPfO1ba+MW2YhuaqraqeeVNPWl9nQr2gKfR3yYd+iDvRjmkJfpyn0ddjNPgH5sG/RFPr69KocyhCSg2oRkht9fxXWkexU9e9IVds9jb0ybtkMtwoAAAAAAABALY0KhAAAVMEni24AAAAAAAAAAADkpbO0OHQ674qWQDkIyQEAAAAAAAAwlVkMnQowjWFDqQLNYLhVAAAAAAAAAAAAakslOQAAAAAAAADGZvhCAKAqhOQAAAAAAAAAmIjhCwGAKhCSAwAAAAAAAGCX7lp76PTCiWuzbg7ATOQR8u2utR03oQSE5AAAAAAAAAAAKERnabEUQzQn21CWNgHZmSu6AQAAAAAAAAAAAJAXITkAAAAAAAAAAABqy3CrAAAAAAAAACW3cOLazu3uWnvXNAAAo6kkBwAAAAAAAABApXWWFotuAlBiKskBAAAAAAAAAMA9yzduTrV8d609dFolUCiGkBwAAAAAAAAAuVLhCQAokpAcAAAAAAAAALlJVmTqLC1OXaEJAGBcc0U3AAAAAAAAAAAAmqp/eFbK4+dnPl90E8iIkBwAAAAAAABAhSycuFZ0EwBmypDN5EG/ahbDrQIAAAAAAAAAALXXH4xLThsOvN6E5AAAAAAAAABqprvWnqriXHLZaZ8rSQABgKIN+lukqlz9CckBAAAAAAAAAADEVjh82LQhz6tLSA4AAAAAAACAoQQCgLQcL2iiztKiSqkVICQHAAAAAAAAUAMq3wAADCYkBwAAAAAAAADAzHSWFodOj1ORK6vnAepPSA4AAAAAAAAAgJkaFGLrD73N8nnSUpkTqklIDgAAAAAAAAAAIKVJqhh219pClgUSkgMAAAAAAAAAYKb2qvaWNoSUZ9W4PHXX2kOnBamqIU0VQ+9zeQjJAQAAAAAAADRUZ2lxaMUbgLz0h9yGHYf2CiGlfR6A1CG5R7/0lTzbUbjuzX8uugkAAAAAAAAAANxT1SpxULSFxf9WdBNm6uc/e3vPeVSSAwAAAAAAAGiQtEMYAhRJlTggS0JyAAAAAAAAAA2z1xCGAFUjRMe2aUOVCyeu7dxutVqxubmZRbMomJAcAAAAAAAAABMRrAMAqkBIDgAAAAAAAICxGQoRAKiKTENy//GVj+Ltg3/YmvjgU/G1Nx564P4/W/90HHx7LiL+ELf/50fxr3++vfRD8aUffCo+m3i+Xz/z2/jZf/6T+Mr//pP4TP+LfeF38Y9//fHYzwkAAAAAAAAAAHlJDtfZXWvvmoYyaVLWK8OQ3Mfxq/hP8bUfzEXEx3Hj27+LG1/401iK38Xbf/VQfOUHn47PxMdx49v/L27/66fjwK8iIubiv/5o+3afv/h9/N/PR8RvBr/WjcVPxtd+8KmIv/h9rP/d7+PXb29voBHPCQAAAAAAAABAadS9CqWAXH1Vf8jxZmW9MgzJPRQH3t6+/Yn4099E/DYi/uOzf4w/+7eH7qUDH4qHP/hd3P1sRPzqj/HbP/9EPDxwBf8Qt//Hx/Hw+kPx7381+LWW3khM/mYuPh0REaOeEwAAAAAAAACAJqp+oIkyqceQ483KemU63OqOv/g47v75Q/Ff/iXiM1/4RPz7f/84/uPtufhM/CF++58jfvvZe2X64uP42bd/GxHJMnoRv37mo7j7b5+Og7/+ffzrXw1+iZ2yfr/pL9E3+DkBAAAAAAAAyEc1wwFAU9Qj0MQo/SHI5LT3O4UGZL2yD8l94Xfxj38d98eH/ZdPxZcWfxtvf/v3ETEXf/nB9oo8FEs/+NNYiohIlub77O/iZ/Gp+NrbcxFfGP4yn3n70/G1t2OrBN+3P4qHf/TpOPCrIc+ZIm3446c2Hrjvb/7PVmbxJ3/7UQ0f+6hEbfFYXR5r3n7ksaY+9s23WqVpi8c8VubHBrFveaz+j3004rEytdNjHvOYxzyW7rFynT8ZpEzt81j9H3Pux2Mey+cx34c91pzHPipRW4YrU/smeuzSlfjSsysREfGzS1d2P/a395e7tfjP8ZO+gkqlWYfMHytf3/OYxzw2/mO3Yvdxq6ztHOexL937/4HjdUT8TZSnnVV5LG5uheEGPnZj7740zd/Gkf2z7/3d9djfTvZ6aR77X3cemG24ima9xvWJhYWFP46a4c43u7H/xwvx6Je+8v/Zu//YKu87X/DvZCB044S02JgcKNMmNIgLQ8i4yTBVOtGikGrIaqDRlFIlUtHqMkNEKzZpNneGq9DVLdEwvVFKhVoUdrIrUSlRmXRuJ4y2dBpyucptduqWckMYqEVK0g7FBoMz+UUmJNlm/zjH9jnGx9j4GONzXi/J0nme5/s8z/c5/n5t4Lz5fM97sX+7+Z3s+/Dk/NGe36nS4rc5/rl3k/967sP869K3c/qVD+XK338nL18z8Lzf6f9GDKJ47pW54ejw9g+m65Vf5MyZM+dvWCeampoa6nm5OIwrGoWxDmPD3KIeGMc0CmOdRmGsQyVzAsaGuUWjMNYvjq4t86seK9x/uO91tSpK9VhdydiDkbsU500tfz5dKj/rhvszm+EZ7u+2kf4OrOV86Noy/6J9b4eT80omdtar3C//eV9fxq2a2tWnm/Zejnz8d3Jz1TctyZz38nJ+J9NeLbZ/6ebf9p37Lx+7PFf+6+WZ9b0r80f/V+nrv/1OscTewDdtztm81Js87Du32jVr9oQAAAAAAAAAADAuhgrWwYg1WNardsutfuS3eeOa/69Uaq+ouE7sB3np35/NiSTFlGBpTdlXJ6el7e38939fbHvtf7ty6FJ55aX9jk5Jy9K389//54HnjvCaAAAAAAAAAABAw+i44brzN2oEDZb1ql1I7uiU/FGVUnf9a8dW+sieK/NHw73mgOtXO/e81xxCU1PTBZ45MTXa83JxGFc0CmMdxoa5RT0wjmkUxjqNwliHSuYEjA1zi0ZhrI+vge9/te9HPX6f6vGZYKxdivOmln26FJ+v3FD9u9T7Pp6G87vtk53dfa9/PrO1Yvti/G68pL5/dZD1GonaheTqwKW2pvZYuhTXEGfiM65oFMY6jA1zi3pgHNMojHUahbEOlcwJGBvmFo3CWB9/A9//at+Pevs+GXswcpfqvKllny7F5ys3VP8u9b6Pp5H+bpv30ivnvWat54Pv3/i5fLw7AAAAAAAAAAAAAGNFSA4AAAAAAAAAgEvWcCp+AQxFSA4AAAAAAAAAAIC6NWm4DX/5z/vGsh/jrqmpaby7AAAAAAAAAHBRdNxw3Xh3AQAYI12v/CJnzpwZ725cUoYdkgMAAAAAAABg4itftrDjhussYwgA1D0hOQAAAAAAAAAAuIgK9x/ue921ZX7FNlB7l493BwAAAAAAAAAAgNGznDYMTkgOAAAAAAAAAACAumW5VQAAAAAAAIA6YOk+gInJz2sYeyrJAQAAAAAAAABAg+jaMn+8uwAXnUpyAAAAAAAAAABwCRoYaCvfVoEOhk8lOQAAAAAAAAAAYMRUpRs+ocbxJSQHAAAAAAAAAABA3RKSAwAAAAAAAAAAoG5NGu8OAAAAAAAAAAAAF6bjhuuqbs976ZUk5y6LWr5tGVAagZAcAAAAAAAAAABMYL1huHIDw3PQyITkAAAAAAAAAADgElRe5a1ry3xV3+ACCckBAAAAAAAAANAQBqu4Vg9UjYOhCckBAAAAAAAANKh6DYsANJLyn+UdN1znZzsM4vLx7gAAAAAAAAAAAACMFSE5AAAAAAAAAAAA6paQHAAAAAAAAAAAUKHjhuvGuwtQM0JyAAAAAAAAAABwiSvcf3i8uwATlpAcAAAAAAAAQJ0RpAAA6CckBwAAAAAAAAAAQN0SkgMAAAAAAAAAAMZExw3XjXcXIJPGuwMAAAAAAAAAAMD4GxhoK9+e99IrSZKuLfMr2pRv9y73PZzrwMUkJAcAAAAAAAAAACQZPMR2IdXghnOdgYG7cr2Bu4HnC9lxISy3CgAAAAAAAAAAQN0SkgMAAAAAAAAAAKBuWW4VAAAAAAAAAAC4JA1corV829KrDJeQHAAAAAAAAAAAMCyF+w/3ve7aMr9ie6wMFoYbKjwHAwnJAQAAAAAAAABAHWjUymrlz91xw3UN+z5Q3eXj3QEAAAAAAAAAAAAYKyrJAQAAAAAAAAAANWX5Uy4lQnIAAAAAAAAAAEDNWP6US43lVgEAAAAAAAAAgLogkMdghOQAAAAAAAAAAACoW0JyAAAAAAAAAAAA1C0hOQAAAAAAAAAAYMQK9x8e7y7AsAjJAQAAAAAAAAAAULcm1epChWUPZc1trcWNjieyaUf7Oft7nnsk23YfK7ZpW5uNKxcMf3+50ZwLAAAAAAAAAABcFPNeemW8u8AQGiXzVaNKcouzIDuyacP6bNrwRI7Muyer2pK0rc2a+QfzeGl/z22rs3RWklkrsm5lsmu4+8uN5lwAAAAAAAAAAADSSJmvGoXk2rOnL8HXmZ7TxVeFGdPTc3h/ukptOjpa0zwjKdy4MM0dL+RA2f65N86uur/caM4FAAAAAAAAAIBGU7j/cN/XYNuXuo4brjvni1ponMxXzZZb7TOrLXNbDuX5/UlX26k0L2lLYfexdGV2prckzTOKD9HT3dl3Snd3d5pbZybdVfansoTeaM4dSlNT0wgfdmJrtOfl4jCuaBTGOowNc4t6YBzTKIx1GoWxDpXMCRgb5haNwlhnvBh7MHLmTX37xEO/Tob4Hlf7/l/scdF7v092dvft+/nM1orti9GnhpkPEzjzNRy1Dcm1rc3GlcmuDduL6b7927Nr4das2Xx7ku4c6eiuemr5ww5nf63OLXfmzJkRtZ/ImpqaGup5uTiMKxqFsQ5jw9yiHhjHNApjnUZhrEMlcwLGhrlFozDWGS/GHoyceUO17//FHheXQj8m6nwYcbBvgme+hqNmIbnCsoeypvWZbNrQXrH/wI71pXJ4s7P0gdXp2XMsuTEVib/W1tak9F5W219uNOcCAAAAAAAAAADjr3y5164t8yfM8q/1pFEyX5fX5CqzVuSu+Qfz+I726m3a7syncjCHjiddLx5Mz7ybsihJsjjz5nXnyIvHqu4vN5pzAQAAAAAAAAAASENlvmpTSW7GtWluWVAqsVfU89wj2bZ7ZlZtvidzkySHsmvD0+lKkuNP5/vPPZQ1m7dmeZIjT63PnuNJUmV/eUm/kZ4LAAAAAAAAAABApQbKfF1WKBQ+GKpB52e7MvPvC7W/8yVmoq4hfKEa7Xm5OIwrGoWxDmPD3KIeGMc0CmOdRmGsQyVzAsaGuUWjMNYZL8YejJx509g6brgu8156Zdj7a2k4y61ejH6Um6jzYaL2ezTOl3GrzXKrAAAAAAAAAAAAcAmqzXKrAAAAAAAAAADAhNdxw3Xjct/zVZGD0RCSAwAAAAAAAAAAKpYyvdhLm8JYstwqAAAAAAAAAAAAdUtIDgAAAAAAAAAAuOSpbMeFEpIDAAAAAAAAAACgbgnJAQAAAAAAAAAAULeE5AAAAAAAAAAAAKhbQnIAAAAAAAAAAADULSE5AAAAAAAAAAAA6paQHAAAAAAAAAAAAHVLSA4AAAAAAAAAAOjT2tqa214/M97dgJqZNN4dAAAAAAAAAAAAxldra2vf6+7u7nHsCdSekBwAAAAAAAAAADQgwTgahZAcAAAAAAAAAAA0CME4GpGQHAAAAAAAAAAA1DHBOBqdkBwAAAAAAAAAANQZwTjoJyQHAAAAAAAAAEDDKyx7KGtuKwXLOp7Iph3tNd1foW1tNq5ckCTpee6RbNt9bPjnDkEwDgYnJAcAAAAAAAAAQINbnAXZkU0bjiVZnFWb78mqtvbsPLkid912Krs2PJwDmZ2lDzw49P79Va6zv+xWs1Zk3cpk14b1OZDFWbV5dZa++HD2HB/GuYMQjIPzE5IDAAAAAAAAAKDBtWfP7t7Xnek5nTQnyfET6cm15zavtr/adcoUblyY5o5ncqDUvqPjntx64+zsOX7+c3sJxsHICMkBAAAAAAAAAECvWW2Z23Ioz+9PkvbsfOqmbNy8NctTWhp1yP3VrlOpp7uz73V3d3eaW2cmOTbkuYJxcOGE5AAAAAAAAAAAIEna1mbjymTXhu3FSm+zVmTdkhN5fMP2dPUuq3pyfXaerLJ/f5XrnEd5aG6wc1tbWwXjYBQuH+8OAAAAAAAAAADAeCsseygbF76QTWXhtMKNC5PD+9OVJDmWPXsPZe7CxVX3V7vOQMXKcUXlFeKqnSsgB6MjJAcAAAAAAAAAQGObtSJ3zT+Yx3e0V+zuOnkqzfPbUkiSzM7SJQvS091ZdX+161Rc88WD6Zl3UxYlSRZn3rzuHHnx2LDOBS6M5VYBAAAAAAAAAGhsM65Nc8uCrNl8e9+unuceybbd27Nr4db+/aefzeO7jyWpsr/tzsGvc/LO/iVUjz+d7z/3UNZs3prlSY48tT57jidpq9aHY2P//FDnLisUCh8M1aDzs12Z+feFi9WfcdPU1JQzZ86MdzcumkZ7Xi4O44pGYazD2DC3qAfGMY3CWKdRGOtQyZyAsWFu0SiMdcaLsQcjZ95Av4k6HyZqv0fjfBk3y60CAAAAAAAAAABQt4TkAAAAAAAAAAAAqFtCcgAAAAAAAAAAANQtITkAAAAAAAAAAADqlpAcAAAAAAAAAAAAdUtIDgAAAAAAAAAAgLolJAcAAAAAAAAAAEDdEpIDAAAAAAAAAACgbgnJAQAAAAAAAAAAULeE5AAAAAAAAAAAAKhbQnIAAAAAAAAAAADUrUm1ulBh2UNZc1trcaPjiWza0T7E/tlZ+sCD+VRL79mHsmvD9hxIkra12bhyQZKk57lHsm33sXNvVq3NcM4FAAAAAAAAAACgYTJfNQrJLc6C7MimDceSLM6qzfdkVVt7dp5ckbtuO5VdGx7OgdKbtKqtPTv3J0l3/ulbD2fP8bLLzFqRdSuTXRvW50AWZ9Xm1Vn64jDbZBjnAgAAAAAAAAAAkEbKfNVoudX27OlL8HWm53Tp5fET6Rm0/cw0t5zKqQEPU7hxYZo7XiimC9Oejo7WzL1x9rDaDOdcAAAAAAAAAAAAkkbKfNVsudU+s9oyt+VQnt+fJO3Z+dRN2bh5a5anVA5vf2/DBVlevr/0hvd0d/Zdqru7O82tM5NUltAbtE338M4dSlNT00iedMJrtOfl4jCuaBTGOowNc4t6YBzTKIx1GoWxDpXMCRgb5haNwlhnvBh7MHLmDfRrmPkwgTNfw1HbkFzb2mxcmf61ZmetyLolJ/L4hu3p6i29d3J9du5vz84N7aWT+svkHRrkkuVvQjXV2gzn3HJnzpwZUfuJrKmpqaGel4vDuKJRGOswNswt6oFxTKMw1mkUxjpUMidgbJhbNApjnfFi7MHImTfQb6LOhxEH+yZ45ms4arTcalJY9lA2Lnwhm3rfrBTL5OXw/nQlSY5lz95Dmbtw8YAzi2XymmcUt4pJwKLW1tZB71WtzXDOBQAAAAAAAAAAoHEyX7UJyc1akbvmH8zjO9ordnedPJXm+W0pJElmZ+mSBcWk36wVWbVsdt+5t87rTs/JpOvFg+mZd1MWJUkWZ9687hx5sbJ0XrU2wzkXAAAAAAAAAACANFTm67JCofDBUA06P9uVmX9fGPoqbWuzceWCil29a84uWr01y+eVdp5+No8/+nS6kor9R55an52ldWsLyx7KmttaK/cPKOk3aJsh9g/HRC2PeKEa7Xm5OIwrGoWxDmPD3KIeGMc0CmOdRmGsQyVzAsaGuUWjMNYZL8YejJx5A/0m6nwYdr/rIPPV63wZt9qE5OrARB3UF6rRnpeLw7iiURjrMDbMLeqBcUyjMNZpFMY6VDInYGyYWzQKY53xYuzByJk30G+izoeJ2u/ROF/GrTbLrQIAAAAAAAAAAMAlSEgOAAAAAAAAAACAuiUkBwAAAAAAAAAAQN0SkgMAAAAAAAAAAKBuCckBAAAAAAAAAABQt4TkAAAAAAAAAAAAqFtCcgAAAAAAAAAAANQtITkAAAAAAAAAAADqlpAcAAAAAAAAAAAAdUtIDgAAAAAAAAAAgLolJAcAAAAAAAAAAEDdEpIDAAAAAAAAAACgbgnJAQAAAAAAAAAAULeE5AAAAAAAAAAAAKhbQnIAAAAAAAAAAADULSE5AAAAAAAAAAAA6paQHAAAAAAAAAAAAHVLSA4AAAAAAAAAAIC6JSQHAAAAAAAAAABA3Zo02gt0dXXVoh9jplAoDLttU1PTGPbk0tNoz8vFYVzRKIx1GBvmFvXAOKZRGOs0CmMdKpkTMDbMLRqFsc54MfZg5Mwb6Gc+1IdRh+SSZNEf3FqLy9TcgZ8+P+y2Z86cGcOeAAAAAAAAAAAAMB4stwoAAAAAAAAAAEDdqkkluXKXZXr+4O47kx/tSPvp6vt6tfzh6vzptPZs/0HHMK49L59Zd0Ne2faTfOTue3LThwdrdTR7t/1Djoz6SQAAAAAAAAAAAJjoah6S+yCn8tN9r+bPP3Nrjj75fE4nueHOe/Lhfd/MPw4IyF3Wcmtub/tIkj/O2nV/XP2iv/rhgBDdqfz0yR/mw3c35+eleyS9Ybw/rO0DAQAAAAAAAAAAMGHVLCQ39877suTj5Xvm5E/X3dK/+fH7snZp6fVrP8vfPdmTT37mE6XX/UG3cpfN/ZN8ftpP8rc/SRbffV9f5biPr7svv7//h/lVpmVa0n9uy9x8PK/maK0eCgAAAAAAAAAAgAmtZiG5Iz/45oiWOJ175+q89qP25PN/XBmmG+C1/T/JBzmV9ie/mZ+23JrPf35a/kdpOdW50xbnIy3pT8lNm5a8/JNBA3dUV1j2UNbc1lrc6Hgim3a0F1+3rc3GlQuSJD3PPZJtu49dUPs+s1Zk3ReS7z/6dLqGatu2NhtXJrs2bM+B2j8uF0nVcQL15nw/+4BRWbR6a5a3PJvHH306XePdGRiR2Vn6wIP5VEvv9iF/vqWOlY/37vzTtx7OnuPj3SeorUWrt2b5vMp9/vxPo/NvPzA2yueW3zXUvcE+D/LvrVwM1T6L9BklVDfI/PB3AhpRzfI1JVU/B5OvGRM1C8ldlnn5zLo/zscr9v5rXvjbHTn6idW5PT/I3/6kOZ8pLZF65Ac7iuect5Jc/3bzJz6RD+cjWbLuvly355v50S9fzec/MT3tp08lSW74xJy89st/qNUjNYjFWZAd2bThWJLFWbX5nqxqa8/OkyuybmWya8P6HMjirNq8OktffDh7jldpv39xVi18IZs2bC9O1i/fmUW7KyfhoqW3p2fv+nTNqnbt0gcr6U5PTo3T+0FtVBsn490vqLXz/+wDRmHWivQVIOEAACAASURBVNw6L/E/IJi4hIVoDItWP5i5hx/JJh9eUccO7Fhf9uf8xVm1+aZ0GPM0slkrctdtp7Jrw8M5UApL+7cfqIG2tVkz/2Ae3/B0uir+7Xy8Owa1VuXzoKqfH41fT6k31T6L9BklVFdtfvg8mEZUq3xN6XJDfA4mXzM2Lq/t5Y5m77ZvZnvpa++vhnHKh2/Jn667L2sH+frzpXP6ml2Wefnk9clrOZq9257Iazevzh+8+lJeu35uWpJc1nJrfv/DP8vPR1LOjiTt2dP3j7qd6SlNvsKNC9Pc8ULpH4Db09HRmrk3zq7aPmnPzvLE6+kT6S6/zawVubXl2Ty3f6hrH8ueR9dn03cPjsWDclFVGydQb87zsw8YhdlZ+oWFOfLcofHuCFygmWluOZVT/iGfelf6u973hYVoIIVld6T5uR/4zzE0tuMn0jPefYA6VJgxPT2H95cqSBT/7bx5xjh3CsbE4J8HVf/8CGql2meRPqOE6qrND58H04hqla9JhvwcTL5mzNSsklzRnCxZd1+W9G3/a174afXWH6QjP9qWfGbd4rz2tzvSPsQPzuY/XJzsa89rS29IcirtT+5Iksx97b58cu7zeeUTt+S1fd9UaGQ0ZrVlbsuhPL8/ybKkp7uz71B3d3eaW2cmOTZ4+5SViTx9binIRUtvTw4/kq4khQzj2tSPAeME6s1QP/uAC9dblWjbyTvzqfnj3Ru4UAuyfPPWLI8lYqhjM65N8+kTWfDA1qxpiT8T0QAW57bbTuX5DX6m0+jas/Opm7Kx/M86/u0HRq3r5Kk0L2lLYfexdGV2prckzTOKH4BBo/D5EcAE5PNgGtEo8zVDfQ4mXzN2ahySO5q92/4hvcXc5t65Oh8ZonXFEq2fvy83DdLmtf1PZOdPTmVafpmfH0k+ubTy+Es/+GGuW3dflrz2s/ydKnIXbsA6xYVBmpRPvMHWNe7a/XA27U6xHPbmh3Kkb2mpxZk371Ce31F9klZcm/ph/WsaQPWffcAFa1ub5XmiuGxf23h3Bi5Ue3Zu6K02aokY6ldhxvRk3vTkW+uz6XiyaPXW3LVsv1Aodauw7I7M7XgmO8e7IzDeZq3IuiUn8viG7enqXW715HpLK8Fo7d+eXQu3Zs3m25N050iHNQvA50cAlzifB9OIRpuvGfJzMPmasTRuleQum/sn+fOlc/KrPd/M/3lkXj5zZ/KPP+joOz73zvuyJD/Mzp8U18498pPnc1nmnXOdG+4shew+PC3TMuhSvZxHYdlDWdP6TDZtaK/YX54+bW1tTe8agtXa9zn+dJ7vuD3zZiQ53rsMyY6KX4rVrk39OO84gXoz4GcfcOGWLlmQtCzIxs33lPYsyJrN12bThu3j2i+4cO3p6LjH7wjqUtfJU0nHC30B0AMHD2X5Qv+TkXo1Owvmt+bIXn/PhcKNC5PDO0qVQ49lz95D2bhwcbLf/IDROrBjfenf0mdn6QOr07PHn6toLD4/Apg4fB5MIxp9vmZ21c/Bdm3Ynm75mjF1USrJnf7JjuxMclma+1reMO3V/N22fyiF2jryo1/+Sdau++O+47/a881sH6IyXF8Vul/9MNu3deSyllvz+XX35bo938w/qig3fLNW5K75B/P4o5UTuOvFg+n58k1ZlPYcyOLMm9edI3uOVW2ftrVZle3F/y06a0VundedI3uSwZYhqXpt6ke1cQL1purPPmA09jy6Pn1TqW1tNi45kccffXo8uwQjN2tFVt24Pzt3H/M7gvp28kR6Vvb+/S5ZtHBBerp/MN69grFh+RjoM3BJyKVLFqTnsJ//UFNtd+ZTOZjH/UcbGojPjwAmEJ8H04hqkq85VvVzsK4szir5mjFV45BcUW+VuORo9v4gxQDb52/Jh5PkVz/MPybp+WXy+XX3FfeV9m/f9g9915h7531Zu7TsWFmVucz9k/z50ml54W+/me2l0nEfnH4+O7c9Xzzv5p/l7558fiwerf7MuDbNLQtK5duLep57JNt2P53vP/dQ1mzemuVJjjy1vlgZoK1a++3pWL01G1cW9/W2H3QZkuNVrk39qDqu/LCmzuwf/GcfAOT40+lYujUbNxc3/Y6gbh1/OtueWpuNpb/fpaO0TADUoxnXpvn0Cf9ZF5IBS0ImOf1sHvfzH2pgcVZtvidzkySHsmvD06WKjdAgfH4EMHH4PJhGVLN8zeDzRL5m7F1WKBQ+GKpB52e7MvPvB1tBt6irqyuL/uDWmnesFg789PkUCtX7zlhbnFWb70jPtx42SQEAAAAAAAAA4BzyNbVwvozbmFSSg6L27LT+OAAAAAAAAAAAVCFfczHUJCR34KeWNgUAAAAAAAAAAODSM+qQnOVMAQAAAAAAAAAAuFRdPt4dAAAAAAAAAAAAgLEiJAcAAAAAAAAAAEDdGtZyq52f7RrrfgAAAAAAAAAAAEDNXVYoFD4YqkFTU1POnDlzsfoDAAAAAAAAAAAAw3a+jJvlVgEAAAAAAAAAAKhbQnIAAAAAAAAAAADUrUnj3QEAAAAAAAAAAADq3+0fnpH//LsLU5g8ZUTndb13Nv/hXw7m2ddOXtB9VZIDAAAAAAAAAABgzF1IQC5JCpOn5D//7sILvq+QHAAAAAAAAAAAAGPuQgJytTi3diG5JTPT+b256dzakkWDHrsuX51TuXvRF69L5/fmZseS/vN//MVBHqbK+UVTs+N7cyvOLV53Zr4w4PWg9wUAAAAAAAAAAODiavu95D/dnzz2cPK//1kyoyUpTE8eXFvc95/uL7apgUk1uUqm5Kt3XVV8OXNadv/lu5n512fz1a0fy715Ncu+X5u7JCkG5r50VeW+fScy86/fGOKkq/KN783NN3o3O1/Nss+dTuZMSXJ2+Pfsvc+APry869f59HfODtK/9/LYX7ySrx0drO8Djs1pyY+/Pi3Xlzaf+faRrN47jGMphv52L59ccd0jK+fmGzcPuMeoXZPXt8zK26d6Mv2vTvYPnls+mq67p/a1uvLJw7nmZ6WNj85IzwPNeXewY0Nds+TdP5ufnvnn9uSKvS+nedc7SZL3l8/JqSW94cqzmfro0TT95gIfccCzlN9nyOeseo3+/gznWS7M0O/hefs+xPeovM/l+4vveUb3XgMAAAAAAAAA0Jh+f0Hyv/2v/dsL5yUb1yeXXZZcdWVx38c/Wmzzzf87+R+HRnW7mlSS+8Jffiz3znwvj/3Fkcz89lvJzdem8y+vHrzxkpnnVHY715R8dWuxMtwX/nJuKVg2Ofd+fW5+fNeUFINgRzLzc6WvvoBc8bxiYOyqfON71+UrM5PkrXzlc2Xt17+ZFVvn5tu3DuPh5rTkx1+6Ki/v+nXffb6wuDKkd/3yjxWr0pXa9puce79eetahjmVqdpSF4JLkji/1Vs4b6tjAgFy/7/71kXxlX/k9RuOavL5lfrq2zMrbAw99dEZ67p6anOrJ9PsPp/lw8vbd8/P6LaXzysJXSfL23XNy5qPnueYIVAbkRu/dm6ZWbi+5vv9Z7q481v8sZXrfjz5T8sYDH614D2pnmO/hhX6Pbvloeua/keb7D2f63rN5+44Zeb90vdeXTMmVTwrIAQAAAAAAAABwAT77mXP3Xd3UH5A7X9sRGnVIbtEXr6usWLa3M1/Z914ea383g62Oumj2lCRXZdlQS53OuTqfmZlcP3NKvvvXR7Js13vpDcZ9+vtDVX47m6+t723/Vr7yuVey+qk383Kpklxn39fHcu/M4T3fF1ZOy/V5K9/6Ttl9O1/NslLgrrdvR/8lWXTr1bk+xcpy/ceKzzrUsSy5KnckxUp1nzuSr+xLksn5zK1Thj6WqfnK8smpDA32V4777lOv5uVclS8PtoTtBbhib0/OGYaFyXk3yRX//HomJbnihbKKfrdcXQxvHT6eQimclUzJO20fGvqa5ff8m8Mp3N/79XKmnkqSN3L1rneSXJMzS4rVAKc+2ttmlMGtk8UgWaEUDEvOZlJX6VjpOcqf5f1C5envt11VfD/2vlx2jan5t1vO9ywX7nzv4YV+j94vTElOvZfLk0zqOptMn5zf5kM588XmvHv4+OBV9AAAAAAAAAAA4HwKrWPTtopRL7e64uZiFbN7vz439/btfS+PPXU2R5NiwKvMge/05Jnl1+aOxVPzjc7Br1kMpr2Xx556I8mU0j3eK2sxecD9igYuQ5okOXo6n/7c6RE/V5JkTku+fHPy8q6efLds93efT378vbl91d1e3vXrfO1osqhKZbo5s6uH1ObMnpJFKR5/pr0YXvpu+1v5xs1X5fqZQx/rDdC9vOvNzPn63HQmxQDf+tM5UHr2b+2blm8sb84XvtNZ8Qwj83quuf/1JNfk9YHhxp+dztQ7puaNJS15d9eb+be7pyZ5I//Tz5L3lxf7fuULrycphbPmT827M6YMfc1qbmnJG9OTK/aezhVJX8Drir1v5f0H5qcrKVZLq7bk6DBcsT/p2TK/r7LaFXtfLoXuXs81fzOwdVmA7jzeL3woSVkYbuCzXJBhvocX+D2a9MLZZMnk/DYpBebeSpbPyhvT30jzX71+wb0GAAAAAAAAAKDBnTiVfGzW8NuO0qgryX1t/a/zWGf6Kp3N/PZb5znjjezel+Tm5tJSqANdnWU3J9nXU6yIVqoq1xuMKy69+l4e+4tf57F9xYpu5dXczrFkZlkFucqvHecLZ/3uFbk+ydFjQ1WvS66/+eosSnKg1O765R9L5/fmViyDOtSxfzdzcmX//+XdvDyMY4t6w3c3X90fRpw5Ld8uqxz3i873kkzJ3MHK+tXEO2l65o0kU9NTWvazN/j12xnFKm99QbKu90YRCOtd7rS/8tr7hdJz/t5V/cuNTm/O68s/NNgFLsi7v3dNcYnR8n1/Nj8985McPn1O1bpJXcXv87tLrk/XlvlVloI991nG1gV+j372mzQfnpqeLfNzakky9Z8np2dJMvXRN/NvW+ana8v8dP3HGee8PwAAAAAAAAAAMKRdzwy/7dMjaFvFqENyAxWDW2dz5Gj1Nt9tfyvJ5Nxx8+RzD5YCX72V076wclrS2b/cal8I79bm3Hvz1Vkxp1RprvPNPF1xz6vyje9dl6/OTiqXIx1OkO88jp7Op0vX+sq+JDOn5StLkuztLAX2SvfcVXafoY4lSSZnzu+WXpbCecM7lmRfZ8VzXT+zNsurDsstH03X3VP7luucvvds3l1yfXr6gmplS5KWlv28sPtcXRHuqvDPpWVQnyyOmWKluvO5Jq/3Br22zMmZj5Z2/+ZkmsuXVJ3enDO3VJ5TDMgdT+FvBqmm9rPflJZYTZKzmbr3jXPbDPUsI+3vcIzie9S/ROzpvL9kaq7YezyTl83K+3tfTuH+47my4v0BAAAAAAAAAIBh2Hcw+S8/PH+7//LD5OcHR327GobkrshXt5YqpO17a+ilPfe+lWeSvNz53jmHrp85Oel8Nd/oWzb1vfxoX38lt77qac+/lWcyOfd+/WO5d2byzPdP50Cm9Pchb+Urn3slXzuW9FWh660i96WrRvGcU/PVL1YPYR34ziulMF5P5iwvVr370fNnhzz2i9L7cMfiqUmSLywu9u/lzqGP9VWnu5ihuAGK1dzOZuruYmBs0v63ckWKQbXLTxb79/ZN1yRJ3r2p+AxXnBy6Mt+5PpQzd0xNcjYf2t9fea2vatuwQnEDvZ5r7u8NgB0tVYS7JmeqVqH7UM78x1l5O2cz9dHDgwfkevu162hFsKyy34M/y4X1d3hq8T16989m5e1TPblmV/Le9GRS1ztJzmbSqd6lZAEAAAAAAAAAYASefibZ8XfJb3977rHf/rZ4rAZV5JJkUk2ukiR5N19bfyRfK9vTt71k4Lqqb2T1597Ioi9el93LK4+8vOvX+fR3+gM6v2jvyS9yVe4tbf+7Uoju6aNvJLuac8fy8lDd2Xxt/ZE8fc5138tjf/FKcfnWUn+GFZQrLW06p1Qdr9ec5R9L54DrF5dDnZod37u2f+nTpH/Z2CGPvZmXl0/L9Tdfm87vXVs6+Fa+9Z2zOTCn+rGkJ4/ddVXurTjWX4Wv7/3KW0NW9huNYlBtat5p+1CafvNO3m+7Ku+mGLKatP+tXLFkSt6dPytdW3rXED7/EqPvL5+TU0um5Iq9L6d51zvJR6/JO9OT5Gwml4fDfnY6U++Ymjcqrp9c+UL1ANv5vL/k+nRVLMNbWor0lpa8MT1JpuSNB+an9x2+8snDaSqU93dKXi8tadqnfFnWas9SYxXv4Wi/R7d8ND3zz2bqoyczKR/K2fQG46bk/b7AHAAAAAAAAAAAjNB//X+Tru7kS19Mrm4q7nvzTPLt7yS/+GXNblPz5VZTqubWubUli2pwtQN738iB3o3fbcmXb05e3vdmDiyZWaoYl2TmtOz+y6lDXOUCK8kdfTM/6kyuv/nqsmc5m6Od5Y0GBPDK7TuRmX89yHKbA48dPZ1PVywB+14e+4vOYjW+oY7lbL62/kTK85LPfPtIVvdV4ZuaZTfn/JX9RqO0vOi7S65P15b5leG235xM85Plz382Ux/9zQiWGC3pXQL08JsDzn0nTX91PFeW7bnyycO55mcX9CTprYxWvj310ZFVbTvHwGVZqz7LGBrN9+ijM9Jzd3GZ1eL78E6avtOTLLk+XVtm5e3Dx0fxfgMAAAAAAAAA0PB+8cvk/9iSvPSr5Mgrxdc1DMglyWWFQuGDoRo0NTXlzJkzQ16kWBFucsW+l3f9Op9+/ur8+OvTcn2SdL6aZevfzIqtxeVRh6Xz1SxbfzoHlsxM55em5Jl9yR0z38xX9l2dbyyf3B8Im9NSvM++E1nW2Vzsy4BzB6skVxkoq6J07aPDaXuJ6a3UVzXEBwAAAAAAAAAAcJF0fvJ/GdX5M3/+/wy6/3wZt5qE5OpdbwhwWKG6S0UpCDhw+VoAAAAAAAAAAIDx8PMbl6YwecoFndv13tl88sU9gx4TkgMAAAAAAAAAAGDc3f7hGfnPv7twxEG5rvfO5j/8y8E8+9rJQY+fL+M2aUR3AwAAAAAAAAAAgAvw7Gsn88kqQbexdPlFvyMAAAAAAAAAAABcJEJyAAAAAAAAAAAA1C3LrZY0NTWNdxcAAAAAAAAAAABG7cyZM+PdhUuKkFyZRhocTU1NDfW8XBzGFY3CWIexYW5RD4xjGoWxTqMw1qGSOQFjw9yiURjrjBdjD0bOvIF+E3U+KBZ2LsutAgAAAAAAAAAAULeE5AAAAAAAAAAAAKhbQnIAAAAAAAAAAADULSE5AAAAAAAAAAAA6paQHAAAAAAAAAAAAHVLSA4AAAAAAAAAAIC6JSQHAAAAAAAAAABA3RKSAwAAAAAAAAAAoG4JyQEAAAAAAAAAAFC3hOQAAAAAAAAAAACoW0JyAAAAAAAAAAAA1C0hOQAAAAAAAAAAAOqWkBwAAAAAAAAAAAB1S0gOAAAAAAAAAACAujVpvDsANK7Csoey5rbW4kbHE9m0o710ZHaWPvBgPtWSJN35p289nD3Hh9qfpG1tNq5Mdm3YngMjuFf1PgAAAAAAAAAAUA+E5IBxsjgLsiObNhxLsjirNt+TVW3t2bk/WbT6wcw9/Eg27T5Wccbg+0vBuXSnJ6dGdq+TK3LXbaeya8PDOVC6Tm8fAAAAAAAAAACoD5ZbBcZJe/b0hd0603O69HLWitza8my+PyAgV3V/jmXPo+uz6bsHR36v4yfSM5pHAAAAAAAAAADgkqeSHDD+ZrVlbsuhPL8/Sdu1aT59Igse2Jo1LUlOP5vHH306XTOq7B/NvdKenU/dlI2bt2Z5kp7nHsk2VeQAAAAAAAAAAOqKSnLARdfa2tq/0bY2G798bZ7fsD0HkhRmTE/mLUy+uz6bNqzPrtO3565ls6vuH5EB98qsFVm35EQe37A+mzY8kiPzH8yqtho+KAAAAAAAAAAA404lOWDMVYTiknR3dydJCsseyprWZ7JpQ3vfsa6Tp5KOF7LneHH7wMFDWb5wZroODr4/Gbj86uAGu1fhxoXJ4R2lanTHsmfvoWxcuDjZ317tMgAAAAAAAAAATDAqyQE119raWvHV3d1d8ZUkmbUid80/mMd3DAiknTyRnnk3ZVFpc9HCBenp7qy+fziq3Kvr5Kk0z29LIUkyO0uXjOCaAAAAAAAAAABMCCrJAaNWXimuqampPwg3lBnXprllQdZsvr1vV89zj2Tb7qez7am12bh5a5YnSccT2bT7WJJjVfZX0bY2G1cmuzZsz4Gq99qeXQu39u8//WweH+qaAAAAAAAAAABMOJcVCoUPhmrQ1NSUM2fOXKz+jJtGec5ejfa81F55MK43FGdc0SiMdRgb5hb1wDimURjrNApjHSqZEzA2zC0ahbHOeDH2YOTMG+g3UefDRO33aJzvmVWSA4alPBSXZHjV4gAAAAAAAAAAYJwJyQGDEooDAAAAAAAAAKAeCMkBSYTiAAAAAAAAAACoT0Jy0OB6w3FCcQAAAAAAAAAA1KPLx7sDwPg6sKFFQA4AAAAAAAAAgLolJAcAAAAAAAAAAEDdstwqNKCuLfOrbhfuP3yxuwMAAAAAAAAAAGNGJTkAAAAAAAAAAADqVs0qyRWWPZQ1t7UWNzqeyKYd7aUjs7P0gQfzqZYk6c4/fevh7Dlevi9JDmXXhu05kCRta7Nx5YIkSc9zj2Tb7mPn3qxam+GcCwAAAAAAAAAAQMNkvmoUklucBdmRTRuOJVmcVZvvyaq29uzcnyxa/WDmHn4km87pfO+bV7Zr1oqsW5ns2rA+B7I4qzavztIXh9kmwzgXAAAAAAAAAACANFLmq0bLrbZnT98b0pme06WXs1bk1pZn8/1z3qyZaW45lVMDHqZw48I0d7xQTBemPR0drZl74+xhtRnOuQAAAAAAAAAAACSNlPmq2XKrfWa1ZW7LoTy/P0nbtWk+fSILHtiaNS1JTj+bxx99Ol1JkgVZvnlrlqeyTF5Pd2ffpbq7u9PcOjNJ5Rs+aJvu4Z07lKamppE+7YTWaM/L8Ix2XBhXNApjHcaGuUU9MI5pFMY6jcJYh0rmBIwNc4tGYawzXow9GDnzBvo1zHyYwJmv4ahtSK5tbTauTN9as4UZ05N505Nvrc+m48mi1Vtz17L92ba7PTs39K5f218m79Aglyx/E6qp1mY455Y7c+bMiNpPZE1NTQ31vAzfaMaFcUWjMNZhbJhb1APjmEZhrNMojHWoZE7A2DC3aBTGOuPF2IORM2+g30SdDyMO9k3wzNdw1Gi51aSw7KFsXPhCNpXerCTpOnkq6Ximb43YAwcPlZJ+5Ypl8ppnFLfKj7e2tg56r2pthnMuAAAAAAAAAAAAjZP5qk1IbtaK3DX/YB7f0V65/+SJ9My7KYtKm4sWLigm/WatyKpls/vOvXVed3pOJl0vHixrvzjz5nXnyIuVpfOqtRnOuQAAAAAAAAAAAKShMl+XFQqFD4ZqMKyygW1rs3HlgopdfWvOlh/reCKbSm/qotVbs3xecfeRp9Zn5/7i68Kyh7LmttbK/QNL+g3WZoj9wzFRyyNeqEZ7Xip1bZlf9Vjh/sMXfF3jikZhrMPYMLeoB8YxjcJYp1EY61DJnICxYW7RKIx1xouxByNn3kC/iTofht3vOsh8DfeZaxOSqwON8py9Gu15qSQkB6NjrMPYMLeoB8YxjcJYp1EY61DJnICxYW7RKIx1xouxByNn3kC/iTofJmq/R+N8z1yb5VYBAAAAAAAAAADgEiQkBwAAAAAAAAAAQN0SkgMAAAAAAAAAAKBuCckBAAAAAAAAAABQt4TkgIuqa8v88e4CAAAAAAAAAAANREgOAAAAAAAAAACAuiUkBwAAAAAAAAAAQN0SkgMAAAAAAAAAAKBuCckBAAAAAAAAAABQt4TkAAAAAAAAAAAAqFtCcgAAAAAAAAAAANStSePdAaD+dW2ZX3W7cP/hi90dAAAAAAAAAAAaiEpywLAMDLoBAAAAAAAAAMBEICQHAAAAAAAAAABA3RKSAwAAAAAAAAAAoG5NGu8OABdf4f7Dfa+7tsyv2B6pjhuuq3ps3kuvXPB1AQAAAAAAAACgFoTkgFHrDcM1NTXlzJkzSYYOzwEAAAAAAAAAwMViuVVocKOpIgcAAAAAAAAAAJc6leSAqrq2zK+6LVwHAAAAAAAAAMBEoJIccEkaGNADAAAAAAAAAIALUbNKcoVlD2XNba3FjY4nsmlHe+nI7Cx94MF8qiVJuvNP33o4e44naVubjSsXJEl6nnsk23YfKzavtr/caM4FAAAAAAAAAACgYTJfNQrJLc6C7MimDceSLM6qzfdkVVt7du5PFq1+MHMPP5JN5Z2ftSLrVia7NqzPgSzOqs2rs/TFh7MnVfYfT23OBQAAAAAAAAAAII2U+arRcqvt2dP3hnSm53Tp5awVubXl2Xx/QLqvcOPCNHe8kAOlczs6WjP3xtlV99fqXGB8FO4/3Pc12DYAAAAAAAAAABdb42S+arbcap9ZbZnbcijP70/Sdm2aT5/Igge2Zk1LktPP5vFHn06S9HR39p3S3d2d5taZSXeV/al8w0dz7lCamppG9KgTXaM9L7VVPn6G87raucO9B1xqjE8YG+YW9eD/Z+/+QeM48/+Bf86kU2l/N5GNCYLICInYQSnMEQh8iRt/C5sUxl9IkcZgCF8M4bhCIFcyqAhBYEIgkMZF4GdSHHbjIrrGEA4VMbGNw+IEQjD2XjZRqfp+hazV7HpnNaOd/TMzrxeY23n0zO7M7PPMbtj3fR7jmLow1qkLYx26mRMwGuYWdWGsMynGHuRn3sC+2syHEme+sig2JLd8Na5firi78lU8jIjZ1/8rYuG/Ir64FmvPI858fDM+PP8g/tFn1+TJZmkvat+knZ2dXP3LbGZmplbnS/GS42fvce+4ShtjWceeMcq0cg+F0TC3qALjmLow1qkLYx26mRMwGuYWdWGsMynGyKegUwAAIABJREFUHuRn3sC+ss6H3MG+kme+sihoudWI2fOrcf3tH2Pt5cWKiGj9/kdE87vOGrEPHz95mfSLzv9GRDQajc7jtPakYfYFJssSqwAAAAAAAAAA06Euma9iQnInLsaHi4/j61tb3e2//zu2F96JMy83z7y9FNvtF9F69DjRfjYWFtrx9NGz1PakYfYFAAAAAAAAAAAgapX5+svs7Ox/BnXIVDZw+Wpcv7TU1bR9/7P48t6z7r81v4m1lxd19vxqXHl/N/n39NtrcftBpLf3lvTLs29GZS2PeFh1O18Op7WxmPq3vYpwzfm51D4LP/9a+OvBNHAPhdEwt6gC45i6MNapC2MdupkTMBrmFnVhrDMpxh7kZ97AvrLOh8zHXYHMV9ZzLiYkVwF1Oc89dTtfDidvaK05P5c7GDfM68GkuIfCaJhbVIFxTF0Y69SFsQ7dzAkYDXOLujDWmRRjD/Izb2BfWedDWY97GAedczHLrQJTaVCVNwAAAAAAAAAAqAMhOYApNaiyHgAAAAAAAAAA2bw26QMAitVbPS65PcxSqIxHbzAuuW3JWQAAAAAAAACA/ITkoIL6heEsvQoAAAAAAAAAQB1ZbhUAAAAAAAAAAIDKUkkOKkjVOAAAAAAAAAAA2CUkBxWTXGq1OT/Xd+nVrGY//anzuLWx2LU9CuN+PQAAAAAAAAAAqs9yqwAToNofAAAAAAAAAMB4CMkBlFxrY3HShwAAAAAAAAAAMLUstwpkYunT4fVWj0tuD7MsLgAAAAAAAAAA6YTkoEQGLdEpZDV6zfm5A69za2NxYKCw3/6WXgUAAAAAAAAAGB0hOSiZPCGrcQfn3n3RHuvrjYPqbwAAAAAAAAAA5SYkB3CAKlR/O6jCHQAAAAAAAABAVQnJQQGyLMNJdbU2FlO3BdMAAAAAAAAAACZLSA6ghATzAAAAAAAAAACyEZIDmCLJgJslUgEAAAAAAAAAhickB5RKbwW1JIEyAAAAAAAAAAB6HZn0AQAAAAAAAAAAAMCoCMkBlTao8hwAAAAAAAAAANUnJAdj1JyfO7CPUBcAAAAAAAAAABTntaKeaPb8alx5v7G70fwm1m5tRcTJOPe3v8dfj+31ehJ3V76Kh6ntEbF8Na5fWoqIiO37n8WX9569+mJpfbLsCwAAAAAAAAAAQG0yXwWF5M7GUtyKtZVnEXE2Lq9/FJeXt+L2g4iIdvzrixux+bx3nz7tJy7GJ5ci7q5ci4dxNi6vfxznHmXsExn2BQAAAAAAAAAAIOqU+SpoudWt2Owk+F7E9p977cfj6LE/4o9XDrp/++zpt+No88fddGFsRbPZiFOnT2bqk2VfoDxmP/3p0Pu2NhY7//ptp+0DAAAAAAAAAFAf9cl8FbbcaseJ5Th17El8/2CvYSkurN+MC9FbDq9/+3b7Reep2u12HG0cj4juEnp9+7Sz7TvIzMxM5r5VULfzHbWs17Nfv19uvNm1nQxsvbX6W6bXmZb3c5LHkeW1B/XJe20P83p5nuut1d8iDnE9954rz7giv2mZc1A15hZVYBxTF8Y6dWGsQzdzAkbD3KIujHUmxdiD/Mwb2Feb+VDizFcWxYbklq/G9Uuxv9ZsbMXtla2Xf0yWw+vf/qTPUyYvQpq0Pln2TdrZ2cnVv8xmZmZqdb7jkPV65r3uvf3T9p+G93PS4yrLaw/qk/faHub1xvH+DXsdONikxzpUlblFFRjH1IWxTl0Y69DNnIDRMLeoC2OdSTH2ID/zBvaVdT7kDvaVPPOVRWEhudnzq3Gl8V2sdS5Er61oNj+Khdcj4nlKe0RXErDRaES0X32mtD5Z9oVxa87PpW4v/PzruA+HCesdD4eVXI62tbE41PK0AAAAAAAAAEA91SXzdaSQZzlxMT5cfBxf39p6pf3y+ZOdx+8ttGP79/T21qPHsb3wTpyJiIizsbDQjqePukvnpfXJsi9MysLPv77yj+qY/fSnzr9+23t633/jAQAAAAAAAACYmBplvoqpJPf6G3H02FJcWf+g07S75uydaJ67GdfXd9uefnstNp9HRKS3/+P+alx5uW5tpz1Z0u95Sp+0faEEVAXLrshr1dpYTN0u03tQpmMFAAAAAAAAAKZEjTJff5mdnf3PoA5lXVs3r7qc5566ne+oNefnUquBDVpes98+g4JfeZ9r3MY9rtKuVW/4Lak3ZHdQv7T3Nq09a3Bv0JgpStbrQH7uoTAa5hZVYBxTF8Y6dWGsQzdzAkbD3KIujHUmxdiD/Mwb2FfW+VDW4x7GQedcTCU5qKHewFpyOxl+Sj4eNhhV5HMxWd47AAAAAAAAAIDxEJKDIaRVGGOyLF8LAAAAAAAAAMCeI5M+AAAAAAAAAAAAABgVITkYI0tsAgAAAAAAAADAeAnJwZSxNCgAAAAAAAAAABRHSA5KSlW66STkCAAAAAAAAAAwXYTkAAAAAAAAAAAAqCwhOQAAAAAAAAAAACrrtUkfAMCkJJdGbW0sWioVAAAAAAAAAKCCVJIDAAAAAAAAAACgslSSA0orS+W3rNXhBvVrzs9lPiYAAAAAAAAAAKaLkBzAAAs//9p53Jyf69oGAAAAAAAAAGD6WW4VAAAAAAAAAACAyhKSAwAAAAAAAAAAoLKE5AAAAAAAAAAAAKgsITmAjBZ+/nXShzBSrY3FSR8CAAAAAAAAAEDhXpv0AQAwGrOf/tR53NpY7NoGAAAAAAAAAKgLleQAAAAAAAAAAACoLJXkAGqsd4nV5LbKcwAAAAAAAABAFagkBwAAAAAAAAAAQGUVVklu9vxqXHm/sbvR/CbWbm1FxMk497e/x1+P7fV6EndXvoqHERHLV+P6paWIiNi+/1l8ee/Zbpe09qRh9gUAAAAAAAAAAKA2ma+CQnJnYyluxdrKs4g4G5fXP4rLy1tx+0FERDv+9cWN2Hye6H7iYnxyKeLuyrV4GGfj8vrHce7RjdiMlPai9gUAAAAAAAAAACDqlPkqaLnVrdjsJPhexPafe+3H4+ixP+KPnoOePf12HG3+uJsujK1oNhtx6vTJ1Pai9gUAAAAAAAAAACCiTpmvwpZb7TixHKeOPYnvH+w1LMWF9ZtxIbrL4W23X3R2abfbcbRxPKKd0h7dJfSG2XeQmZmZzH2roG7nOwpp17DO17bO5z7t8r433svBXB8YDXOLKjCOqQtjnbow1qGbOQGjYW5RF8Y6k2LsQX7mDeyrzXwoceYri2JDcstX4/ql2F+DNrbi9srWyz/ul8N70mfX5MlmaS9q36SdnZ1c/ctsZmamVuc7KmnXsK7X1riabnnfG+9lOmMdRsPcogqMY+rCWKcujHXoZk7AaJhb1IWxzqQYe5CfeQP7yjofcgf7Sp75yqKg5VYjZs+vxvW3f4y1zsXqtVsO7+jru1u7ib9djUaj8zitPWmYfQEAAAAAAAAAAKhP5quYkNyJi/Hh4uP4+tbWK+2Xz5/sPH5voR3bv0e0Hj2O7YV34kxERJyNhYV2PH30LLU9aZh9Iavm/FzqPyij2U9/mvQhAAAAAAAAAADTpEaZr7/Mzs7+Z1CHTGUDl6/G9UtLXU17a9Ge+fhmXFjYbXv67bW4/XLd2tnzq3Hl/Ua29p6Sfrn2zais5REPq27nm1dzfi4Wfv51YHuWPnVjXJVPa2Mx9W+CdemMdRgNc4sqMI6pC2OdujDWoZs5AaNhblEXxjqTYuxBfuYN7CvrfMh83BXIfGU952JCchVQl/PcU7fzzStrSC6NkBxlISR3OMY6jIa5RRUYx9SFsU5dGOvQzZyA0TC3qAtjnUkx9iA/8wb2lXU+lPW4h3HQOb82xmOBSqlrEA4AAAAAAAAAAMrkyKQPAAAAAAAAAAAAAEZFSA4AAAAAAAAAAIDKEpIDAAAAAAAAAACgsoTkAMilOT836UMAAAAAAAAAAMhMSI5Kam0sTvoQoFKa83Odf/22e5mDAAAAAAAAAMC0eG3SBwB5NefnYuHnXyd9GFA7/eadqnIAAAAAAAAAwLRTSY5aE/ABAAAAAAAAAIBqU0kOUgjQAQAAAAAAAABA+QnJUQq9gbXk9iiWXk0+p+VdIZvWxmLq9uynP437cAAAAAAAAAAAIkJIjhLpF1RT7Q0AAAAAAAAAABhESI7KUMUKyqW1sZhpbqrmCAAAAAAAAAAMQ0gOgEIkA29ZA3AAAAAAAAAAAKN2ZNIHAAAAAAAAAAAAAKMiJAcAAAAAAAAAAEBlCckBAMCQWhuLkz4EAAAAAAAAIIWQHBxg4edfJ30IAMAECcABAAAAAABAuQnJAVB6AiwAAAAAAAAAQJrXJn0AMG7N+bnUbVXjYDpkmae9wbjk9uynP43w6IA6cI8BAAAAAACA6hCSY6o05+fGElTr9xq9oRxgssxTAAAAAAAAAKAIhYXkZs+vxpX3G7sbzW9i7dZW19/PfHwzLhz7Z3z9+Z1oxck497e/x1+P7f31Sdxd+SoeRkQsX43rl5YiImL7/mfx5b1nr75YWp8s+0II2gAA4wvnAwAAAAAAwLSqS+aroJDc2ViKW7G28iwizsbl9Y/i8vJW3H7w8s8nLsZ7CxHxZ3Kfdvzrixux+TzRdOJifHIp4u7KtXgYZ+Py+sdx7lHGPpFhX4ju6lR+HIfxsnwhAAAAAAAAAEyL+mS+jhTzNFux2UnwvYjtrgtzMs7979vx9P6TRNvxOHrsj/ij52RmT78dR5s/7qYLYyuazUacOn0yU58s+wIwHkUE3przc6/8AwAAAAAAAACKUp/MV2HLrXacWI5Tx57E9y8ThWc+/nuc+umz+PL3/4m/dhUQWooL6zfjQnSXydtuv+j0aLfbcbRxPCK6S+j17dPOtu8gMzMzmftWwbSeb9px5W3P2mdar0NZuZ7V0fteDjMH877euy/ancc/HG90bQ8754vQe0xAccb9OXKY19vb55cbb3a1J6tjvrX623AHRqn5PkRdGOvUhbEO3cwJGA1zi7ow1pkUYw/yM29gX23mQ4kzX1kUG5JbvhrXL0XXWrMX4ptYu/csYjnZcStur+ytX7tfJu/JK0/YfRHSpPXJsm/Szs5Orv5lNjMzM7Xnm3Zceduz9pnW61BG0zyu6G9Qxbfed3KYOdjv9Vobi13bg54l77gaxzg01qF44/gc6a1K+cPxRudx1iXYh/3uQbX5PkRdGOvUhbEO3cwJGA1zi7ow1pkUYw/yM29gX1nnQ+5gX8kzX1kUFpKbPb8aVxrfxVrnQpyMc/+9FHFsKa6vf/SybSmurL+xf0EjYrdM3kex8PruVjIJ2Gg0IvoU6knrk2VfSMr6YzjwarAEoKz6ff67xwEAAAAAAFBHdcl8FROSO3ExPlx8HF9/vpVofBabn1+Lzb3N5atx/b//HV9/fidaJy7G5dMP4va9ZxEnLsZ7C+14uhnR+v1xbP/fO3EmtuJhnI2FhXY83ewundd61L9PKw7el2obVKEKGE4yUNKcnxtrwHRawqy9AZrk9rQcI9SFz/lijfu+DgAAAAAAwJSoUearmJDc62/E0WNLcWX9g05Tcs3ZVzy/E81zN+P6+u7m02+vxebziIg78Y/7q3Hl5bq1nfZkSb/nKX3S9mUqFPHjqwovwKTt3ceSJXXT7k1CPJDfD8cbqd8XWhuLqdujmGvC9wAAAAAAAFRejTJff5mdnf3PoA5lXVs3r7qc555xn++gkNyg8FvacmiqnUynus2jupqWOdgbmEkaRZgled69Ibl+10OoBrLJ+j2gqDmfNmcH3dvS5nPeYxr3fSHr/Xpa7utV4fsQdWGsUxfGOnQzJ2A0zC3qwlhnUow9yM+8gX1lnQ9lPe5hHHTOxVSSgyGl/VgNUCbjrnQFVZGnSiMAAAAAAABAXkJyAABwCFmWZBWeBQAAAAAAgMk7MukDAAAGU1ELAAAAAAAAAA5PJTmmQp4ASL+lWQHKKq36FMBh9H6nSm77DgUAAAAAAEBdCckxcckfbJvzc37ABUYiaxhtWu5Dgi7AIIPuVf3aB91TerfdYwAAAAAAAKgaITkAmFJZgi57VKSD0anq3DroHtPaWEzdt6rXBAAAAAAAgGoSkgOg9rJWVMqzNDQwWdNSFbJIqr8BAAAAAADA4QjJMVX8wAtklaxiVEQVtYMqKlkaGqbfNIbIDnOvGtQvT4XJgwj+AgAAAAAAUBdCcgAAVEaRIbI8yrb8qOAvAAAAAAAAdSIkB0Au0xikKFs4pbWxmLqd51yKeh4AAAAAAAAAqDIhOUZmGpc8AygTSyHCaJhbAAAAAAAAUC9CcozUpJY8Ayg7SyFCt2R1xNbG4qGrJdZhbuX9rlXFawAAAAAAAABJQnIAEOMN8BYV9gGGM03hsKKWT56mcwIAAAAAAIBpISQHQGVlDZ0UVVlK+A0YxD0BAAAAAAAAJkNIDgByevdFe9KHADByWYK/vWHktP0BAAAAAABgko5M+gAAoIqEQwAAAAAAAABgOgjJAQAAAwn+AgAAAAAAUGaWWwUAgJJozs9N+hAAAAAAAACgdITkAKisZOWj1saiSkhAqS38/GvncXN+rmsbAAAAAAAASCckx9D8SAtUifsZjF/e6mgCr+5VAAAAAAAAkEdhIbnZ86tx5f3G7kbzm1i7tdX19zMf34wLx/4ZX39+J1oREctX4/qlpYiI2L7/WXx579lux7T2pGH2BQBgaiTDXjMzM7GzszPU85V1OVKVLwEAAAAAAJiEumS+jhTzNGdjKW7F2sq1WFv5Jp4ufBSXlxN/PnEx3lvo3v7kUsTdl/233/84zp0Y0B4F7QtAbQmcwGSNI7y28POvnX/9tsvC/QoAAAAAAIDxqE/mq6CQ3FZsdhJ8L2L7z+TfTsa5/307nt5/0mmZPf12HG3+GA9f7ttsNuLU6ZOp7UnD7AsA00YYBkajbMG4OmltLE76EAAAAAAAAIiIOmW+CltutePEcpw69iS+f7C7eebjv8epnz6LL3//n/hr4vew7faLzuN2ux1HG8cj2int0V1Cb5h9B5mZmcnctwqGOd8fjje6tpPVYd590T7wNep2revEe0tdjHus5309c7G+fjje6PosnqSs3xeSjN3qGPReVv19rvr5wR5jnbow1qGbOQGjYW5RF8Y6k2LsQX7mDeyrzXwoceYri2JDcstX4/qliLsrX+2m+5avxoX4JtbuPYtYHrxr8mSztBe1b9LOzk6u/mU2MzMz9Pn2q9DSnJ/ret6016jTta6TIsYVlMEkxnre1zMX66V3KdNkOG3SFdWyfF/Y43OkWga9l1V+n41j6sJYpy6MdehmTsBomFvUhbHOpBh7kJ95A/vKOh9yB/tKnvnKorCQ3Oz51bjS+C7WVrZetpyMc/+9FHFsKa6vf/SybSmurL8R/7ofXYm/RqMR8bKYSFp70jD7AgBUUVoYDQAAAAAAACBNXTJfxYTkTlyMDxcfx9efbyUan8Xm59dic29z+Wpc/+9/x9ef34nWiYtx6v/eiTOxFQ/jbCwstOPp5rNoxePY7tOe1HrUv0+WfQEAgPFrbSymbs9++tO4DwcAAAAAAICIWmW+ignJvf5GHD22FFfWP+g0bd//LL68l3LAz+/EP+6vxpX1m3EhIp5+ey02n0dEpLQnS/rl3ZeJUsEGYHiTXi6TamptLAonAQAAAAAAQJ3VKPP1l9nZ2f8M6lDWtXXzqst57hn2fJvzc6nLuuVpp1rqNo+or2kZ672VmZLSwk/ux9WU9fP3MGNmHMe1Z1rmFtllHVPjHnuTZBxTF8Y6dWGsQzdzAkbD3KIujHUmxdiD/Mwb2FfW+VDW4x7GQed8ZIzHQo0JZABUj2qhAAAAAAAAAJRBMcutAgCVYRlOiiRMCQAAAAAAAEyakBwAAENJWz412Wap32rqXVJVwBYAAAAAAIBpJCQHAEBuvRXiktsHBeYAAAAAAAAAxklIDgBKSgUnRu2gcdUv+GZ5VQAAAAAAAGDaHJn0AQAAwxOQAwAAAAAAAID+VJIDAKK1sZi6LYAHAAAAAAAAQJkJyQFAxfUuf5nc7rdcJsBhCNQCAAAAAAAwrSy3CgA1sPDzr6/8G4feCnXT8lwAAAAAAAAA1IdKcgBQA73V5Cin5vyc6n8AAAAAAAAAOQnJAUDFJUNVaSGr5DKJrY1FyybWWG/FvuR277gQvgQAAAAAAADKQEiugoQbABiV3lBUcluFs9GY1mueJXwJAAAAAAAAMA2E5ACAXPqFoVQUG62irrmKgQAAAAAAAEAdCcmVjEotAEyaQNz4jfOaC9IBAAAAAAAAVSMkBwB0GRSKssTm+LnmAAAAAAAAAMMRkhsDP2gDAKOWt9pclgpxqsgBAAAAAAAAVSAkVxGtjcXU7X4/cP9wvCG4B1BD7v3TZVCwLc97Nen3ddKvDwAAAAAAADCIkNyI9P7ondz2QzIAVZY3uD2u55qU1sZi5iVs9+StCgcAAAAAAABAOiG5EfKjNwAc7KAQGQAAAAAAAAAMQ0iuRlS3AwAAAAAAAAAA6qawkNzs+dW48n5jd6P5Tazd2tp9vHw1rl9aioiI7fufxZf3nkXEyTj3t7/HX4/t7f0k7q58FQ9T+/dI65Nl35rbC8PNzMzEzs5ORKhuB0CxklXhVIkrllA7AAAAAAAAUKS6ZL4KCsmdjaW4FWsrzyLibFxe/yguL2/F7Qdn4/LbP8baylcRJy7GJ//3P3Hm3ssLE+341xc3YvN54mlOXIxPLkXcXbkWD+NsXF7/OM49ytgnMuxLbsINAKQZJrDV2lhM3fa5AwAAAAAAADAO9cl8HSnmabZis5PgexHbf+63395LF0ZE/PnvaEdExPE4euyP+KPnZGZPvx1Hmz++vKBb0Ww24tTpk5n6ZNkXAAAAAAAAAACAiDplvgpbbrXjxHKcOvYkvn+wu9kpyffnP+Prz+9Eq9NxKS6s34wL0V0mb7v9otOj3W7H0cbxiOguode3TzvbvoPMzMxkP88hnq9f+y833oy3Vn/r2/+H442u7eTyqO++aOc6jiyPsxzvYdqpB+8/dWGsZ5f3WmXtP83vwS833uzaTlbK6/2893nara7nXWdVfM+reE7Qj7FOXRjr0M2cgNEwt6gLY51JMfYgP/MG9tVmPpQ485VFsSG55atx/VLsrzUbEa17N2LtXuyWzFtfjadf3IjN51txe2UvbbhfJu9Jn6dMXoQ0aX2y7Ju0s7OTq/9hny9ve0T/Je2a83OZjjnZZ+/xzMxM3/aIV5fAS/7Qn1wC7zDnQbX1jiuoKmM9n7zXKmv/sr4Hvcft83SfuVVPVXvPjWPqwlinLox16GZOwGiYW9SFsc6kGHuQn3kD+8o6H3IH+0qe+cqisJDc7PnVuNL4LtZWtvp3eH4nvm9+EAuvR0RXyb2taDY/2m2P6EoCNhqNiD6F0tL6ZNl3mvSG0ZLbyTBaFnn7AwAAAAAAAAAA9VaXzNeRQp7lxMX4cPFxfH2r52ItX43Ly/t93ltox/bvu48vnz/5Snvr0ePYXngnzkRExNlYWGjH00fdpfPS+mTZl2I15+de+QcAAAAAAAAAAJRAjTJfxVSSe/2NOHpsKa6sf9Bp2l1z9qtofnwzrl/abXv67bXYfB4RcSea527G9fVX2/9xfzWuvFy3ttOeLOn3PKVP2r6MRHL51+b8XN/lYAEgrdJpsr21sagiKgAAAAAAAMC41Sjz9ZfZ2dn/DOpQ1rV18yr6PNOCY8n23uVWk5JhgSzPlfWY0iSfJ+txQa+63C/AWC/WoJBcFT6TBp1fUZ/xVWFuVVfeuVzm8KxxTF0Y69SFsQ7dzAkYDXOLujDWmRRjD/Izb2BfWedDWY97GAedczGV5CgF1d8AoFg+TyEb1SMBAAAAAACYJCG5CfJjIQCUT29l1uS2wBwcLGvlyOS278kAAAAAAAAMQ0huSIMqyAxa3hQAONi0BsrTlkgFAAAAAAAAYPoIyY1ImZc2ndZAAgD1luXzyOcWAAAAAAAAAL2E5A7BMmsAAAAAAAAAAADlICR3SJZZAwCK4PsDAAAAAAAAwGgJyZWEH9ABoJwGLf9a5uXZoY7MUwAAAAAAgHISkisBP6ADAAAAAAAAAAAcjpDcGBQZahOQA4DhtDYWB1Z3mxSf8TCdeis6J7fNWwAAAAAAgHIQkgMAABigXxiuNzwHAAAAAADA9Doy6QNg1zRWtImY3uMCAAAAAAAAAADIQiU5AKDUWhuLqdt7Ye8sfQCK8MuNN91XAAAAAAAApoxKcgAAfVhKEQAAAAAAAKAaVJIDAAAYgmqVAAAAAAAA000lOQAAoNZUjgQAAAAAAKg2ITkAAAAAAAAAAAAqS0iupt590Z70IQAAAAAAAAAAAIzca5M+AAAAgGlmOVYAAAAAAIByE5IDACZq9tOfJn0IQA31Bt+S2ws//9r3cXN+rmub4bQ2Fn0GAAAAAAAAYyEkBwAAlFKWkNWgYFu/dlXjAAAAAAAAqqewkNzs+dW48n5jd6P5Tazd2tp9vHw1rl9aioiI7fufxZf3nh2uPWmYfQEAAAAAAAAAAKhN5utIMU9zNpbiVqytXIu1lW/i6cJHcXl5t/3y2z/utn/xz4j3/yfOREScuBifXIq4+7L/9vsfx7kTA9qThtkXAAAotdbGYudfv20AAAAAAACyqk/mq6CQ3FZsdhJ8L2L7z/3223vpwoiIP/8d7YiYPf12HG3+GA9f9mk2G3Hq9MnU9qRh9s3DMksAUA6zn/7U+ddvG6Aoacu2kl3ekGPW/y4TkgQAAAAAgMOoXuYrTWHLrXacWI5Tx57E9w92Nzsl+f78Z3z9+Z1oRcRsRGy3X3R2abfbcbRxPKKd0h7dJfSG2XeQmZmZgdtZ/jZon2lTpmOlPIwr6sJYn15535vDfN6nhTaMi+G5hvX11upvnce/3Hizazsyjou839HH8Z2+LmP6h+ON1L+9+6Kd6Tnyvh+/3HizazsZlOsaP4xMXcY3GOvQzZyA0TAKhXv/AAAgAElEQVS3qAtjnUkx9iA/8wb21WY+lDjzlUWxIbnlq3H9UsTdla9epvsiWvduxNq92C2Nt74aT7+4EU/67Jo82SztRe2btLOzM3A7y98G7TNNZmZmSnOslIdxRV0Y69Nr9tOfIu87k/fzXiWp0TG3SDrMWMj7HX0c3+nrNKb73R+b83OZr0GR70edrvukuGdTF8Y6dDMnYDTMLerCWGdSjD3Iz7yBfWWdD7mDfSXPfGVRWEhu9vxqXGl8F2srW/07PL8T3zc/iIXXdzeTib9GoxHRHtyeNMy+AAAARUou79zaWCztcs/N+TlBYAAAAAAAqJm6ZL6OFPIsJy7Gh4uP4+tbPRdr+WpcXt7v895CO7Z/j2g9ehzbC+/EmYiIOBsLC+14+uhZanvSMPsCAADV15yf6/zrtz1pyWVBedW0v38AAAAAAFAZNcp8FVNJ7vU34uixpbiy/kGnafv+Z/Hlva+i+fHNuH5pt+3pt9di83lExJ34x/3VuLJ+My5kaU+W9Huec18AoPayVnnqDWAkt1VXgnJJW/qTycp6Px7F+6dSHgAAAAAA9KhR5quYkNyDr2LtQf8/Pbx1rbNWbVJn3dos7T3Pn2vfEfEDGwBUk2ANMAq91eOS22VdnnWUJnXfFaQDAAAAAKBWapT5KiYkVzPJH038iAIA1SIQBwzjrdXfYmfSB1Fy/nsLAAAAAAAompDckPxgAwDlMqhik2AGTAeV1abXoCVSAQAAAAAAppWQXEJv5Zjkth/JAQAAilPmsJ2wIAAAAAAAlIuQXI9+YTjLrgEAQPX4nk8erY3F1G2BOQAAAAAAmG5Ccj38UAYAANVneWUAgOmneisAAABQFCG5BD+UAQBA/fjeX2+9/0ep5LaxAQAAAAAA1SAkBwAAQCVlDcD1C8OpMg4AAAAAANUhJAcAADCFsiwvNuwSZFlCZK2NxVdec8+olz8bVMkt+dqDroMAHLwq671DlX0AAAAAoCqE5AAA+vCDMDAJkwikCZHV73wBAAAAAKBuhOQAAAAqrO6VoA4KwCWvTd2vFQAAAAAAVJWQXAo/jAAAANNoksuflo0AHHWUNtaz3juyLMMMAAAAAFA2QnIAAAAAJVZ0sM0yzAAAAABA1QjJAQAATIlkNafWxqLKcCXm/WPcBNsAAAAAANIJyQEAAIyY8NvkWSYSRsM9DQAAAAAoAyE5AACAGlNpCujlvgAAAAAAVI2QHAAAQMX0BlyS28mKasnHzfm50lZbU8UKDpa1omVV7gtAebU2FlO3feYDAAAAhyUkBwAAUEH9gi2DqkMJwrgGkJUACwAAAABQNkJyAAAAY1TVAInlGQEAAAAAgGklJAcAAJRG1uUCGS/LMx6OMQwAr/J9DwAAABiFI5M+AAAAAKpDQA6mX9bAifkM9VHmirC9S0ADAAAA9FNYJbnZ86tx5f3G7kbzm1i7tTWg/WSc+9vf46/H9vZ+EndXvoqHERHLV+P6paWIiNi+/1l8ee/Zqy+W1ifLvgAAAAAAAAAAANQm81VQSO5sLMWtWFt5FhFn4/L6R3F5eStuP0hrj4hox7++uBGbzxNPc+JifHIp4u7KtXgYZ+Py+sdx7lHGPpFhXwAAAAAASq23elxy2/KsAAAAkEd9Ml8FheS2YvPe3uMXsf1nxNGB7cfj6LE/otlzMrOn346jze9204WxFc3mR/He6ZOx+fzZgX2exMH7AgAAkE/yh+bWxmJtf3iu63kDAAAAAFBl9cl8FbbcaseJ5Th17El8/+Cg9qW4sH4zLkR3mbzt9ovOLu12O442jkdE90n37dPOtu8gMzMzmftWQd3Ol/EwrqgLYx1Gw9wir7Qx05yfy9W/SEW+Rt7nSvZP23eY43tr9bcI8zSzLNe6zPe9Mh97FY1izhd5HGVWxXOCfrKM9V9uvLn7fWCMhvk+BGVi7FIXxjqTYuxBfuYN7KvNfChx5iuLYkNyy1fj+qXYX2s2tX0rbq9svfzjfpm8J32eMnkR0qT1ybJv0s7OTq7+ZTYzM1Or82U8jCvqwliH0TC3OIx+Y2bh5187j5vzc13bo1bkOJ799KfI+0zJ1047DvNsfLJc67K+H+7Z02da5nzVxoWxTp1kHevTfl8xZykjnzfUhbHOpBh7kJ95A/vKOh9yB/tKnvnKorCQ3Oz51bjS+C7WOhdicPu+3TJ5C6/vbiWTgI1GI6L96h5pfbLsCwAA1Mc4A3LQ2lhM3d5brjVLHwCgWHVeMh4AAAAOUpfMVzEhuRMX48PFx/H151uZ2y+ffhC37z2LOHEx3ltox9PNiNbvj2P7/96JM7EVD+NsLCy04+lmd+m81qP+fVpx8L4AAABll/yB1w++1dUbpkvyntNP2jLTANNo3NV+AQAAgBQ1ynwVE5J7/Y04emwprqx/0Gnavv9ZfPl7Svu9O9E8dzOur++2Pf32Wmw+j4i4E/+4vxpXXq5b22lPlu57ntInbV8AAKCSBIUGXwOBGaiPSS4zDZBV73eT5HbafWvc3/ey3EPT+gi4AwAAUEo1ynz9ZXZ29j+DOpR1bd286nKee+p2voyHcUVdGOswGuYWVTCN41hgZjLSqvxl/QF92n9ozzLWjb3JGMd1n/bxWaQi7+uqfzLNst47hhnHaa9xmPtW3vtQ1uMWkmNSpvG/I2AUjHUmxdiD/Mwb2FfW+VDW4x7GQedcTCU5AAAA4ECjWi5X+AZG44fjDWHPjLKEi9yrKEqWz9Pe0FpyO+84PEwVPAAAAGC6CMkBAABACRX54z/Ta9DSyYIZTFqW4JB71fQS/MonrQoeAAAAUA5CcgAAAFAwwQ+KJJgx/bIuv1jFgJjxWW5Z3r86jGMAAACg+oTkAAAAgEKoSgQAAAAAwDQSkgMAAAAKo6rUZAkjjo9QKFUwivtza2NxrBXmVLMDAAAAshCSAwAAAIBDEAqlzJLjN23JYAAAAICqEJIDAAAAJmbcFYdgT1ooSIU4qBdzHgAAAOpBSA4AAKDC/LhbTsnQWBVDZK2NxdTtqp0r5bR375yZmYmdnZ2IUCGOaqvi94U8n6V5A7MAAABA+QjJAQAAALn8cLxRyUAFANU0bADb0rQAAABQfkJyAAAAMAEqpsH0UjGKKhHqOpg5DwAAANUnJAcAAAAAL+WpGCVYc7CqLx9dB1newzIvoy1ACAAAAPUgJAcAAAAAOVl+Mb9pD0tVSW+AM7ltrA7H9QMAAIByEpIDAACAihpU5cqP/DB9xl1pLWu4TwW4cur33qp+CAAAANSVkBwAAABUWN6QhDAMVFvWCmPTvnymexUAAAAAeQjJAQAAQM1NexgGijKqJSjLVplx2iuMpQXg3Ksm763V32KnT3vy+g8KME7TOAMAAADqRUgOAAAApljZgh8CEPTKuqTnuOQJiL37oj3qwxmZabvuBxGAq74yjUcAAACgeoTkAAAAgEIkAxBlC+jAKGStrgUAAAAAjJaQHAAAAFA4AbnqEvQCBnGPAAAAAKaRkBwAAAAAjFhVg0OWWAYAAACgDITkAAAAgAP1BmGS26rGUYS6LtHb2lhM3Z72YF2R75elaQ/HtQIAAADIprCQ3Oz51bjyfmN3o/lNrN3aGtgey1fj+qWliIjYvv9ZfHnv2eD2pGH2BQAAAA5lLxAzMzMTOzs7EaGKFAAAAABAmdUl81VQSO5sLMWtWFt5FhFn4/L6R3F5eStuP0hp//1ifHIp4u7KtXgYZ+Py+sdx7tGN2IyU9ueJlzoxxL4AAABQEaouAYcl3AoAAADArvpkvo4U8zRbsdlJ8L2I7T8Ht8+efjuONn+Mhy/7NJuNOHX6ZGp70jD7AgAAQN005+de+Tdps5/+1PnXbxsYnYWff+3867ddJb1L2QIAAADQqz6Zr8KWW+04sRynjj2J7x8MaD8fsd1+0flTu92Oo43jEe2U9uguoTfMvoPMzMxk7lsFdTtfxsO4oi6MdRgNc4sqMI6ZlH5j790X7c7jH443urazjtVkvyyPD+Og/X+58Wa8tfrbUK9RZmnXp0z3m8OMt1HJez0neZ3zvvYPxxtd28lQbHL+D/Mah92niNdI3gdeuS8M8f6V7R7zy403u7aTYcDkeYxqTJfp3jMtXDOyME6oC2OdSTH2ID/zBvbVZj6UOPOVRbEhueWrcf1SxN2Vr16m+/q3z/bZNXmyWdqL2jdpZ2cnV/8ym5mZqdX5Mh7GFXVhrMNomFtUgXHMJGUZe4cZn8l99h73jvVhx32//XsrQCVDIXWrOJd2fct0v8l6rOM4pzzXc9L39cO8dr+KcM35uULH0STfp4P6HPbeUab5NEiWe/Mw5zrpOVFWrhkHMbeoC2OdSTH2ID/zBvaVdT7kDvaVPPOVRWEhudnzq3Gl8V2srWxlak8m/hqNRkR7cHtR+wIAAAAAgyUDZa2NxbGGU6sehG3Oz1VyeVsAAACgnOqS+TpSyLOcuBgfLj6Or29tZWpvPXoc2wvvxJmIiDgbCwvteProWWp7UfsCAABAFZU5UFLmY2c6JZcYpbqqfu8wjgEAAICxqFHmq5hKcq+/EUePLcWV9Q86Tdv3P4svf09pv3cn/nF/Na6s34wLEfH022ux+TwiIqU9Wbrvec59AQAAgIGyVowS2qBovWMqua3S1uhlvcZVD6SNg7EOAAAATKUaZb6KCck9+CrWHvT7Q1p7ROvejVi7l7G95/lz7QsAAAAMLRnisFQgReo3luoUyJzksqaM10FjXZAOAAAAGLsaZb6KCckBAAAAwIhVPURW5XMjm7qHRgEAAABGRUgOAAAAgEKpiDVaVQ8LAgAAAEDRhOQAAAAAKFzWilgHVclqbSymbtcpKOY61IOqceVlHgIAAMB0E5IDAAAAcnn3RXvSh0BFJIN0zfk5VeaotIMCcOYDAAAAwOgIyQEAAAAdKuFQFBWxYF+RAbjkfdrSu3Cw3kqcSeYPAABAfQjJAQAAAFCocVfE6g3kJbdV46Ify9cCAAAA1IuQHAAAANSAoND0UglqV9oYzVo1q9/+/arZqXDHYYx7+dOsr+XeAQAAAJCNkBwAAADAmKliNRnjrnAHkyQQCgAAALBPSA4AAABgigm6ZOM67ar7dchaebDqBEIBAAAAugnJAQAAAEwpwZZsBIJ21fW8AQAAAOAgRyZ9AAAAAABQFEExoEp6l+cGAAAADkdIDgAAAGBE6r705TQTpqMujPXp5TMCAAAAxsdyqwAAAAAw5WY//WnSh1A603rNhNYAAAAAxk9IDgAAAKBAvZWBktt1DMfU8Zypp9bG4tQG8wAAAADqTkgOAAAAoGD9gmGW1QMgS5C6tbHY1Se5LYgJAAAAhyMkBwAAAEydZAggS3WmSVRwas7PqZIGFaYqJKMiSA0AAADjJyQHAAAATLUqVs2p4jlBFQkzAQAAAFSDkBwAAABQSpajA6CMBC0BAABg/ITkAAAAAABgDJLVCYtatnsSS44DAABA2RyZ9AEAAAAAQBZCIACj1VulFQAAAKqisEpys+dX48r7jd2N5jexdmtr/4/LV+P6pYi7K1/Fw4iIOBnn/vb3+OuxvQ5P9v+2fDWuX1qKiIjt+5/Fl/eevfpiaX2y7AsAAAAA1FoycKkKFwAAAFBndcl8FRSSOxtLcSvWVp5FxNm4vP5RXF7eitsPXl6YaMd2/NGzTzv+9cWN2HyeaDpxMT65FHF35Vo8jLNxef3jOPcoY5/IsC8AAADAEJrzc6nbRSyZB4zfoIBc75wHAAAAqJb6ZL4KWm51KzY7Cb4Xsf3nXvuz2Pz8Wqz9v8c9/Y/H0WN/xB89JzN7+u042vzxZfJwK5rNRpw6fTJTnyz7AgAAAAxr4edfX/kHVE/vHDfnKTuhTwAAAF5Vn8xXYcutdpxYjlPHnsT3Dw7quBQX1m/Gheguk7fdftHp0W6342jjeER0l9Dr26edbd9BZmZmMvetgrqdL+NhXFEXxjqMhrlFFRjH1MW0j/VRHl/acyfb04II037deJX3jIiId1+0+46FX2682bXd2ljsPH5r9beRH9ckmBPFyns9s3wGDft6dXqPp+lcp+lYYJSMdSbF2IP8zBvYV5v5UOLMVxbFhuReWYc2zVbcXtlbv3a/TN6TPj2TFyFNWp8s+ybt7Ozk6l9mMzMztTpfxsO4oi6MdRgNc4sqMI6pizKM9VEeX9pz77Unq0w15+dUnSqxMox1plcVx445Ubx+1zO5BHBrY7FrO+3qp70vvaHtH443Oo/TPp/q9B5Py7maW9SFsc6kGHuQn3kD+8o6H3IH+0qe+cqisJDc7PnVuNL4LtY6FyKrrWg2P4qF13e3kknARqMR0X51j7Q+WfYFAAAAGBcBOQAmrd9nUTI8l6yA2LudDOgBAABQTXXJfB0p5FlOXIwPFx/H17cyXqwTF+Py+ZOdx+8ttGP794jWo8exvfBOnImIiLOxsNCOp4+6S+el9cmyLwAAAAAAAAAAAFGrzFcxleRefyOOHluKK+sfdJqSa86+4vmdaJ67GdfXdzeffnstNp9HRNyJf9xfjSsv163ttCdL+j1P6ZO2LwAAAMABepejS1INDkgzaFlMoNrMeQAAoBJqlPn6y+zs7H8GdSjr2rp51eU899TtfBkP44q6MNZhNMwtqsA4pi6mZaz3Lg+XlPajddoP2s35udTl6JLtWftRDdMy1imHOgRmzIliZfnsSBtXWT8Ds3xuHebztExGdX5Fznlzi7ow1pkUYw/yM29gX1nnQ1mPexgHnXMxy60CAAAAAAAAAADAFBKSAwAAAAAYUhUqbgEAAABU1WuTPgAAAACAUepdZi25fZhQS3N+buhjAgDLdAMAAMD4CMkBAAAAZJQMNDTn5wQcAKCCfMYDAABUj5AcAAAAAACUSLISamtj0XK/AAAAcAAhOQAAAIBDUGEGgGlwUEDOMuEAAAAgJAcAAACUlCo6AFTdsJ9tlgkHAACAXUcmfQAAAAAAAAAAAAAwKkJyAAAAAAAAAAAAVJblVgEAAIDSs9QqADBqrY3F1O1p+C5i+XkAAIB0QnIAAABApSV/LB7043Fzfm5chwQAkEtzfi4Wfv510ocBAAD/n737i43ruu9F/5WS3KQhkBObMpWxruqyMQUeKrJcxq0aGDFqWAkiA7Vu0KPooH7QQ4UKVygEG0YeCEhPEqAHw1AgBAZ04T7oIUXUnCLXKhClCXtTqDAato6OZVXqQHbq+OjKtCnTcQsoSW+a+D7wj4bUDDVDzv/9+QAEuPdee3PtPb81lDlfrwU9S0gOAAAAKLzKD519CA0AAAAA0F+E5AAAAAAAgEJbPqNs5fZqw/P1Ln/6+rH7qrZrRZ8AAACKSkgOAAAAKIx6Pqj2oTMARVLP78aiqPZvgE4vx96NfQIAAOhFQnIAAAAAAEDd6p0hrd9U3nNRnwEAAECvEpIDAAAAAADoQdMnxmpuC/EBAADcIiQHAAAAAAB9znLi7SG0BgAA0J2E5AAAAAAAgBUJfy3Vrnsujwy35ecAAAD0OyE5AAAAAACANqondFg5+195ZLjqbICVYb3pE2OFDCwCAADUY32nOwAAAAAAAAAAAACt0rSZ5Eq7Dmf/I0NzG+Vv5OjpqVsHxw/kyJ7k7MSpXFyyb2uSZPb8s3n+3LWV91day7kAAAAAAEBLmdWs/ep93l4bAACgUlEyX00Kye3I1pzO0YlrSXZk7/Ens3d8KmcubM7OZ76az2Ums7lxq/mm3Tm4Jzk7cSgXsyN7j+/LzlePZTI19l9Pc84FAAAAAAAomHqWdwUAAIqoOJmvJi23OpXJxQTfW5l9d2H/tUw+dyhHv3lpSevSA9syWH5lPmE4lXJ5KFse2Fxzf7POBQAAAAAAaJXS01cWv6ptAwAAdJfiZL6attzqok3j2bLhcl66sHKz2Zm3Fr+fmZnJ4NC9yUyN/bnWtHNXMjAwUHfbflC0+6U91BVFodahNYwt+oE6pijUOkWh1mEpY4JqFuri9WP3LdlfOVvZ/YffbGuf6rG8nmvV92rr/v7DbyY1zq18Hq8fu2/p82lyP+6k2nVv6xM0id8jdIrag8YZN3BLYcZDD2e+6tHckFy1dWjrVHmz9exv1rmVbt682VD7XjYwMFCo+6U91BVFodahNYwt+oE6pijUOkWh1mEpY4Ja6qmLbqyd5X2q1cd29L3Vz7ByJrvpE2NLtm9W7K9UGXo0Ex7N4PcInaL2oHHGDdzSq+Oh4WBfj2e+6tGk5VaT0q7DObLtlRyt82HNJf7mDA0N3XF/s84FAAAAAAAAAACgOJmv5oTkNu3Ol8cu5YXTU3U1n371UmZHH8z2JMmOjI7O5Oqr12rub9a5AAAAAAAAAAAApFCZr+Yst7rxUxncsDX7jz+2uGv2/LN5/lyNDl9/Md8+fzj7j5/ME0mufutQJq8nSY39lVP6NXouAAAAAAAAAAAASxUo87WuVCp9sFKDXl1bt1FFuc8FRbtf2kNdURRqHVrD2KIfqGOKQq1TFGodljImim36xFjNY6Wnr9Tdpt3q7VN5ZDijr71xW5ta+5upnrHVzH5Mnxir+np04+tHf/F7hE5Re9A44wZu6dXx0Kv9Xos73XNzllsFAAAAAAAAAACALiQkBwAAAAAA0MVaPZsdAABAv/twpzsAAAAAAAD0vsolOWst6UnneV0AAIAiEpIDAAAAAABW1MlgVXlk2ExqAAAArImQHAAAAAAA0BbTJ8ZqHjPDGQAAAK2yvtMdAAAAAAAAAAAAgFYRkgMAAAAAAAAAAKBvCckBAAAAAADQEuWR4U53AQAAQEgOAAAAAAAAAACA/iUkBwAAAAAAAAAAQN8SkgMAAAAAAAAAAKBvCckBAAAAAAAAAADQt4TkAAAAAAAAAAAA6FtCcgAAAAAAAAAAAPStD3e6AwAAAAAAAJXKI8M1t0dfe6Pd3aHFpk+MpfT0lU53AwAA6GNCcgAAAAAAQNepFoZbHp6jOwk5AgAA3UZIDgAAAAAAgKa6U8hx+sTYkmOV22aVAwAAmm19pzsAAAAAAACwFssDVwAAAFDJTHIAAAAAAEBfqpyRbPrEmBnKmqw8Mmz5VAAAoCcIyQEAAAAAABScACEAANDPmhaSK+06nP2PDM1tlL+Ro6en5r4fP5Aje7YmSWbPP5vnz11Lsjk7n/lqPrdh4ezLOTtxKhdrtl+mVpt6zgUAAAAAAHre8iVWK7erBb7uFAIrjww3p2O0jNkAAQCg+YqS+WpSSG5HtuZ0jk5cS7Ije48/mb3jUznzzu4c3JOcnTiUi9mRvcf3ZeerxzJ5PUlm8g9fX/h+3qaV2t+hTeo4FwAAAAAAYBlLhgIAAMVUnMzX+uZcZiqTiwm+tzL77tx3pQe2ZbD8ylxaMFMpl4ey5YHNSe7N4IYbubHsZmq3v3Obes4FAAAAAAB6Q3lk+LYvAAAAmqk4ma+mLbe6aNN4tmy4nJcuJNmVzM68tXhoZmYmg0P3zm9tzRPHT+aJLJ0mr3r7pVPoVW0zU9+5KxkYGKi7bT8o2v3SHuqKolDr0BrGFv1AHVMUap2iUOuwlDFBIxqtl8r2n31rZvH7H907tGS7nuv2Wq32Un9/dO/Qku3K8GLl61Qr1Lhwr/cffnNx3+vH7luynRWeRy89K27n9aNT1B40zriBWwozHno481WP5obkxg/kyJ4srjVbqtJk7qau5czE/Pq1FdPkXa7ZfmW12tRzbqWbN2821L6XDQwMFOp+aQ91RVGodWgNY4t+oI4pCrVOUah1WMqYoBGlp6+k0WpZqb4arb1eqtVeHFvVlqctjwwv3kfl8fLI8B2Xs22kXnrtWXFLL9Y6/UHtQeOMG7ilV8dDw8G+Hs981aNpIbnSrsPZP/T9HF18EHMqk31DQ0PJzPIzp1IuP5nRjfW2r92mnnMBAAAAAABYvXYufTt9YqzmdunpK23rBwAA9KuiZL7WN+Uqm3bny2OX8sLppQ9r+tVLmR19MNuTJDsyOjqTq69eSzbtzt5dmxfPfXh0JrPvrNC+jmvWcy4AAAAAAACrN/raG4tf1bYBAIAeUqDMV3Nmktv4qQxu2Jr9xx9b3DW35uyL+fb5w9k/vw7t1W8dyuT1JHkx5Z0nc+T4XNvK/VXbV07pd732NavvBwAAAAAAAAAAYIkCZb7WlUqlD1Zq0Ktr6zaqKPe5oGj3S3uoK4pCrUNrGFv0A3VMUah1ikKtw1LGBM2wfOnMSo0undnMa3VSL4+t8shwy2eQ65fXmd6udXqb2oPGGTdwS6+Oh17t91rc6Z6bM5McAAAAAABAG1UGpKZPjAlMAQAAUJOQHAAAAAAA0BaCbAAAAHTC+k53AAAAAAAAgN7T6qVWAXpReWS4rddaaVlqAOAWITkAAAAAAABYpplBF4AiEdwDoBtZbhUAAAAAAAAAVml5qLZyu9qsm9MnxvpuCfLlwbjK7X67VwB6k5AcAAAAAADQ03z4DkCnVQvDmZESALqH5VYBAAAAAACA2wj4AADQL8wkBwAAAAAAQFeqnCWwH5cnBAAA2kNIDgAAAAAAgL4gSAd0q+kTYzW3e+l9y/ssAL3KcqsAAAAAAAAUxvKgCkA3KY8ML35V224l748A9DMzyQEAAAAAANCz+mV2JupXHhnO6GtvrLkNdKtqtduOkBwA9DMhOQAAAAAAAMjtIZTKbYGr6rpp6UWvH92scpysddwIBwNA44TkAAAAAAAAYN6dZnBaaTlC4ZTOMwMXNEbgDoCiEJIDAAAAAAAA+oJAHP1AHQNA8wnJAQAAAAAAQA8ojwxXnSmtX2a3W+sSlJXPptazgm6njlunm5aHBqD9hOQAAAAAAADoekUNNiyfUapyu1PhGcszQmdVjrNuCX7V26d+CfUC0HuE5AAAAAAAAKCLVQvDWY4RqFe3BOkAoJOE5AAAAAAAAOhZ9cxeZOYzAAAoNiE5AAAAAAAAKBgzS0Hn1Dv26llSea3jWNAYgKIQkgMAAAAAAAKtjRQAACAASURBVACS3L6Ma+V2PYGdWl4/dl/XhWkEBelnnQy2GVcAdKOmheRKuw5n/yNDcxvlb+To6am578cP5MierUmS2fPP5vlz11a3v9JazgUAAAAAAIA+Us9MUI2oFoZbHp5rlnqDPM0K75kRCwBgqaJkvpoUktuRrTmdoxPXkuzI3uNPZu/4VM68szsH9yRnJw7lYnZk7/F92fnqsUymwf3XK37UpjWcCwAAAAAAAG3Uj7OVNTuUV692hveAWzo15gFoh+JkvpoUkpvK5LmF79/K7LvJYJLSA9syWP5+Ls63KZefzMMPbM7lNLZ/8vqtdGCj16w8FwAAAAAAgP5VK7jRzIBHPdfq1tnK2t2vTj6HtSwNC/1AsG1Ot74fA3SP4mS+mrbc6qJN49my4XJeupBkVzI789bioZmZmQwO3ZvMNLg/S296LeeuZGBgoP777ANFu1/aQ11RFGodWsPYoh+oY4pCrVMUah2WMiagNYyt9lvpmdc61uj+1fzsZvTp/sNvJmv8Ga1+BvWes7xNrVnjmjWGjMX+1Y7XtpnjoxXq7cdqxmaztPtZdctr0608H7ilMOOhhzNf9WhuSG78QI7sSc5OnMrFJKUqTSpvai37m3VupZs3bzbUvpcNDAwU6n5pD3VFUah1aA1ji36gjikKtU5RqHVYypiA1jC2OmOlZ17rWKP7V/Ozm9Wn1ai8VqufQb3nVLapnBmuPDLckpnijMX+1K732XaM07Wotx+Njs1mWu11V/ue0C2vTTfy7xO4pVfHQ8PBvh7PfNWjaSG50q7D2T/0/RydmFqyvzLZNzQ0lMysbv9argkAAAAAAAD1qDVbGf1hNUtQFnmpSvpDvfWrzgGKqSiZr+aE5DbtzpfHLuWF55Y+rOlXL2X2zx7M9kzlYnZkdHQmVyevZTqN7V/LNQEAAAAAAGDBSiGQRmcr69dASSNBwZWewWoCafVoxSxyy02fGKu53a+vO9RD/QP0mQJlvpoTktv4qQxu2Jr9xx9b3DV7/tk8f+7FfPv84ew/fjJPJLn6rUOZvJ4kDe6vnNLveqPXBAAAAAAAgMa0I4jVjdqxrCnAWi0P81Zue98CaECBMl/rSqXSBys16NW1dRtVlPtcULT7pT3UFUWh1qE1jC36gTqmKNQ6RaHWYSljAlrD2OpPy2chq1RrFqZaM63VCqqtJsDWaL+aGZKrdX+reVbNstLsdp3sF83VjvfZZo7TftessVXvMzeWV8e/T+CWXh0PvdrvtbjTPTdnJjkAAAAAAACgqzW6/KlwD9BpgoYANIuQHAAAAAAAABRMt8yg1GhwD+h/9S6lurwdAKxESA4AAAAAAACaSNBrdTw3YEGtpVSrHTfbHAD1EJIDAAAAAACADpg+MVZzW2Cs9Tzj7tWLoSezmgFAdxOSAwAAAAAAAIBV6rVAX5FY0hmABes73QEAAAAAAAAAgFaqJyC3fIZPAPqHmeQAAAAAAAAA6Kjly5VWbpupDQBYKyE5AAAAAAAAADquWhhueXiukuUze4/XC4BOEZIDAAAAAAAAoCcsXw6zcrvVAazyyLBZ7QCgRwnJAQAAAAAAAC11/+E3c7PTnYAazEhXbJ0MXgLQPkJyAAAAAAAAAPSl14/dJ+jUg1ZaZhcAVkNIDgAAAAAAAGANzETWXcwM1tssaQtAKwjJAQAAAAAAAEAVy2c0q9wW5uoOXgcA6iEkBwAAAAAAAB1Q74xWlh2EWyrHTbtm8KsWwjIuAaC3CMkBAAAAAABAl6oM55RHhs2Y1EUs6dnbvH4AUCzrO90BAAAAAAAAAAAAaBUzyQEAAAAAAEAPMIscQOestMTuwvvz8hkKK5mhEKCzhOQAAAAAAAAAAO6gWlh5pfAcAN1DSA4AAAAAAACgQZWzQk2fGDNLVBfx2gAAy63vdAcAAAAAAAAAoFHCbwBAvZo7k9z4gRzZk5ydOJWL87tKuw5n/yNDSZLZ88/m+XPXkmzOzme+ms9tWDjx8q1zxg/kyJ6ty9pX+zlV2tRzLgAAAAAAAMAKzEQGABRKATJfTQrJzT+AzGQ2N27tHj+Q/WOX8sLEi5nOjuw9vi87Xz2WyetJMpN/+PrC9/M27c7BPcnZiUO5eFv7O7RJHecCAAAAAAAAtMn0ibGaxwTvAIDOK07mq0nLrV7L5HOHcvSbl5bsLW28J7NXLmQ6STKVcnkogxuT5N4MbriRG8tupvTAtgyWX5lPJM613/LA5rra1HMuAAAAAAAAAAAASZEyX81dbnWZ6XduZPDR8ZTOXct0NueeDcngxoWb2Jonjp/ME1k6Td7szFuL58/MzGRw6N4kS6fQq9pmpr5zVzIwMNDoLfa0ot0v7aGuKAq1Dq1hbNEP1DFFodYpCrUOSxkT0BrGFkXRy7VeT98bvb9efh6tUuuZrPVZrfW1aVW/6A73H36z9sEm1kKv1Uuv9RdaqYjjodcyX/VoaUguF07l7LaT2X/8sSQzuVqemT8wlTMTU/Pf35om73KVS1Q+hFpqtann3Eo3b95sqH0vGxgYKNT90h7qiqJQ69Aaxhb9QB1TFGqdolDrsJQxAa1hbFEUvVzrpaev5E49r6fNcr36PFqp1jNZy7O6//CbDZ+/vH0r+kVvWkst9FK99PJ7NjRbr46HNQf7eizzVY/WhuSSXDx9aH46vM3Z+cy+zE4uT/lNpVx+MqMb57Yqk4BDQ0PJTG5Tq0095wIAAAAAAAAANKo8MtzpLgC0Tb9lvtY3/5I1jD+ez+VSLl9Psml39u6an4Jv0+48PDqT2XeS6VcvZXb0wWxPkuzI6OhMrr669AHXalPPuQAAAAAAAADQiPLI8G1fFM/oa28sflXbBuhbfZL5avFMcjuy9/iT2ZIkuZyzEy9mOkmuv5jyzpM5cnyu1dVvHcrk9SR5Md8+fzj759etXdw/fiBH9iRnJ07l4vUabWqdCwAAAAAAAACrIAAFQDH1X+ZrXalU+mClBr26tm6jinKfC4p2v7SHuqIo1Dq0hrFFP1DHFIVapyjUOixlTEBrGFsURVFrffrEWM1jpaevtLEn3a88Mlw1kFZrf71q1Z7XhrWoVZetqqu1joNGFfU9G6rp1fHQq/1eizvdc4tnkgMAAAAAAACA7lIZWJo+MSYYR0PaEVhbvqxv5bYZDgEaJyQHAAAAAAAA0AKrCWL1e2Cr3TNi1aOfnzftVc+Yb2S2uVqzK1bT7+8dAGslJAcAAAAAAAAA0GOWB+4qtwXmAJYSkgMAAAAAAABoMYGVO6s1Qxb0om4c8/XO5Pije4e6bsZHgLUSkgMAAAAAAACgoyoDOd24JCsA0NuE5AAAAAAAAABomeUzxFVuVwvDCcgBAM0mJAcAAAAAAABAS1ULvlleFQBoFyE5AAAAAAAAAIACa3TGx+kTYyk9faXl/QJoFiE5AAAAAAAAgA6aPjFWc1sIBfpL5ZjutqDZQhhuYGAgN2/eTGLGR6B/CMkBAAAAAAAA9JBuC9YArdGMgFqjM8StRKAX6GVCcgAAAAAAAAAAXaQywFYeGW440FbrWpXXrGcfQL8QkgMAAAAAAAAAKLBmhvK6Xb/fH1Dd+k53AAAAAAAAAAAAAFrFTHIAAAAAAAAAAF2q1qxnpaevLH4/fWJsyTZLLV9KtnLbrHJQDEJyAAAAAAAAAABt1sxQ20rXWh4QK6pqYTjPBopDSA4AAAAAAAAAoA9VBsPKI8NmTauTmfmg/wjJAQAAAAAAAHSQJROBdhCQA4pMSA4AAAAAAACgSwjIAXTG9Imxmtvem6H3CckBAAAAAAAAALAis14CvWx9pzsAAAAAAAAAAEDvqCcgt3xmNoBOau5McuMHcmRPcnbiVC7O7yrtOpz9jwwlSWbPP5vnz12raLu1/v23/ZxVngsAAAAAAAAAAMCcAmS+mjST3ObsfOZkjjx6T2Yrd48fyP6xS3lh4lCOTnwjs4/sy85NSTbtzsE9ydl691day7kAAAAAAAAAANT02bdmOt2Fjig9fWXxq9o29KfiZL6aFJK7lsnnDuXoNy8t2VvaeE9mr1zIdJJkKuXyUAY3JqUHtmWw/Mp88nBu/5YHNtfcv+SaazgXAAAAAAAAAIDWmD4xtvhVbbvf9Ot9USTFyXw1d7nVZabfuZHBR8dTOnct09mcezYkgxvnbmJ25q3FdjMzMxkcujeZqbE/S6fQW8u5KxkYGGjwDntb0e6X9lBXFIVah9YwtugH6piiUOsUhVqHpYwJaA1ji6JQ62vz+rH7lmxXBjPuP/xmu7vTsFqvfzvqQu1B41oxbmpd80f3DrVl9rpG34dq7e/192MaV8TfI72W+apHS0NyuXAqZ7edzP7jjyWZydVy7Te1yputZ3+zzq108+bNhtr3soGBgULdL+2hrigKtQ6tYWzRD9QxRaHWKQq1DksZE9AaxhZFodZbqxeeba0+trrvag8a16pxs9I1m/HzyiPDGX3tjYZ/RrX9paevZDU98n7TW+5UM0nv/h5Zc7CvxzJf9WhtSC7JxdOH5qfD25ydz+zL7OS15IEsSfwNDQ0l88+y1v5KazkXAAAAAAAAAADaYfrEWEpPX+l0N6Bh/Zb5Wt/8S9Yw/ng+l0u5fD2ZfvVSZkcfzPYkyY6Mjs7k6qvXau6vtJZzAQAAAAAAAHpR6ekri1/VtlupcilBAKBg+iTz1eKZ5HZk7/EnsyVJcjlnJ17MdJJcfzHfPn84+4+fzBNJrn7rUCavJ0mN/eMHcmRPcnbiVC42ei4AAAAAAABAAawUZjOLEdCPyiPDNbfvtIwmsJL+y3ytK5VKH6zUoFfX1m1UUe5zQdHul/ZQVxSFWofWMLboB+qYolDrFIVah6WMCWgNY4uiUOvtsZqQXHlkuGqQpJmBu1o/o9b+ZlJ70Li1jJtmvg/Vo973l2a+DzV6j5Zb7S7Lg5WVqtVCr/4e6dV+r8Wd7rnFM8kBAAAAAAAAAMDqtSNUS3HUCkwuMDNrf1rf6Q4AAAAAAAAAAAA0w0qzxVFcZpIDAAAAAAAAAIAmWT4TWeW2mcigM8wkBwAAAAAAAAAAQN8ykxwAAAAAAAAAAG2zfDnMyu3R195Y07UAqhGSAwAAAAAAACiQZoZTAFar2vtNo4G3ymuUR4ZXfA8TputvjfxuUwvFJCQHAAAAAAAAUDDNCKcA9IpGwnSdMH1iLKWnr3S6Gz2vnt9t3V4LtI6QHAAAAAAAAABrImgANJtZL2k1dVQsQnIAAAAAAAAANEyABWg1s14CzSIkBwAAAAAAAMCqCLAAreT9BGgWITkAAAAAAACAghE8AbpdZQjXks7AWgnJAQAAAAAAABSI4AnQKqWnryx+P31ibMl2q7XrvaxZ9zh9YqzmdjufGxSFkBwAAAAAAAAALWXmOiieOwW9+uF9QZgNeoeQHAAAAAAAAAAtY+Y6YDnvC0C7re90BwAAAAAAAAAAKKZ2B+QE8qCYzCQHAAAAAAAA0Acql/2bPjG2pmUAm3ktAIBOM5McAAAAAAAAADU1MyBnBicAoBPMJAcAAAAAAAAAQNfqtYCt2Tih+5hJDgAAAAAAAKCgei14AtBrBOSgOwjJAQAAAAAAAAAArML0ibFOd4E6NHe51fEDObInOTtxKhfnd5V2Hc7+R4bmNsrfyNHTU0k2Z+czX83nNiycePnWOeMHcmTP1iTJ7Pln8/y5azV+TpU29ZwLAAAAAAAAAABQRSGXyy1A5qtJIbn5B5CZzObGrd2bdufLj9zI2YljuTjfZu/4VM5cSJKZ/MPXj2Xyepa0P7gnOTtxKBezI3uP78vOV+tskzrOBQAAAAAAACiAQnygDwAtdv/hN3Oz051oqeJkvpq03Oq1TD53KEe/eWnp7utvZ7Zq+3szuOFGbiy7mdID2zJYfmU+kTiVcnkoWx7YXFebes4FAAAAAAAAoHnKI8O3fQFAv5s+Mbb4VW27dxQn89Xc5VZvM5Uz33owR46fzBOZnw7vwsKxrXmicv/8NHmzM28tnj0zM5PBoXuTLJ1Cr2qbmfrOXcnAwEBjt9fjina/tIe6oijUOrSGsUU/UMcUhVqnKNQ6LGVMQGsYWxSFWu8/n31rZvH7H907tGS7m17vbuoL9ArjprN66fm/fuy+3H/4zU53I0nt57bW59no+b30+tXWW5mverQ2JLdpdw4++nZemDiV6YWp9945lDMXpnJmYmq+0a1p8i5XuUTlQ6ilVpt6zq1082Z/T5BYaWBgoFD3S3uoK4pCrUNrGFv0A3VMUah1ikKtw1LGBLSGsUVRqPVi6MbXWO1B44yb9qhcFnv6xNiS7V57+t1SL7X6sZb+rWY8dMPzWHNQr8cyX/Vo0nKr1ZUe2JZcuZDpJMm1TP7gcrZs27Gs1dw0eYMb57bmkoBzhoaGql63Vpt6zgUAAAAAAAAAgF7Te0t50qv6MfPV0pDc9Ds3Mjg2nlKSZHN2Prp1Lum3aXf27ppfO3bT7jw8OpPZd5LpVy9ldvTBbE+S7Mjo6Eyuvrp06rxabeo5FwAAAAAAAAAAgNr6MfPV2uVWL5zK2W0ns//4Y3Pb7/5tXjh3Lcm1lHeezJHjc7uvfutQJq8nyYv59vnD2T+/bu3i/vEDObInOTtxKhev12hT61wAAAAAAAAAAOhSlUutQlfow8zXulKp9MFKDYqy1nRR7nNB0e6X9lBXFIVah9YwtugH6piiUOsUhVqHpYwJaA1ji6JQ6/2vPDKc0dfe6HQ3bqP2oHHGTfeaPjHW1kBdPe/t7e5TLbX6utbfT7XGw0pL33bD8yjiOL7TPbd2JjkAAAAAAAAA+l43BuQA+sHyMFbldrUwVjeGlruxTxTP+k53AAAAAAAAAAAAAFpFSA4AAAAAAAAAAIC+ZblVAAAAAAAAAACAOlUudTt9Yqzq0rfL1duO1hCSAwAAAAAAAACAglgprFUeGa65PfraG3X/jGZdp9dNnxiruS0w115CcgAAAAAAAAAA0McaCWtVC7EtD73Vo9HrmGmNVhKSAwAAAAAAAACAHtXuWduaOTuamdZoFyE5AAAAAAAAAADoYc2a/Q361fpOdwAAAAAAAAAAAABaRUgOAAAAAAAAAABgFSwL2xsstwoAAAAAAAAAANSlMhQ2fWJMSIyeICQHAAAAAAAAAAA0VXlkuNNdgEVCcgAAAAAAAAAA0IXqnbWt2wJpo6+9sfh9eWR4yfZamLmO1ao7JHf/Zx5qZT86bvqNf+l0FwAAAAAAAAAAoCGtCqQ1S7f1pwhKw/+1011oq9f/+eU7tlnfhn4AAAAAAAAAAABAR1huFQAAAAAAAAAAulxRlxmdPjFWc7uoz4TGmUkOAAAAAAAAAAD6gKVNoTohOQAAAAAAAAAAoGFmcqNXNH+51U//R/7+D5LP/PlHc9f8rp8/9Iu8vP3XcxtvfjSfn/xQRdtfJUk+cfFj2f7y+hWvs+CnO3+Wf75v6b5b5/861//bL/Kv/yVJ1ue3v/2xbHqvmTcIAAAAAAAAAADQBwqS9WpiSG6+w1mfT2Tdrd13/zJXt6/LZ/7847lrvs1rn/54Rn76y1z8g8zv/1Ve+5P/L9f/9WPZ9F6N61S4a/Lj+fzi1q/y2p/8ZzbMP/Sf7vxF3v3Jx/L5l02SBwAAAAAAAAAA3apyJrrpE2NVZ6arp02SlEeGm9/BvlasrFcTr74+m/7Hx/P5/+dDS3e/tz4fr9L657/9q/z7mx+eTw5+KBve/HXe/e1f175ODT9/6Jf52cWPzF3n7l/mf33yI9kiIAcAAAAAAAAAAIUw+tobi1/VtqmmWFmv5i+3epsPZeTv/jN//yc/SzI/Vd6Pk58/lHzi/VvpwY+9vz7//skPGrz2r/L/bl+X3/zz+Qd116/z7++vz3v/7WdzU/D920fy0P/4SH6jOTcCAAAAAAAAAAB0McG4terPrFfrQ3J3/zIXf2d9Hvrzj+Y3Fqbg++nH879XaVr5IOvx84d+mbff/EhGFrbv+iC571fJtz+ez783t57t1Yc+tHT92xr+74dnb9v3he99LEny/S/+og+P/aKL+uJYvxwr3jhyrKjH/o+XBrqmL4451s3HqjG2HOv/Y79Y4Vg39dMxxxxzzLH6jnXX30+q6ab+Odb/x/ztxzHHWnPMfw87Vpxjv+iivtTWTf1zrH9rzzHHHHOsI8fmlyiteiy3zruWf8n3K1YtXbjmteGl+1vSz3MXlvSlKdfs9LFzF2of+2Lr+vJ/vnVbs/r1SNarUetKpdKKkb6BgYHcvHkz93/mofquePcvc/HLv85v/vlHc1eSnz/0i1zN/3ar85/+j/z98Ifz0Pu/zMuf/Eg+Pzk31d5Pd/4s/+v9j91qt+w6t5t7EX72Pz+ekR9nybUXrnnb9gqm3/iX+u4PAAAAAAAAAAD60I/uHcpn35qpe3+7vX7svtx/+M1Od2NV2tn30vB/rb9xj2a9Kr3+zy8vZtxqaflMcr/x03X599/5VX7+8vq5dOHv/Cqf+MlH8hv/+qF84sv/mZ/mQ7krv8q7963PhgsNpADv/lXe/S8fym/+uGLfT9fnE3+wcM3kp8O/yife/0jdl1zpQfWbOxUGrIa6oijUOrSGsUU/UMcUhVqnKNQ6LGVMQGsYWxSFWqdT1B40zrih1uvfLXXRzn40ezx0yzNcSS9lvRrR+uVWf/zRfGb4Z3n5T345t/1vH8lDL69Psj5bLv4iL8+vX/upv/t4Nr23wnU+/R/5+z9IPrOQNrzr1/n3f1s/P8nivPc+ku1/9x+La+LmzY/m8y2Yfg8AAAAAAAAAAPpReWT4zo3oX32a9Wr+cqs9avqNf+mJtGazSH7TCuqKolDr0BrGFv1AHVMUap2iUOuwlDEBrWFsURRqnU5Re9A444YF5ZHhjL72Rqe70VHNHA/TJ8ZSevpKU651J/2e81qunuVWTbMGAAAAAAAAAADQQu0KyFGdkBwAAAAAAAAAALBoaGgoj/ybGQXpHx/udAcAAAAAAAAAAIDOGhoaWvx+Zmamgz2B5hOSAwAAAAAAAACAAhKMoyjqDsm9/s8vt7IfHTcwMNDpLgAAAAAAAAAAQEsJxvW/6Tf+JTdvWi63kpnkAAAAAAAAAACgjwnGUXRCcgAAAAAAAAAA0GcE4+AWITkAAAAAAAAAAEiS8QM5sic5O3EqF5Ns33cyT4wubTJ7/tk8f+5aSrsOZ/8jQ0v2JVmyP+Vv5OjpqRo/Z+vqzl2BYBxUJyQHAAAAAAAAAEDBbc7OZ76az2Ums7mxuPfi6UO5uLi1I3uPP5jyuWvJ+IHsH7uUFyZezHR2ZO/xfdn56rFMXt+RrTmdoxPX5ts/mb3jUzlzofJn7cjeba/k6MSpZNPuHPyzx7P93Klc3LQ7X37kRs5OHMvF+f7cfu7tBOPgztZ3ugMAAAAAAAAAANBZ1zL53KEc/ealmi1Ku76QwfPfycUkpY33ZPbKhUwnSaZSLg9lcOPc95Pzs8Ilb2X23WpXmsqZyhni3n07M0ly/e3M1tnboaGhxa+ZmZnFL6A6M8kBAAAAAAAAAMCKduSRR27kpYm5ANz0Ozcy+Oh4SueuZTqbc8+GZHDj5iTXbp2yaTxbNlzOS1VmgltcVvXdv80Lz724GLY7860Hc+T4yTyR+WVYK841YxysnpAcAAAAAAAAAACsoLTrC9lS/n7OLOy4cCpnt53M/uOPJZnJ1fKy0Nr4gRzZk5ydOFWxXOst0+eO5ei5zC23evxwrn79WCazOwcffTsvTJzK9MJyq+8cypkLWZwxDlgdITkAAAAAAAAAAKhpc7aODeXqD6aW7L14+tB8AG5zdj6zL7OTc7PIlXYdzv6h7+foxNRtV7rN9RfzUvmxjG5MShu3JVdOz88qdy2TP7icI9t2JBemBORgjdZ3ugMAAAAAAAAAANC15pdNLVdZNjVJMv54PpdLuXw9yabd+fLYpbxweoWA3PiB7B1fuPbuPDw6k9l35pdwHRtPKUmyOTsf3ZrZmbeaeSdQWGaSAwAAAAAAAACAWjZ+KoPvvp2lc7ntyN7jT2ZLkuRyzk68ODcD3MZPZXDD1vllWOfMnn82z7/z+K3lVy+cSnnfyRzZM3f86rcOZfJ6kuuVS7gmefdv88K5a62/PyiAdaVS6YOVGgwMDOTmzZvt6k/HFOU+FxTtfmkPdUVRqHVoDWOLfqCOKQq1TlGodVjKmIDWMLYoCrVOp6g9aJxxA7f06njo1X6vxZ3u2XKrAAAAAAAAAAAA9C0hOQAAAAAAAAAAAPqWkBwAAAAAAAAAAAB9S0gOAAAAAAAAAACAviUkBwAAAAAAAAAAQN8SkgMAAAAAAAAAAKBvfbipVxs/kCN7krMTp3IxyfZ9J/PE6NIms+efzfPnkp3PfDWf27Cw9/LiOXPX2FrR9lqNn1OlTT3nAgAAAAAAAAAAMKcAma8mheQ2zz2AzGQ2Nxb3Xjx9aO4hJEl2ZO/xB1M+dy3J5iQz+YevH8vk9YrLbNqdg3uSsxOHcjE7svf4vux8tc42qeNcAAAAAAAAAAAAUqTMV5OWW72WyecO5eg3L9VsUdr1hQye/878A7w3gxtu5Maymyk9sC2D5Vfm20ylXB7Klgc219WmnnMBAAAAAAAAAABIipT5au5yqzXtyCOP3MhLE5VT4W3NE8dP5oksnSZvduatxRYzMzMZHLo3ydIp9Kq2manv3JUMDAw0clM9r2j3S3uoK4pCrUNrGFv0A3VMUah1ikKtw1LGBLSGsUVRqHU6Re1B44wbuKXY46E3Ml/1aEtIrrTrC9lS/n7OLO6ZypmJqfnvb02Td7nKuZUPoZZabeo5t9LNmzcbat/LBgYGCnW/tIe6oijUOrSGsUU/UMcUhVqnKNQ6LGVMQGsYWxSFWqdT1B40zriBW3p1PDQr2Ncrma96NGm51ZVsztaxoVy9NFXj+Nw0eYMb57bmkoBzhoaGqp5Rq0095wIAAAAAAAAAALCS/sp8tT4kt2k8doHdOAAADMRJREFUWzZcTvlC5b7d2btr8+L3D4/OZPadZPrVS5kdfTDbkyQ7Mjo6k6uvLp06r1abes4FAAAAAAAAAADgDvos89X65VY3fiqD776dmcp9119MeefJHDk+t3n1W4cyeT1JXsy3zx/O/vl1axf3jx/IkT3J2YlTuXi9Rpta5wIAAAAAAAAAAFC/Pst8rSuVSh+s1KBX19ZtVFHuc0HR7pf2UFcUhVqH1jC26AfqmKJQ6xSFWoeljAloDWOLolDrdIrag8YZN3BLr46HXu33Wtzpnlu/3CoAAAAAAAAAAAB0iJAcAAAAAAAAAAAAfUtIDgAAAAAAAAAAgL4lJAcAAAAAAAAAAEDfEpIDAAAAAAAAAACgbwnJAQAAAAAAAAAA0LeE5AAAAAAAAAAAAOhbQnIAAAAAAAAAAAD0LSE5AAAAAAAAAAAA+paQHAAAAAAAAAAAAH1LSA4AAAAAAAAAAIC+JSQHAAAAAAAAAABA3xKSAwAAAAAAAAAAoG8JyQEAAAAAAAAAANC3hOQAAAAAAAAAAADoW0JyAAAAAAAAAAAA9C0hOQAAAAAAAAAAAPqWkBwAAAAAAAAAAAB9S0gOAAAAAAAAAACAvrWuVCp9sFKDgYGB3Lx5s+bx6enppneqmUqlUl3tBgYGWtwTAAAAAAAAAACA1lsp79WP7pRx+3Azfsj233u4GZdpuov/+FLdbYtWGAAAAAAAAAAAAEVguVUAAAAAAAAAAAD6VlNmkqu0Lvfk9/748eR7pzP1bu19Czb8/r780d1TOfWdch3XHs0XD47kjed/mLv++Mk8+MlqrX6cHzz/17m65jsBAAAAAAAAAACg1zU9JPdBbuQfX34vf/rFh/Pjv3gp7yYZefzJfPLlr+VvlgXk1m14OI+N35XkSzlw8Eu1L/qT7y4L0d3IP/7Fd/PJPx7Mj+Z/RrIQxvv95t4QAAAAAAAAAAAAPatpIbktjz+VR3+rcs+n80cHf/fW5m89lQM7579//5/yV38xm89+8f75728F3Sqt2/KH+crdP8xf/jDZ8cdPLc4c91sHn8rvXPhufpK7c3dy69wNW/JbeS8/btZNAQAAAAAAAAAA0NOaFpK7+p2vNbTE6ZbH9+X9700lX/nS0jDdMu9f+GE+yI1M/cXX8o8bHs5XvnJ3/uf8cqpb7t6RuzbkVkru7ruTf/1h1cAdtZV2Hc7+R4bmNsrfyNHTU3Pfjx/IkT1bkySz55/N8+eurar9ok27c/C/J99+7sVMr9R2/ECO7EnOTpzKxebfLm1Ss06g39zpvQ9Yk+37TuaJDX+bF557MdOd7gw0ZHN2PvPVfG7DwvZl/76lj1XW+0z+4evHMnm9032C5tq+72SeGF26z7//KTp/+4HWqBxbftfQ96p9HuTvrbRDrc8ifUYJtVUZH/6bgCJqWr5mXs3PweRrWqJpIbl1Gc0XD34pv7Vk70/zyl+ezo/v35fH8p385Q8H88X5JVKvfuf03Dl3nEnu1vbg/ffnk7krjx58KsOTX8v3Xn8vX7n/nky9eyNJMnL/p/P+63/drFsqiB3ZmtM5OnEtyY7sPf5k9o5P5cw7u3NwT3J24lAuZkf2Ht+Xna8ey+T1Gu0v7Mjeba/k6MSpucH6Z49n+7mlg3D7zscy+4NDmd5U69rzH6xkJrO50aHnQXPUqpNO9wua7c7vfcAabNqdh0cT/wcEvUtYiGLYvu+r2XLl2Rz14RV97OLpQxX/zt+RvccfTFnNU2SbdufLj9zI2YljuTgflva3H2iC8QPZP3YpL0y8mOklfzvvdMeg2Wp8HlTz86PO9ZR+U+uzSJ9RQm21xofPgymiZuVr5i+3wudg8jWtsb65l/txfvD813Jq/usHP6njlE/+bv7o4FM5UOXrT3d+erHZuozms7+dvJ8f5wfPfyPvP7Qvv/fea3n/t7dkQ5J1Gx7O73zyn/KjRqazI8lUJhf/qPtWZucHX+mBbRksvzL/B+CplMtD2fLA5prtk6mcqUy8vvt2Zip/zKbdeXjD3+b8hZWufS2Tzx3K0W9easWN0la16gT6zR3e+4A12Jyd/31brp6/3OmOwCrdm8ENN3LDH/Lpd/P/rfdtYSEKpLTrCxk8/x3/cwzFdv3tzHa6D9CHShvvyeyVC/MzSMz97XxwY4c7BS1R/fOg2p8fQbPU+izSZ5RQW63x4fNgiqhZ+Zpkxc/B5Gtapmkzyc35dB49+FQeXdz+aV75x9qtP0g533s++eLBHXn/L09naoU3zsHf35G8PJX3d44kuZGpvzidJNny/lP57JaX8sb9v5v3X/6aiUbWYtN4tmy4nJcuJNmVzM68tXhoZmYmg0P3JrlWvX0qpol89/apILfvfCy58mymk5RSx7XpH8vqBPrNSu99wOotzEr0/DuP53Njne4NrNbWPHH8ZJ6IJWLoYxs/lcF3387WZ05m/4b4NxEFsCOPPHIjL014T6fopnLmWw/mSOW/dfztB9Zs+p0bGXx0PKVz1zKdzblnQzK4ce4DMCgKnx8B9CCfB1NEa8zXrPQ5mHxN6zQ5JPfj/OD5v87CZG5bHt+Xu1ZovWSJ1q88lQertHn/wjdy5oc3cndez4+uJp/dufT4a9/5boYPPpVH3/+n/JVZ5FZv2TrFpSpNKgdetXWNp88dy9FzmZsO+/jhXF1cWmpHRkcv56XTtQfpkmvTP6x/TQHUfu8DVm38QJ7IN+aW7RvvdGdgtaZyZmJhtlFLxNC/ShvvSUbvSb5+KEevJ9v3ncyXd10QCqVvlXZ9IVvK38+ZTncEOm3T7hx89O28MHEq0wvLrb5zyNJKsFYXTuXstpPZf/yxJDO5WrZmAfj8CKDL+TyYIlprvmbFz8Hka1qpYzPJrdvyh/nTnZ/OTya/lv/r6mi++HjyN98pLx7f8vhTeTTfzZkfzq2de/WHL2VdRm+7zsjj8yG7T96du1N1qV7uoLTrcPYPfT9HJ6aW7K9Mnw4NDWVhDcFa7RddfzEvlR/L6MYk1xeWITm95JdirWvTP+5YJ9Bvlr33Aau389GtyYatOXL8yfk9W7P/+KdydOJUR/sFqzeVcvlJvyPoS9Pv3EjKrywGQC9eupwntvk/GelXm7N1bChXf+C/c6H0wLbkyun5mUOvZfIHl3Nk247kgvEBa3Xx9KH5v6Vvzs5n9mV20r+rKBafHwH0Dp8HU0Rrz9dsrvk52NmJU5mRr2mptswk9+4PT+dMknUZXGw5cvd7+avn/3o+1FbO917/wxw4+KXF4z+Z/FpOrTAz3OIsdD/5bk49X866DQ/nKwefyvDk1/I3ZpSr36bd+fLYpbzw3NIBPP3qpcz+2YPZnqlczI6M/v/t3U9oFFccB/Cvve5FtKCL9yCEVgjVIJ6E9CK0nnQPHryIAQ/itWBuhRyKIEECgZwLUaSsgraQIgg5qCBKqYRQoRBC0pA97tkeZhNEd/yDs4lOPp/bzrwd3sDMG4b3nfc7vJ6l+eXS9hkZTyszxdeih07nxOH1LM0n/cqQlB6b+ii7TqBuSsc+4FPMX7ucrVtpZDwTJ9cye629k12Cj3fodFrfPs3c/WXPCOrtv7V0zmy+3yVHvhlOZ/3eTvcKBkP5GNjyZknIsZPD6bww/kOlRk7leP7KrA9t2EXMHwF8QcwHsxtVkq9ZLp0HW81oWvI1A1VxSK6wuUpc8jIP7qUIsJ09mr1J8u/v+SNJ55/k7KUrxbbe9pnpu1vHGDp1JeNjr+17bZW5DP2Qi2P78uzm9cz0lo57tbGQuemF4n/fPcntXxcGcWr1c+Bg9n893Fu+vdB5+Eum77fz28OruTA5lR+TLN26XKwMMFLWfiaL56cycabYttm+bxmSlZJjUx+l15XBmpp52n/sA4CstLM4NpWJyeKnZwS1tdLO9K3xTPTe77LYKxMAdXTgYPZvrPlYF5I3SkIm2fgzs8Z/qMBoWpPnMpQk+Tt3fmr3VmyEXcL8EcCXw3wwu1Fl+Zr+94l8zeDtaTabr97VoNFopNvtlu5fXV3NkWMnKu9YFZ4/Xkiz2a/6L9tjNK3J79O58bObFAAAAAAAAAAA3iJfU4X3ZdwGspIcFB5lTv1xAAAAAAAAAAAoIV+zHSoJyT1/rLQpAAAAAAAAAAAAn59PDskpZwoAAAAAAAAAAMDn6qud7gAAAAAAAAAAAAAMipAcAAAAAAAAAAAAtfVB5VYbjcag+wEAAAAAAAAAAACVe29Irtvtbkc/AAAAAAAAAAAAoHLKrQIAAAAAAAAAAFBbQnIAAAAAAAAAAADUlpAcAAAAAAAAAAAAtSUkBwAAAAAAAAAAQG0JyQEAAAAAAAAAAFBbQnIAAAAAAAAAAADUlpAcAAAAAAAAAAAAtfU/Wr5oCUiL45UAAAAASUVORK5CYII=;fontStyle=0" vertex="1" parent="1">
                    <mxGeometry x="-90" y="180" width="2505" height="1286" as="geometry"/>
                </mxCell>
            </root>
        </mxGraphModel>
    </diagram>
</mxfile>